<svg height="512" viewBox="0 0 60 60" width="512" xmlns="http://www.w3.org/2000/svg"><g id="Page-1" fill="none" fill-rule="evenodd"><g id="082---Branding-Design" fill="rgb(0,0,0)" fill-rule="nonzero" transform="translate(0 -1)"><path id="Shape" d="m58 50v-38c0-2.209139-1.790861-4-4-4h-5v-5c0-1.1045695-.8954305-2-2-2h-29c-1.1045695 0-2 .8954305-2 2v5h-2v-1c-.0005796-.14806815-.0347725-.29407186-.1-.427h.007l-2.107-4.424c-.3234038-.70103792-1.024961-1.15000543-1.797-1.15000543-.77203898 0-1.4735962.44896751-1.797 1.15000543l-2.106 4.421h.007c-.06809535.13325924-.1047015.28036806-.107.43v1c-2.209139 0-4 1.790861-4 4v38c-1.1045695 0-2 .8954305-2 2v2c.00440864 3.8641657 3.13583434 6.9955914 7 7h46c3.8641657-.0044086 6.9955914-3.1358343 7-7v-2c0-1.1045695-.8954305-2-2-2zm-4-40c1.1045695 0 2 .8954305 2 2v38h-7v-2h2c1.6568542 0 3-1.3431458 3-3v-10c0-1.6568542-1.3431458-3-3-3h-2v-2h2c1.6568542 0 3-1.3431458 3-3v-10c0-1.6568542-1.3431458-3-3-3h-2v-4zm-14 40h-22v-39h29v3h-10c-1.2667854.0052514-2.3937454.8056491-2.816 2h-11.184c-1.1045695 0-2 .8954305-2 2v2c0 1.1045695.8954305 2 2 2h11v5c0 1.6568542 1.3431458 3 3 3h10v2h-10c-1.6568542 0-3 1.3431458-3 3v10c0 1.6568542 1.3431458 3 3 3h10v2zm-19 2h18v1c0 1.1045695-.8954305 2-2 2h-14c-1.1045695 0-2-.8954305-2-2zm1-44c0-.55228475.4477153-1 1-1s1 .44771525 1 1-.4477153 1-1 1-1-.44771525-1-1zm15 20c-.5522847 0-1-.4477153-1-1v-10c0-.5522847.4477153-1 1-1h14c.5522847 0 1 .4477153 1 1v10c0 .5522847-.4477153 1-1 1zm-3-8h-11v-2h11zm3.457 26 4.721-4.627c1.0729948.8307497 2.5720052.8307497 3.645 0l4.72 4.627zm-1.457-10.628 4.722 4.628-4.722 4.628zm16 9.256-4.722-4.628 4.722-4.628zm-7.288-4.914c-.397063.3828937-1.025937.3828937-1.423 0l-5.832-5.714h13.086zm-26.712-36.714h29v6h-21.184c.1184378-.32025698.1806856-.65856033.184-1 0-1.65685425-1.3431458-3-3-3s-3 1.34314575-3 3c.0033144.34143967.0655622.67974302.184 1h-2.184zm-6 37h-4v-3h4zm-4-32h4v27h-4zm3.416-2h-2.838l1.414-2.99zm-7.416 6c0-1.1045695.8954305-2 2-2v30c0 1.1045695.8954305 2 2 2h4c1.1045695 0 2-.8954305 2-2v-30h2v40h-12zm54 42c-.0033061 2.7600532-2.2399468 4.9966939-5 5h-46c-2.76005315-.0033061-4.99669388-2.2399468-5-5v-2h17v1c0 2.209139 1.790861 4 4 4h14c2.209139 0 4-1.790861 4-4v-1h17z"/><path id="Shape" d="m16 54h-3c-.5522847 0-1 .4477153-1 1s.4477153 1 1 1h3c.5522847 0 1-.4477153 1-1s-.4477153-1-1-1z"/><circle id="Oval" cx="5" cy="55" r="1"/><circle id="Oval" cx="9" cy="55" r="1"/><path id="Shape" d="m41 18c-1.6568542 0-3 1.3431458-3 3s1.3431458 3 3 3 3-1.3431458 3-3-1.3431458-3-3-3zm0 4c-.5522847 0-1-.4477153-1-1s.4477153-1 1-1 1 .4477153 1 1-.4477153 1-1 1z"/><path id="Shape" d="m49 24h-3c-.5522847 0-1 .4477153-1 1s.4477153 1 1 1h3c.5522847 0 1-.4477153 1-1s-.4477153-1-1-1z"/><path id="Shape" d="m30 7h3c.5522847 0 1-.44771525 1-1s-.4477153-1-1-1h-3c-.5522847 0-1 .44771525-1 1s.4477153 1 1 1z"/><path id="Shape" d="m31 24h-7c-.5522847 0-1 .4477153-1 1s.4477153 1 1 1h7c.5522847 0 1-.4477153 1-1s-.4477153-1-1-1z"/><path id="Shape" d="m31 28h-7c-.5522847 0-1 .4477153-1 1s.4477153 1 1 1h7c.5522847 0 1-.4477153 1-1s-.4477153-1-1-1z"/><path id="Shape" d="m31 32h-7c-.5522847 0-1 .4477153-1 1s.4477153 1 1 1h7c.5522847 0 1-.4477153 1-1s-.4477153-1-1-1z"/><path id="Shape" d="m31 36h-7c-.5522847 0-1 .4477153-1 1s.4477153 1 1 1h7c.5522847 0 1-.4477153 1-1s-.4477153-1-1-1z"/></g></g></svg>