<svg height="512" viewBox="0 0 60 60" width="512" xmlns="http://www.w3.org/2000/svg"><g id="Page-1" fill="none" fill-rule="evenodd"><g id="016---Book" fill="rgb(0,0,0)" fill-rule="nonzero"><path id="Shape" d="m14 53h-4c-.55228475 0-1 .4477153-1 1s.44771525 1 1 1h4c.5522847 0 1-.4477153 1-1s-.4477153-1-1-1z"/><path id="Shape" d="m56 14c.2651948-.0000566.5195073-.1054506.707-.293l3-3c.3903819-.3904999.3903819-1.02350015 0-1.414l-3-3c-.1874927-.18754937-.4418052-.29294336-.707-.293h-6v-3c0-1.65685425-1.3431458-3-3-3h-42c-2.76005315.00330612-4.99669388 2.23994685-5 5v50c.00330612 2.7600532 2.23994685 4.9966939 5 5h42c1.6568542 0 3-1.3431458 3-3v-19h6c.2651948-.0000566.5195073-.1054506.707-.293l3-3c.3903819-.3904999.3903819-1.0235001 0-1.414l-3-3c-.1874927-.1875494-.4418052-.2929434-.707-.293h-6v-4h6c.2651948-.0000566.5195073-.1054506.707-.293l3-3c.3903819-.3904999.3903819-1.0235001 0-1.414l-3-3c-.1874927-.1875494-.4418052-.2929434-.707-.293h-6v-4zm-.414-6 2 2-2 2h-5.586v-4zm-7.586-5v44c0 .5522847-.4477153 1-1 1h-39v-46h39c.5522847 0 1 .44771525 1 1zm-43-1h1v46h-1c-1.08546927.0036768-2.13961114.3641933-3 1.026v-44.026c0-1.65685425 1.34314575-3 3-3zm-3 53v-2c0-1.6568542 1.34314575-3 3-3h39v3h-24c-.5522847 0-1 .4477153-1 1s.4477153 1 1 1h24v3h-39c-1.65685425 0-3-1.3431458-3-3zm45 3h-1v-8h1c.3414397-.0033144.679743-.0655622 1-.184v7.184c0 .5522847-.4477153 1-1 1zm8.586-26 2 2-2 2h-5.586v-4zm0-12 2 2-2 2h-5.586v-4z"/><path id="Shape" d="m13 26h30c1.1045695 0 2-.8954305 2-2v-14c0-1.1045695-.8954305-2-2-2h-30c-1.1045695 0-2 .8954305-2 2v14c0 1.1045695.8954305 2 2 2zm0-16h30v14h-30z"/></g></g></svg>