<svg height="512" viewBox="0 0 54 60" width="512" xmlns="http://www.w3.org/2000/svg"><g id="Page-1" fill="none" fill-rule="evenodd"><g id="015---Copywriting-Idea" fill="rgb(0,0,0)" fill-rule="nonzero" transform="translate(0 -1)"><path id="Shape" d="m29.146 1.117c-1.4236849-.15699616-2.8603151-.15699616-4.284 0-6.6546165.75362842-12.4209917 4.95503105-15.17768236 11.0585164-2.75669065 6.1034854-2.09650234 13.2074996 1.73768236 18.6984836 3.6772056 5.3154 5.6251104 11.6357888 5.578 18.099v4.027h-3c-.5522847 0-1 .4477153-1 1s.4477153 1 1 1h3v2c0 2.209139 1.790861 4 4 4h12c2.209139 0 4-1.790861 4-4v-2h3c.5522847 0 1-.4477153 1-1s-.4477153-1-1-1h-3v-4c-.0524957-6.47299 1.8963939-12.8040871 5.58-18.127 3.8334058-5.4900908 4.4939472-12.5926671 1.7386867-18.6955056-2.7552605-6.10283837-8.519489-10.30481119-15.1726867-11.0604944zm-6.309 17.883h8.326l3.566 6.736-3.655 2.924-2.66-2.66c-.7809997-.7807639-2.0470003-.7807639-2.828 0l-2.66 2.66-3.655-2.924zm1.063-2 3.1-5.863 3.1 5.863zm7.1 26c-.5522847 0-1 .4477153-1 1v4h-6v-9c0-.5522847-.4477153-1-1-1s-1 .4477153-1 1v9h-3v-19.92l2.677 2.142c.100658.0802311.2088264.1505573.323.21v3.568c0 .5522847.4477153 1 1 1s1-.4477153 1-1v-3.658c.1229103-.0764638.2369433-.1663487.34-.268l2.66-2.66 2.66 2.66c.1032834.1019769.2172777.1925017.34.27v8.656c0 .5522847.4477153 1 1 1s1-.4477153 1-1v-8.6c.1130298-.0490335.2211766-.1086314.323-.178l2.677-2.142v19.92h-3v-4c0-.5522847-.4477153-1-1-1zm4 14c0 1.1045695-.8954305 2-2 2h-12c-1.1045695 0-2-.8954305-2-2v-7h16zm5.941-27.273c-1.6507346 2.3728806-2.9761868 4.956184-3.941 7.681v-10.908c-.0009901-.4880746-.1207715-.9685727-.349-1.4l-8.767-16.568c-.1899863-.30549874-.5242441-.49125006-.884-.49125006s-.6940137.18575132-.884.49125006l-8.767 16.56c-.2292255.4339219-.3490285.9172531-.349 1.408v10.9c-.9651462-2.7227338-2.2898745-5.3042556-3.939-7.676-2.2755803-3.2386238-3.33772457-7.1752845-3-11.119.7228562-8.0659507 6.9857602-14.52893416 15.025-15.505 1.2748909-.13896749 2.5611091-.13896749 3.836 0 8.0397819.97698789 14.301929 7.4421483 15.022 15.509.3365591 3.9435915-.7262568 7.879763-3.002 11.118z"/><path id="Shape" d="m25 55h-2v-2c0-.5522847-.4477153-1-1-1s-1 .4477153-1 1v3c0 .5522847.4477153 1 1 1h3c.5522847 0 1-.4477153 1-1s-.4477153-1-1-1z"/><path id="Shape" d="m5 20c0-.5522847-.44771525-1-1-1h-3c-.55228475 0-1 .4477153-1 1s.44771525 1 1 1h3c.55228475 0 1-.4477153 1-1z"/><path id="Shape" d="m54 20c0-.5522847-.4477153-1-1-1h-3c-.5522847 0-1 .4477153-1 1s.4477153 1 1 1h3c.5522847 0 1-.4477153 1-1z"/><path id="Shape" d="m4.484 34c.17558875.0003718.34812995-.0458692.5-.134l2.6-1.5c.31195078-.1773616.50495322-.5082732.5057421-.8671183.00078889-.3588451-.19075673-.6906021-.50192468-.8693336-.31116795-.1787314-.694247-.1770325-1.00381742.0044519l-2.6 1.5c-.39194126.2263139-.58302085.6876562-.46588095 1.1248223s.51329289.7411578.96588095.7411777z"/><path id="Shape" d="m49.017 6.134-2.6 1.5c-.3119508.17736158-.5049532.50827321-.5057421.8671183s.1907567.69060211.5019247.86933356c.3111679.17873145.694247.17703252 1.0038174-.00445186l2.6-1.5c.4742136-.27800577.6351286-.88664704.3602745-1.3626943-.274854-.47604727-.8824145-.64099599-1.3602745-.3693057z"/><path id="Shape" d="m47.419 30.634c-.3095704-.1814844-.6926495-.1831833-1.0038174-.0044519-.311168.1787315-.5027136.5104885-.5019247.8693336s.1937913.6897567.5057421.8671183l2.6 1.5c.47786.2716903 1.0854205.1067416 1.3602745-.3693057.2748541-.4760473.1139391-1.0846885-.3602745-1.3626943z"/><path id="Shape" d="m3.617 6.5c-.27612934.47828031-.11226816 1.08984962.366 1.366l2.6 1.5c.30957042.18148438.69264947.18318331 1.00381742.00445186s.50271357-.51048847.50192468-.86933356c-.00078888-.35884509-.19379132-.68975672-.5057421-.8671183l-2.6-1.5c-.47828031-.27612934-1.08984962-.11226816-1.366.366z"/></g></g></svg>