<?xml version="1.0" encoding="utf-8"?>
<!-- Generator: Adobe Illustrator 24.3.0, SVG Export Plug-In . SVG Version: 6.00 Build 0)  -->
<svg version="1.1" id="Layer_1" xmlns="http://www.w3.org/2000/svg" xmlns:xlink="http://www.w3.org/1999/xlink" x="0px" y="0px"
	 viewBox="0 0 512 512" style="enable-background:new 0 0 512 512;" xml:space="preserve">
<style type="text/css">
	.st0{fill:url(#Shape_9_);}
	.st1{fill:url(#Shape_10_);}
	.st2{fill:url(#Oval_2_);}
	.st3{fill:url(#Oval_3_);}
	.st4{fill:url(#Shape_11_);}
	.st5{fill:url(#Shape_12_);}
	.st6{fill:url(#Shape_13_);}
	.st7{fill:url(#Shape_14_);}
	.st8{fill:url(#Shape_15_);}
	.st9{fill:url(#Shape_16_);}
	.st10{fill:url(#Shape_17_);}
</style>
<g id="Page-1">
	<g id="_x30_82---Branding-Design" transform="translate(0 -1)">
		<linearGradient id="Shape_9_" gradientUnits="userSpaceOnUse" x1="23.7363" y1="55.6183" x2="479.0436" y2="510.9256">
			<stop  offset="0" style="stop-color:#0F8FCE"/>
			<stop  offset="1" style="stop-color:#095A81"/>
		</linearGradient>
		<path id="Shape" class="st0" d="M494.9,419.1V94.9c0-18.9-15.3-34.1-34.1-34.1h-42.7V18.1c0-9.4-7.6-17.1-17.1-17.1H153.6
			c-9.4,0-17.1,7.6-17.1,17.1v42.7h-17.1v-8.5c0-1.3-0.3-2.5-0.9-3.6h0.1l-18-37.8C97.9,4.8,91.9,1,85.4,1C78.8,1,72.8,4.8,70,10.8
			l-18,37.7h0.1c-0.6,1.1-0.9,2.4-0.9,3.7v8.5c-18.9,0-34.1,15.3-34.1,34.1v324.3c-9.4,0-17.1,7.6-17.1,17.1v17.1
			c0,33,26.8,59.7,59.7,59.7h392.5c33,0,59.7-26.8,59.7-59.7v-17.1C512,426.8,504.4,419.1,494.9,419.1z M460.8,77.8
			c9.4,0,17.1,7.6,17.1,17.1v324.3h-59.7v-17.1h17.1c14.1,0,25.6-11.5,25.6-25.6v-85.3c0-14.1-11.5-25.6-25.6-25.6h-17.1v-17.1h17.1
			c14.1,0,25.6-11.5,25.6-25.6v-85.3c0-14.1-11.5-25.6-25.6-25.6h-17.1V77.8H460.8z M341.3,419.1H153.6V86.3h247.5v25.6h-85.3
			c-10.8,0-20.4,6.9-24,17.1h-95.4c-9.4,0-17.1,7.6-17.1,17.1v17.1c0,9.4,7.6,17.1,17.1,17.1h93.9v42.7c0,14.1,11.5,25.6,25.6,25.6
			h85.3v17.1h-85.3c-14.1,0-25.6,11.5-25.6,25.6v85.3c0,14.1,11.5,25.6,25.6,25.6h85.3v17.1H341.3z M179.2,436.2h153.6v8.5
			c0,9.4-7.6,17.1-17.1,17.1H196.3c-9.4,0-17.1-7.6-17.1-17.1V436.2z M187.7,60.7c0-4.7,3.8-8.5,8.5-8.5s8.5,3.8,8.5,8.5
			c0,4.7-3.8,8.5-8.5,8.5S187.7,65.4,187.7,60.7z M315.7,231.4c-4.7,0-8.5-3.8-8.5-8.5v-85.3c0-4.7,3.8-8.5,8.5-8.5h119.5
			c4.7,0,8.5,3.8,8.5,8.5v85.3c0,4.7-3.8,8.5-8.5,8.5H315.7z M290.1,163.1h-93.9v-17.1h93.9V163.1z M319.6,385l40.3-39.5
			c9.2,7.1,21.9,7.1,31.1,0l40.3,39.5H319.6z M307.2,294.3l40.3,39.5l-40.3,39.5V294.3z M443.7,373.3l-40.3-39.5l40.3-39.5V373.3z
			 M381.5,331.4c-3.4,3.3-8.8,3.3-12.1,0l-49.8-48.8h111.7L381.5,331.4z M153.6,18.1h247.5v51.2H220.3c1-2.7,1.5-5.6,1.6-8.5
			c0-14.1-11.5-25.6-25.6-25.6s-25.6,11.5-25.6,25.6c0,2.9,0.6,5.8,1.6,8.5h-18.6L153.6,18.1z M102.4,333.8H68.3v-25.6h34.1V333.8z
			 M68.3,60.7h34.1v230.4H68.3V60.7z M97.4,43.7H73.2l12.1-25.5L97.4,43.7z M34.1,94.9c0-9.4,7.6-17.1,17.1-17.1v256
			c0,9.4,7.6,17.1,17.1,17.1h34.1c9.4,0,17.1-7.6,17.1-17.1v-256h17.1v341.3H34.1L34.1,94.9z M494.9,453.3
			c0,23.6-19.1,42.6-42.7,42.7H59.7c-23.6,0-42.6-19.1-42.7-42.7v-17.1h145.1v8.5c0,18.9,15.3,34.1,34.1,34.1h119.5
			c18.9,0,34.1-15.3,34.1-34.1v-8.5h145.1V453.3z"/>
		<linearGradient id="Shape_10_" gradientUnits="userSpaceOnUse" x1="111.2994" y1="449.3661" x2="136.1673" y2="474.234">
			<stop  offset="0" style="stop-color:#0F8FCE"/>
			<stop  offset="1" style="stop-color:#095A81"/>
		</linearGradient>
		<path id="Shape_1_" class="st1" d="M136.5,453.3h-25.6c-4.7,0-8.5,3.8-8.5,8.5s3.8,8.5,8.5,8.5h25.6c4.7,0,8.5-3.8,8.5-8.5
			S141.2,453.3,136.5,453.3z"/>
		<linearGradient id="Oval_2_" gradientUnits="userSpaceOnUse" x1="36.6327" y1="455.7661" x2="48.7006" y2="467.834">
			<stop  offset="0" style="stop-color:#0F8FCE"/>
			<stop  offset="1" style="stop-color:#095A81"/>
		</linearGradient>
		<circle id="Oval" class="st2" cx="42.7" cy="461.8" r="8.5"/>
		<linearGradient id="Oval_3_" gradientUnits="userSpaceOnUse" x1="70.766" y1="455.7661" x2="82.834" y2="467.834">
			<stop  offset="0" style="stop-color:#0F8FCE"/>
			<stop  offset="1" style="stop-color:#095A81"/>
		</linearGradient>
		<circle id="Oval_1_" class="st3" cx="76.8" cy="461.8" r="8.5"/>
		<linearGradient id="Shape_11_" gradientUnits="userSpaceOnUse" x1="331.7647" y1="153.5647" x2="367.9686" y2="189.7686">
			<stop  offset="0" style="stop-color:#0F8FCE"/>
			<stop  offset="1" style="stop-color:#095A81"/>
		</linearGradient>
		<path id="Shape_2_" class="st4" d="M349.9,146.1c-14.1,0-25.6,11.5-25.6,25.6c0,14.1,11.5,25.6,25.6,25.6
			c14.1,0,25.6-11.5,25.6-25.6C375.5,157.5,364,146.1,349.9,146.1z M349.9,180.2c-4.7,0-8.5-3.8-8.5-8.5c0-4.7,3.8-8.5,8.5-8.5
			c4.7,0,8.5,3.8,8.5,8.5C358.4,176.4,354.6,180.2,349.9,180.2z"/>
		<linearGradient id="Shape_12_" gradientUnits="userSpaceOnUse" x1="392.8994" y1="193.366" x2="417.7673" y2="218.234">
			<stop  offset="0" style="stop-color:#0F8FCE"/>
			<stop  offset="1" style="stop-color:#095A81"/>
		</linearGradient>
		<path id="Shape_3_" class="st5" d="M418.1,197.3h-25.6c-4.7,0-8.5,3.8-8.5,8.5c0,4.7,3.8,8.5,8.5,8.5h25.6c4.7,0,8.5-3.8,8.5-8.5
			C426.7,201.1,422.8,197.3,418.1,197.3z"/>
		<linearGradient id="Shape_13_" gradientUnits="userSpaceOnUse" x1="256.366" y1="31.2327" x2="281.234" y2="56.1006">
			<stop  offset="0" style="stop-color:#0F8FCE"/>
			<stop  offset="1" style="stop-color:#095A81"/>
		</linearGradient>
		<path id="Shape_4_" class="st6" d="M256,52.2h25.6c4.7,0,8.5-3.8,8.5-8.5s-3.8-8.5-8.5-8.5H256c-4.7,0-8.5,3.8-8.5,8.5
			S251.3,52.2,256,52.2z"/>
		<linearGradient id="Shape_14_" gradientUnits="userSpaceOnUse" x1="213.6994" y1="184.8327" x2="255.634" y2="226.7673">
			<stop  offset="0" style="stop-color:#0F8FCE"/>
			<stop  offset="1" style="stop-color:#095A81"/>
		</linearGradient>
		<path id="Shape_5_" class="st7" d="M264.5,197.3h-59.7c-4.7,0-8.5,3.8-8.5,8.5c0,4.7,3.8,8.5,8.5,8.5h59.7c4.7,0,8.5-3.8,8.5-8.5
			C273.1,201.1,269.2,197.3,264.5,197.3z"/>
		<linearGradient id="Shape_15_" gradientUnits="userSpaceOnUse" x1="213.6994" y1="218.966" x2="255.634" y2="260.9007">
			<stop  offset="0" style="stop-color:#0F8FCE"/>
			<stop  offset="1" style="stop-color:#095A81"/>
		</linearGradient>
		<path id="Shape_6_" class="st8" d="M264.5,231.4h-59.7c-4.7,0-8.5,3.8-8.5,8.5c0,4.7,3.8,8.5,8.5,8.5h59.7c4.7,0,8.5-3.8,8.5-8.5
			C273.1,235.2,269.2,231.4,264.5,231.4z"/>
		<linearGradient id="Shape_16_" gradientUnits="userSpaceOnUse" x1="213.6994" y1="253.0994" x2="255.634" y2="295.034">
			<stop  offset="0" style="stop-color:#0F8FCE"/>
			<stop  offset="1" style="stop-color:#095A81"/>
		</linearGradient>
		<path id="Shape_7_" class="st9" d="M264.5,265.5h-59.7c-4.7,0-8.5,3.8-8.5,8.5s3.8,8.5,8.5,8.5h59.7c4.7,0,8.5-3.8,8.5-8.5
			S269.2,265.5,264.5,265.5z"/>
		<linearGradient id="Shape_17_" gradientUnits="userSpaceOnUse" x1="213.6994" y1="287.2327" x2="255.634" y2="329.1673">
			<stop  offset="0" style="stop-color:#0F8FCE"/>
			<stop  offset="1" style="stop-color:#095A81"/>
		</linearGradient>
		<path id="Shape_8_" class="st10" d="M264.5,299.7h-59.7c-4.7,0-8.5,3.8-8.5,8.5s3.8,8.5,8.5,8.5h59.7c4.7,0,8.5-3.8,8.5-8.5
			S269.2,299.7,264.5,299.7z"/>
	</g>
</g>
</svg>
