<?xml version="1.0" encoding="utf-8"?>
<!-- Generator: Adobe Illustrator 24.3.0, SVG Export Plug-In . SVG Version: 6.00 Build 0)  -->
<svg version="1.1" id="Layer_1" xmlns="http://www.w3.org/2000/svg" xmlns:xlink="http://www.w3.org/1999/xlink" x="0px" y="0px"
	 viewBox="0 0 512 512" style="enable-background:new 0 0 512 512;" xml:space="preserve">
<style type="text/css">
	.st0{fill:#FFFFFF;}
</style>
<g id="Page-1">
	<g id="_x30_16---Book">
		<path id="Shape" class="st0" d="M119.5,452.3H85.3c-4.7,0-8.5,3.8-8.5,8.5s3.8,8.5,8.5,8.5h34.1c4.7,0,8.5-3.8,8.5-8.5
			S124.2,452.3,119.5,452.3z"/>
		<path id="Shape_1_" class="st0" d="M477.9,119.5c2.3,0,4.4-0.9,6-2.5l25.6-25.6c3.3-3.3,3.3-8.7,0-12.1l-25.6-25.6
			c-1.6-1.6-3.8-2.5-6-2.5h-51.2V25.6c0-14.1-11.5-25.6-25.6-25.6H42.7C19.1,0,0,19.1,0,42.7v426.7C0,492.9,19.1,512,42.7,512h358.4
			c14.1,0,25.6-11.5,25.6-25.6V324.3h51.2c2.3,0,4.4-0.9,6-2.5l25.6-25.6c3.3-3.3,3.3-8.7,0-12.1l-25.6-25.6c-1.6-1.6-3.8-2.5-6-2.5
			h-51.2v-34.1h51.2c2.3,0,4.4-0.9,6-2.5l25.6-25.6c3.3-3.3,3.3-8.7,0-12.1l-25.6-25.6c-1.6-1.6-3.8-2.5-6-2.5h-51.2v-34.1
			L477.9,119.5z M474.3,68.3l17.1,17.1l-17.1,17.1h-47.7V68.3H474.3z M409.6,25.6v375.5c0,4.7-3.8,8.5-8.5,8.5H68.3V17.1h332.8
			C405.8,17.1,409.6,20.9,409.6,25.6z M42.7,17.1h8.5v392.5h-8.5c-9.3,0-18.3,3.1-25.6,8.8V42.7C17.1,28.5,28.5,17.1,42.7,17.1z
			 M17.1,469.3v-17.1c0-14.1,11.5-25.6,25.6-25.6h332.8v25.6H170.7c-4.7,0-8.5,3.8-8.5,8.5s3.8,8.5,8.5,8.5h204.8v25.6H42.7
			C28.5,494.9,17.1,483.5,17.1,469.3z M401.1,494.9h-8.5v-68.3h8.5c2.9,0,5.8-0.6,8.5-1.6v61.3C409.6,491.1,405.8,494.9,401.1,494.9
			z M474.3,273.1l17.1,17.1l-17.1,17.1h-47.7v-34.1H474.3z M474.3,170.7l17.1,17.1l-17.1,17.1h-47.7v-34.1H474.3z"/>
		<path id="Shape_2_" class="st0" d="M110.9,221.9h256c9.4,0,17.1-7.6,17.1-17.1V85.3c0-9.4-7.6-17.1-17.1-17.1h-256
			c-9.4,0-17.1,7.6-17.1,17.1v119.5C93.9,214.2,101.5,221.9,110.9,221.9z M110.9,85.3h256v119.5h-256V85.3z"/>
	</g>
</g>
</svg>
