<?xml version="1.0" encoding="utf-8"?>
<!-- Generator: Adobe Illustrator 24.3.0, SVG Export Plug-In . SVG Version: 6.00 Build 0)  -->
<svg version="1.1" id="Layer_1" xmlns="http://www.w3.org/2000/svg" xmlns:xlink="http://www.w3.org/1999/xlink" x="0px" y="0px"
	 viewBox="0 0 512 512" style="enable-background:new 0 0 512 512;" xml:space="preserve">
<style type="text/css">
	.st0{fill:#FFFFFF;}
</style>
<g id="Page-1">
	<g id="_x30_15---Copywriting-Idea" transform="translate(0 -1)">
		<path id="Shape" class="st0" d="M274.3,2c-12.1-1.3-24.4-1.3-36.6,0c-56.8,6.4-106,42.3-129.5,94.4s-17.9,112.7,14.8,159.6
			c31.4,45.4,48,99.3,47.6,154.4v34.4h-25.6c-4.7,0-8.5,3.8-8.5,8.5s3.8,8.5,8.5,8.5h25.6v17.1c0,18.9,15.3,34.1,34.1,34.1h102.4
			c18.9,0,34.1-15.3,34.1-34.1v-17.1h25.6c4.7,0,8.5-3.8,8.5-8.5s-3.8-8.5-8.5-8.5h-25.6v-34.1c-0.4-55.2,16.2-109.3,47.6-154.7
			c32.7-46.8,38.3-107.5,14.8-159.5C380.3,44.3,331.1,8.4,274.3,2z M220.5,154.6h71l30.4,57.5l-31.2,25l-22.7-22.7
			c-6.7-6.7-17.5-6.7-24.1,0L221.2,237l-31.2-25L220.5,154.6z M229.5,137.5l26.5-50l26.5,50H229.5z M290.1,359.4
			c-4.7,0-8.5,3.8-8.5,8.5v34.1h-51.2v-76.8c0-4.7-3.8-8.5-8.5-8.5s-8.5,3.8-8.5,8.5v76.8h-25.6v-170l22.8,18.3
			c0.9,0.7,1.8,1.3,2.8,1.8v30.4c0,4.7,3.8,8.5,8.5,8.5s8.5-3.8,8.5-8.5v-31.2c1-0.7,2-1.4,2.9-2.3l22.7-22.7l22.7,22.7
			c0.9,0.9,1.9,1.6,2.9,2.3v73.9c0,4.7,3.8,8.5,8.5,8.5s8.5-3.8,8.5-8.5v-73.4c1-0.4,1.9-0.9,2.8-1.5l22.8-18.3v170h-25.6v-34.1
			C298.7,363.2,294.8,359.4,290.1,359.4z M324.3,478.9c0,9.4-7.6,17.1-17.1,17.1H204.8c-9.4,0-17.1-7.6-17.1-17.1v-59.7h136.5V478.9
			z M375,246.1c-14.1,20.2-25.4,42.3-33.6,65.5v-93.1c0-4.2-1-8.3-3-11.9L263.5,65.3c-1.6-2.6-4.5-4.2-7.5-4.2s-5.9,1.6-7.5,4.2
			l-74.8,141.3c-2,3.7-3,7.8-3,12v93c-8.2-23.2-19.5-45.3-33.6-65.5c-19.4-27.6-28.5-61.2-25.6-94.9c6.2-68.8,59.6-124,128.2-132.3
			c10.9-1.2,21.9-1.2,32.7,0c68.6,8.3,122,63.5,128.2,132.3C403.5,184.9,394.4,218.5,375,246.1L375,246.1z"/>
		<path id="Shape_1_" class="st0" d="M238.9,461.8h-17.1v-17.1c0-4.7-3.8-8.5-8.5-8.5c-4.7,0-8.5,3.8-8.5,8.5v25.6
			c0,4.7,3.8,8.5,8.5,8.5h25.6c4.7,0,8.5-3.8,8.5-8.5C247.5,465.6,243.6,461.8,238.9,461.8z"/>
		<path id="Shape_2_" class="st0" d="M68.3,163.1c0-4.7-3.8-8.5-8.5-8.5H34.1c-4.7,0-8.5,3.8-8.5,8.5c0,4.7,3.8,8.5,8.5,8.5h25.6
			C64.4,171.7,68.3,167.8,68.3,163.1z"/>
		<path id="Shape_3_" class="st0" d="M486.4,163.1c0-4.7-3.8-8.5-8.5-8.5h-25.6c-4.7,0-8.5,3.8-8.5,8.5c0,4.7,3.8,8.5,8.5,8.5h25.6
			C482.6,171.7,486.4,167.8,486.4,163.1z"/>
		<path id="Shape_4_" class="st0" d="M63.9,282.6c1.5,0,3-0.4,4.3-1.1l22.2-12.8c2.7-1.5,4.3-4.3,4.3-7.4s-1.6-5.9-4.3-7.4
			c-2.7-1.5-5.9-1.5-8.6,0l-22.2,12.8c-3.3,1.9-5,5.9-4,9.6S60,282.6,63.9,282.6z"/>
		<path id="Shape_5_" class="st0" d="M443.9,44.8l-22.2,12.8c-2.7,1.5-4.3,4.3-4.3,7.4c0,3.1,1.6,5.9,4.3,7.4c2.7,1.5,5.9,1.5,8.6,0
			l22.2-12.8c4-2.4,5.4-7.6,3.1-11.6S448,42.5,443.9,44.8L443.9,44.8z"/>
		<path id="Shape_6_" class="st0" d="M430.2,253.9c-2.6-1.5-5.9-1.6-8.6,0s-4.3,4.4-4.3,7.4c0,3.1,1.7,5.9,4.3,7.4l22.2,12.8
			c4.1,2.3,9.3,0.9,11.6-3.2c2.3-4.1,1-9.3-3.1-11.6L430.2,253.9z"/>
		<path id="Shape_7_" class="st0" d="M56.5,47.9c-2.4,4.1-1,9.3,3.1,11.7l22.2,12.8c2.6,1.5,5.9,1.6,8.6,0c2.7-1.5,4.3-4.4,4.3-7.4
			c0-3.1-1.7-5.9-4.3-7.4L68.1,44.8C64,42.5,58.8,43.9,56.5,47.9z"/>
	</g>
</g>
</svg>
