<?xml version="1.0" encoding="utf-8"?>
<!-- Generator: Adobe Illustrator 24.3.0, SVG Export Plug-In . SVG Version: 6.00 Build 0)  -->
<svg version="1.1" id="Layer_1" xmlns="http://www.w3.org/2000/svg" xmlns:xlink="http://www.w3.org/1999/xlink" x="0px" y="0px"
	 viewBox="0 0 512 512" style="enable-background:new 0 0 512 512;" xml:space="preserve">
<style type="text/css">
	.st0{fill:#FFFFFF;}
</style>
<desc>Created with Sketch.</desc>
<g id="Page-1">
	<g id="_x30_01---Accessibility">
		<path id="Shape" class="st0" d="M256,0C114.6,0,0,114.6,0,256s114.6,256,256,256s256-114.6,256-256C511.8,114.7,397.3,0.2,256,0z
			 M256,494.9C124,494.9,17.1,388,17.1,256S124,17.1,256,17.1S494.9,124,494.9,256C494.8,387.9,387.9,494.8,256,494.9z"/>
		<path id="Shape_1_" class="st0" d="M256,34.1C133.5,34.1,34.1,133.5,34.1,256S133.5,477.9,256,477.9S477.9,378.5,477.9,256
			C477.7,133.5,378.5,34.3,256,34.1z M256,460.8c-113.1,0-204.8-91.7-204.8-204.8S142.9,51.2,256,51.2S460.8,142.9,460.8,256
			C460.7,369.1,369.1,460.7,256,460.8z"/>
		<path id="Shape_2_" class="st0" d="M256,179.2c28.3,0,51.2-22.9,51.2-51.2S284.3,76.8,256,76.8c-28.3,0-51.2,22.9-51.2,51.2
			C204.8,156.3,227.7,179.2,256,179.2z M256,93.9c18.9,0,34.1,15.3,34.1,34.1c0,18.9-15.3,34.1-34.1,34.1
			c-18.9,0-34.1-15.3-34.1-34.1C221.9,109.1,237.1,93.9,256,93.9z"/>
		<path id="Shape_3_" class="st0" d="M374.8,187.8h-0.1l-89.6,8c-3.1,0.3-6.1,0.4-9.2,0.4h-39.9c-3.1,0-6.1-0.1-9.2-0.4l-89.8-8.1
			c-14.1-1.1-26.4,9.4-27.5,23.5c-1.1,14.1,9.4,26.4,23.5,27.5l72.4,6.6c4.4,0.4,7.8,4.1,7.8,8.5v19.6c0,4.3-0.8,8.5-2.4,12.5
			l-41.1,104.6c-5.7,12.9,0.1,28.1,13.1,33.8c12.9,5.7,28.1-0.1,33.8-13.1l39.1-95.7l39.5,95.9c5.9,12.6,20.8,18.2,33.5,12.6
			s18.7-20.4,13.3-33.2L301,286c-1.6-4-2.4-8.2-2.4-12.5v-19.6c0-4.4,3.4-8.1,7.8-8.5l72.3-6.6c14.1-1.1,24.7-13.4,23.6-27.5
			C401.2,197.3,388.9,186.7,374.8,187.8L374.8,187.8z M377.3,221.9l-72.4,6.6c-13.2,1.1-23.3,12.2-23.3,25.5v19.6
			c0,6.4,1.2,12.8,3.5,18.7l41.4,105.3c2,4.3,0.2,9.3-4.1,11.4c-4.3,2-9.3,0.2-11.4-4.1l-39.4-95.7c-2.6-6.3-8.8-10.5-15.6-10.5
			c-6.9,0-13,4.1-15.6,10.5l-39.3,95.4c-1.2,2.9-3.9,4.9-7.1,5.2c-3.1,0.3-6.2-1.2-7.9-3.8c-1.7-2.6-1.9-6-0.4-8.8l41.2-105
			c2.3-6,3.5-12.3,3.5-18.7v-19.6c0.1-13.3-10.1-24.4-23.3-25.5l-72.5-6.5c-4.7-0.3-8.3-4.4-7.9-9.1c0.3-4.7,4.4-8.3,9.1-7.9l89.6,8
			c3.5,0.3,7.1,0.5,10.7,0.5h39.9c3.6,0,7.1-0.2,10.7-0.5l89.6-8c2.3-0.2,4.5,0.6,6.2,2c1.7,1.5,2.8,3.6,2.9,5.8
			c0.2,2.3-0.6,4.5-2.1,6.3C381.7,220.7,379.6,221.7,377.3,221.9z"/>
	</g>
</g>
</svg>
