<?xml version="1.0" encoding="utf-8"?>
<!-- Generator: Adobe Illustrator 24.3.0, SVG Export Plug-In . SVG Version: 6.00 Build 0)  -->
<svg version="1.1" id="Layer_1" xmlns="http://www.w3.org/2000/svg" xmlns:xlink="http://www.w3.org/1999/xlink" x="0px" y="0px"
	 viewBox="0 0 512 512" style="enable-background:new 0 0 512 512;" xml:space="preserve">
<style type="text/css">
	.st0{fill:#FFFFFF;}
</style>
<g id="Page-1">
	<g id="_x30_27---Timesheet">
		<path id="Shape" class="st0" d="M290.1,349.9c0-70.7-57.3-128-128-128s-128,57.3-128,128s57.3,128,128,128
			C232.7,477.6,289.9,420.5,290.1,349.9z M224.8,441.3l-4.1-7c-1.5-2.7-4.3-4.3-7.4-4.3c-3.1,0-5.9,1.6-7.4,4.3
			c-1.5,2.7-1.5,5.9,0,8.6l4,7c-12.3,5.9-25.7,9.5-39.3,10.6v-8.1c0-4.7-3.8-8.5-8.5-8.5c-4.7,0-8.5,3.8-8.5,8.5v8.1
			c-13.6-1-27-4.6-39.3-10.6l4-7c2.3-4.1,0.9-9.3-3.2-11.6s-9.3-1-11.6,3.1l-4.1,7c-11.3-7.8-21-17.5-28.8-28.8l7-4.1
			c2.7-1.5,4.3-4.3,4.3-7.4c0-3.1-1.6-5.9-4.3-7.4c-2.7-1.5-5.9-1.5-8.6,0l-7,4c-5.9-12.3-9.5-25.7-10.6-39.3h8.1
			c4.7,0,8.5-3.8,8.5-8.5c0-4.7-3.8-8.5-8.5-8.5h-8.1c1-13.6,4.6-27,10.6-39.3l7,4c2.6,1.5,5.9,1.6,8.6,0c2.7-1.5,4.3-4.4,4.3-7.4
			c0-3.1-1.7-5.9-4.3-7.4l-7-4.1c7.8-11.3,17.5-21,28.8-28.8l4.1,7c1.5,2.7,4.3,4.3,7.4,4.3c3.1,0,5.9-1.6,7.4-4.3
			c1.5-2.7,1.5-5.9,0-8.6l-4-7c12.3-5.9,25.7-9.5,39.3-10.6v8.1c0,4.7,3.8,8.5,8.5,8.5c4.7,0,8.5-3.8,8.5-8.5v-8.1
			c13.6,1,27,4.6,39.3,10.6l-4,7c-1.5,2.6-1.6,5.9,0,8.6c1.5,2.7,4.4,4.3,7.4,4.3c3.1,0,5.9-1.7,7.4-4.3l4.1-7
			c11.3,7.8,21,17.5,28.8,28.8l-7,4.1c-2.7,1.5-4.3,4.3-4.3,7.4c0,3.1,1.6,5.9,4.3,7.4s5.9,1.5,8.6,0l7-4
			c5.9,12.3,9.5,25.7,10.6,39.3h-8.1c-4.7,0-8.5,3.8-8.5,8.5c0,4.7,3.8,8.5,8.5,8.5h8.1c-1,13.6-4.6,27-10.6,39.3l-7-4
			c-2.6-1.5-5.9-1.6-8.6,0c-2.7,1.5-4.3,4.4-4.3,7.4c0,3.1,1.7,5.9,4.3,7.4l7,4.1C245.8,423.8,236.1,433.6,224.8,441.3L224.8,441.3z
			"/>
		<path id="Shape_1_" class="st0" d="M185.2,360.8c3.2-6.5,3.4-14.1,0.6-20.7c-2.8-6.7-8.3-11.9-15.1-14.2v-44.2
			c0-4.7-3.8-8.5-8.5-8.5s-8.5,3.8-8.5,8.5v44.2c-8.9,3.2-15.3,11-16.7,20.3s2.5,18.6,10,24.2s17.6,6.6,26.1,2.6l25.7,25.7
			c3.3,3.2,8.7,3.2,12-0.1c3.3-3.3,3.3-8.6,0.1-12L185.2,360.8z M153.6,349.9c0-4.7,3.8-8.5,8.5-8.5c4.7,0,8.5,3.8,8.5,8.5
			c0,4.7-3.8,8.5-8.5,8.5C157.4,358.4,153.6,354.6,153.6,349.9z"/>
		<path id="Shape_2_" class="st0" d="M486.4,0H179.2c-14.1,0-25.6,11.5-25.6,25.6v162.6C67.6,192.7,0.1,263.7,0,349.9
			c0,134.8,155.4,210.2,261.3,128h225.1c14.1,0,25.6-11.5,25.6-25.6V25.6C512,11.5,500.5,0,486.4,0z M17.1,349.9
			c0-80.1,64.9-145.1,145.1-145.1s145.1,64.9,145.1,145.1s-64.9,145.1-145.1,145.1C82.1,494.8,17.2,429.9,17.1,349.9z M494.9,452.3
			c0,4.7-3.8,8.5-8.5,8.5H280c94.3-100.1,28.5-265.4-109.4-272.6V25.6c0-4.7,3.8-8.5,8.5-8.5h307.2c4.7,0,8.5,3.8,8.5,8.5V452.3z"/>
		<path id="Shape_3_" class="st0" d="M452.3,221.9h-25.6c-9.4,0-17.1,7.6-17.1,17.1v25.6c0,9.4,7.6,17.1,17.1,17.1h25.6
			c9.4,0,17.1-7.6,17.1-17.1v-25.6C469.3,229.5,461.7,221.9,452.3,221.9z M426.7,264.5v-25.6h25.6v25.6H426.7z"/>
		<path id="Shape_4_" class="st0" d="M452.3,298.7h-25.6c-9.4,0-17.1,7.6-17.1,17.1v25.6c0,9.4,7.6,17.1,17.1,17.1h25.6
			c9.4,0,17.1-7.6,17.1-17.1v-25.6C469.3,306.3,461.7,298.7,452.3,298.7z M426.7,341.3v-25.6h25.6v25.6H426.7z"/>
		<path id="Shape_5_" class="st0" d="M452.3,375.5h-25.6c-9.4,0-17.1,7.6-17.1,17.1v25.6c0,9.4,7.6,17.1,17.1,17.1h25.6
			c9.4,0,17.1-7.6,17.1-17.1v-25.6C469.3,383.1,461.7,375.5,452.3,375.5z M426.7,418.1v-25.6h25.6v25.6H426.7z"/>
		<path id="Shape_6_" class="st0" d="M384,221.9h-68.3c-4.7,0-8.5,3.8-8.5,8.5s3.8,8.5,8.5,8.5H384c4.7,0,8.5-3.8,8.5-8.5
			S388.7,221.9,384,221.9z"/>
		<path id="Shape_7_" class="st0" d="M384,256h-34.1c-4.7,0-8.5,3.8-8.5,8.5s3.8,8.5,8.5,8.5H384c4.7,0,8.5-3.8,8.5-8.5
			S388.7,256,384,256z"/>
		<path id="Shape_8_" class="st0" d="M384,418.1h-51.2c-4.7,0-8.5,3.8-8.5,8.5s3.8,8.5,8.5,8.5H384c4.7,0,8.5-3.8,8.5-8.5
			S388.7,418.1,384,418.1z"/>
		<path id="Shape_9_" class="st0" d="M384,384h-34.1c-4.7,0-8.5,3.8-8.5,8.5s3.8,8.5,8.5,8.5H384c4.7,0,8.5-3.8,8.5-8.5
			S388.7,384,384,384z"/>
		<path id="Shape_10_" class="st0" d="M384,298.7h-25.6c-4.7,0-8.5,3.8-8.5,8.5s3.8,8.5,8.5,8.5H384c4.7,0,8.5-3.8,8.5-8.5
			S388.7,298.7,384,298.7z"/>
		<path id="Shape_11_" class="st0" d="M384,332.8h-25.6c-4.7,0-8.5,3.8-8.5,8.5s3.8,8.5,8.5,8.5H384c4.7,0,8.5-3.8,8.5-8.5
			S388.7,332.8,384,332.8z"/>
		<path id="Shape_12_" class="st0" d="M460.8,162.1h-8.5V59.7c0-9.4-7.6-17.1-17.1-17.1h-34.1c-9.4,0-17.1,7.6-17.1,17.1v102.4
			h-17.1V93.9c0-9.4-7.6-17.1-17.1-17.1h-34.1c-9.4,0-17.1,7.6-17.1,17.1v68.3h-17.1v-42.7c0-9.4-7.6-17.1-17.1-17.1h-34.1
			c-9.4,0-17.1,7.6-17.1,17.1v42.7h-8.5c-4.7,0-8.5,3.8-8.5,8.5c0,4.7,3.8,8.5,8.5,8.5h256c4.7,0,8.5-3.8,8.5-8.5
			C469.3,166,465.5,162.1,460.8,162.1z M230.4,162.1v-42.7h34.1v42.7H230.4z M315.7,162.1V93.9h34.1v68.3H315.7z M401.1,162.1V59.7
			h34.1v102.4H401.1z"/>
	</g>
</g>
</svg>
