<?xml version="1.0" encoding="utf-8"?>
<!-- Generator: Adobe Illustrator 24.3.0, SVG Export Plug-In . SVG Version: 6.00 Build 0)  -->
<svg version="1.1" id="Capa_1" xmlns="http://www.w3.org/2000/svg" xmlns:xlink="http://www.w3.org/1999/xlink" x="0px" y="0px"
	 viewBox="0 0 512 512" style="enable-background:new 0 0 512 512;" xml:space="preserve">
<style type="text/css">
	.st0{fill:#FFFFFF;}
</style>
<g>
	<g>
		<g>
			<path class="st0" d="M512,264.5v-34.1c0-23.6-19.1-42.6-42.7-42.7h-77c-2-46.5-20.5-90.7-52.2-124.8c-0.2-0.3-0.4-0.6-0.6-0.9
				c-0.2-0.1-0.4-0.2-0.5-0.3C301.9,22.3,250.3,0,196.3,0S90.6,22.3,53.6,61.7c-0.2,0.1-0.4,0.2-0.5,0.3c-0.2,0.3-0.5,0.6-0.6,0.9
				c-70,75.3-69.9,191.9,0.2,267.2c0.1,0.1,0.3,0.3,0.4,0.4c32.9,35.1,77.5,56.8,125.4,60.9c2.6,3.7,5.8,6.9,9.5,9.6
				c-10.9,8-17.3,20.7-17.3,34.1v34.1c0,23.6,19.1,42.6,42.7,42.7h256c23.6,0,42.6-19.1,42.7-42.7v-34.1c0-13.5-6.5-26.1-17.3-34.1
				c10.9-8,17.3-20.7,17.3-34.1v-34.1c0-13.5-6.5-26.1-17.3-34.1C505.5,290.7,512,278,512,264.5z M375,187.7h-68
				c-0.5-26.5-4.2-52.9-11-78.6c13.5-7.9,25.9-17.4,37.1-28.3C358.5,110.9,373.2,148.5,375,187.7z M321.6,68.4
				c-9.3,9.1-19.6,17.2-30.7,24c-7.8-24.6-21-47.2-38.5-66.2C278.4,34.8,302,49.2,321.6,68.4z M204.8,17.9
				c29.2,5.3,55,37.5,70.4,83.2c-22,10.8-45.9,17-70.4,18.2L204.8,17.9L204.8,17.9z M204.8,136.3c26.1-1.2,51.7-7.5,75.3-18.7
				c5.9,22.9,9.2,46.5,9.8,70.1h-85.1V136.3z M187.7,17.9v101.3c-24.5-1.2-48.4-7.4-70.4-18.2C132.7,55.5,158.5,23.2,187.7,17.9z
				 M102.6,187.7c0.5-23.7,3.8-47.2,9.8-70.1c23.6,11.2,49.2,17.5,75.3,18.7v51.4L102.6,187.7L102.6,187.7z M179.4,204.8
				c-5.6,7.3-8.7,16.3-8.8,25.6v27.3c-20.3,2.6-40,8.4-58.4,17.2c-5.8-22.9-9.1-46.5-9.6-70.1H179.4z M140.1,26.2
				c-17.5,19-30.6,41.6-38.5,66.2c-11.1-6.9-21.4-14.9-30.7-24C90.5,49.2,114.2,34.8,140.1,26.2z M59.3,80.9
				c11.2,10.9,23.7,20.4,37.1,28.3c-6.8,25.6-10.5,52-11,78.6h-68C19.3,148.5,34,110.9,59.3,80.9z M17.5,204.8h68.2
				c0.5,26.5,4.3,52.8,11.2,78.4c-13.6,7.9-26.1,17.5-37.4,28.5C34,281.7,19.3,244.1,17.5,204.8z M71,324.2
				c9.3-9.2,19.7-17.3,30.8-24.1c8,24.7,21.3,47.4,39,66.4C114.6,358,90.7,343.5,71,324.2z M170.7,332.8v34.1c0,0.5,0.1,1,0.2,1.6
				c-21.9-12-41.2-39.4-53.8-76.7c17.3-8.6,35.9-14.3,55-16.9c2.4,9.4,7.9,17.7,15.7,23.5v0.4C177,306.9,170.7,319.4,170.7,332.8z
				 M494.9,435.2v34.1c0,14.1-11.5,25.6-25.6,25.6h-256c-14.1,0-25.6-11.5-25.6-25.6v-34.1c0-14.1,11.5-25.6,25.6-25.6h256
				C483.5,409.6,494.9,421.1,494.9,435.2z M494.9,332.8v34.1c0,14.1-11.5,25.6-25.6,25.6h-256c-14.1,0-25.6-11.5-25.6-25.6v-34.1
				c0-14.1,11.5-25.6,25.6-25.6h256C483.5,307.2,494.9,318.7,494.9,332.8z M494.9,264.5c0,14.1-11.5,25.6-25.6,25.6h-256
				c-14.1,0-25.6-11.5-25.6-25.6v-34.1c0-14.1,11.5-25.6,25.6-25.6h256c14.1,0,25.6,11.5,25.6,25.6V264.5z"/>
			<path class="st0" d="M443.7,238.9h-17.1c-4.7,0-8.5,3.8-8.5,8.5s3.8,8.5,8.5,8.5h17.1c4.7,0,8.5-3.8,8.5-8.5
				S448.4,238.9,443.7,238.9z"/>
			<path class="st0" d="M392.5,238.9h-17.1c-4.7,0-8.5,3.8-8.5,8.5s3.8,8.5,8.5,8.5h17.1c4.7,0,8.5-3.8,8.5-8.5
				S397.2,238.9,392.5,238.9z"/>
			<path class="st0" d="M247.5,221.9c-14.1,0-25.6,11.5-25.6,25.6c0,14.1,11.5,25.6,25.6,25.6c14.1,0,25.6-11.5,25.6-25.6
				S261.6,221.9,247.5,221.9z M247.5,256c-4.7,0-8.5-3.8-8.5-8.5s3.8-8.5,8.5-8.5s8.5,3.8,8.5,8.5S252.2,256,247.5,256z"/>
			<path class="st0" d="M443.7,341.3h-17.1c-4.7,0-8.5,3.8-8.5,8.5s3.8,8.5,8.5,8.5h17.1c4.7,0,8.5-3.8,8.5-8.5
				S448.4,341.3,443.7,341.3z"/>
			<path class="st0" d="M392.5,341.3h-17.1c-4.7,0-8.5,3.8-8.5,8.5s3.8,8.5,8.5,8.5h17.1c4.7,0,8.5-3.8,8.5-8.5
				S397.2,341.3,392.5,341.3z"/>
			<path class="st0" d="M247.5,324.3c-14.1,0-25.6,11.5-25.6,25.6s11.5,25.6,25.6,25.6c14.1,0,25.6-11.5,25.6-25.6
				S261.6,324.3,247.5,324.3z M247.5,358.4c-4.7,0-8.5-3.8-8.5-8.5s3.8-8.5,8.5-8.5s8.5,3.8,8.5,8.5S252.2,358.4,247.5,358.4z"/>
			<path class="st0" d="M443.7,443.7h-17.1c-4.7,0-8.5,3.8-8.5,8.5c0,4.7,3.8,8.5,8.5,8.5h17.1c4.7,0,8.5-3.8,8.5-8.5
				C452.3,447.6,448.4,443.7,443.7,443.7z"/>
			<path class="st0" d="M392.5,443.7h-17.1c-4.7,0-8.5,3.8-8.5,8.5c0,4.7,3.8,8.5,8.5,8.5h17.1c4.7,0,8.5-3.8,8.5-8.5
				C401.1,447.6,397.2,443.7,392.5,443.7z"/>
			<path class="st0" d="M247.5,426.7c-14.1,0-25.6,11.5-25.6,25.6s11.5,25.6,25.6,25.6c14.1,0,25.6-11.5,25.6-25.6
				C273.1,438.1,261.6,426.7,247.5,426.7z M247.5,460.8c-4.7,0-8.5-3.8-8.5-8.5c0-4.7,3.8-8.5,8.5-8.5s8.5,3.8,8.5,8.5
				C256,457,252.2,460.8,247.5,460.8z"/>
		</g>
	</g>
</g>
</svg>
