<?xml version="1.0" encoding="utf-8"?>
<!-- Generator: Adobe Illustrator 24.3.0, SVG Export Plug-In . SVG Version: 6.00 Build 0)  -->
<svg version="1.1" id="Layer_1" xmlns="http://www.w3.org/2000/svg" xmlns:xlink="http://www.w3.org/1999/xlink" x="0px" y="0px"
	 viewBox="0 0 512 512" style="enable-background:new 0 0 512 512;" xml:space="preserve">
<style type="text/css">
	.st0{fill:#FFFFFF;}
</style>
<g id="Page-1">
	<g id="_x30_73---SEO-Rankings">
		<path id="Shape" class="st0" d="M477.9,0H34.1C15.3,0,0,15.3,0,34.1v443.7C0,496.7,15.3,512,34.1,512h443.7
			c18.9,0,34.1-15.3,34.1-34.1V34.1C512,15.3,496.7,0,477.9,0z M34.1,17.1h443.7c9.4,0,17.1,7.6,17.1,17.1v68.3H17.1V34.1
			C17.1,24.7,24.7,17.1,34.1,17.1z M477.9,494.9H34.1c-9.4,0-17.1-7.6-17.1-17.1V119.5h477.9v358.4
			C494.9,487.3,487.3,494.9,477.9,494.9z"/>
		<path id="Shape_1_" class="st0" d="M59.7,85.3c14.1,0,25.6-11.5,25.6-25.6S73.9,34.1,59.7,34.1S34.1,45.6,34.1,59.7
			S45.6,85.3,59.7,85.3z M59.7,51.2c4.7,0,8.5,3.8,8.5,8.5s-3.8,8.5-8.5,8.5s-8.5-3.8-8.5-8.5S55,51.2,59.7,51.2z"/>
		<path id="Shape_2_" class="st0" d="M128,85.3c14.1,0,25.6-11.5,25.6-25.6S142.1,34.1,128,34.1c-14.1,0-25.6,11.5-25.6,25.6
			S113.9,85.3,128,85.3z M128,51.2c4.7,0,8.5,3.8,8.5,8.5s-3.8,8.5-8.5,8.5c-4.7,0-8.5-3.8-8.5-8.5S123.3,51.2,128,51.2z"/>
		<path id="Shape_3_" class="st0" d="M196.3,85.3c14.1,0,25.6-11.5,25.6-25.6s-11.5-25.6-25.6-25.6s-25.6,11.5-25.6,25.6
			S182.1,85.3,196.3,85.3z M196.3,51.2c4.7,0,8.5,3.8,8.5,8.5s-3.8,8.5-8.5,8.5s-8.5-3.8-8.5-8.5S191.6,51.2,196.3,51.2z"/>
		<path id="Shape_4_" class="st0" d="M366.9,85.3h85.3c14.1,0,25.6-11.5,25.6-25.6s-11.5-25.6-25.6-25.6h-85.3
			c-14.1,0-25.6,11.5-25.6,25.6S352.8,85.3,366.9,85.3z M366.9,51.2h85.3c4.7,0,8.5,3.8,8.5,8.5s-3.8,8.5-8.5,8.5h-85.3
			c-4.7,0-8.5-3.8-8.5-8.5S362.2,51.2,366.9,51.2z"/>
		<path id="Shape_5_" class="st0" d="M187.7,392.5c-4.1,0-7.7-3-8.4-7.1s1.6-8.1,5.5-9.5c3.9-1.4,8.2,0.2,10.3,3.8
			c2.4,3.9,7.5,5.2,11.5,2.9c4-2.3,5.4-7.4,3.2-11.4c-6.2-10.8-19.3-15.5-30.9-11.3c-11.7,4.2-18.6,16.3-16.5,28.5
			s12.8,21.2,25.2,21.2c4.1,0,7.7,3,8.4,7.1s-1.6,8.1-5.5,9.5s-8.2-0.2-10.3-3.8c-2.4-3.9-7.5-5.2-11.5-2.9c-4,2.3-5.4,7.4-3.2,11.4
			c6.2,10.8,19.3,15.5,30.9,11.3c11.7-4.2,18.6-16.3,16.5-28.5C210.8,401.5,200.2,392.5,187.7,392.5z"/>
		<path id="Shape_6_" class="st0" d="M273.1,375.5c4.7,0,8.5-3.8,8.5-8.5s-3.8-8.5-8.5-8.5h-25.6c-9.4,0-17.1,7.6-17.1,17.1v51.2
			c0,9.4,7.6,17.1,17.1,17.1h25.6c4.7,0,8.5-3.8,8.5-8.5s-3.8-8.5-8.5-8.5h-25.6v-17.1h8.5c4.7,0,8.5-3.8,8.5-8.5s-3.8-8.5-8.5-8.5
			h-8.5v-17.1H273.1z"/>
		<path id="Shape_7_" class="st0" d="M324.3,358.4c-14.1,0-25.6,11.5-25.6,25.6v34.1c0,14.1,11.5,25.6,25.6,25.6
			c14.1,0,25.6-11.5,25.6-25.6V384C349.9,369.9,338.4,358.4,324.3,358.4z M332.8,418.1c0,4.7-3.8,8.5-8.5,8.5s-8.5-3.8-8.5-8.5V384
			c0-4.7,3.8-8.5,8.5-8.5s8.5,3.8,8.5,8.5V418.1z"/>
		<path id="Shape_8_" class="st0" d="M435.2,324.3V187.7c0-9.4-7.6-17.1-17.1-17.1h-68.3c-9.4,0-17.1,7.6-17.1,17.1v136.5h-25.6
			V162.1c0-9.4-7.6-17.1-17.1-17.1h-68.3c-9.4,0-17.1,7.6-17.1,17.1v162.1h-25.6V204.8c0-9.4-7.6-17.1-17.1-17.1H93.9
			c-9.4,0-17.1,7.6-17.1,17.1v119.5c-23.6,0-42.6,19.1-42.7,42.7v68.3c0,23.6,19.1,42.6,42.7,42.7h358.4c23.6,0,42.6-19.1,42.7-42.7
			v-68.3C477.8,343.4,458.8,324.3,435.2,324.3z M349.9,187.7h68.3v136.5h-68.3V187.7z M221.9,162.1h68.3v162.1h-68.3V162.1z
			 M93.9,204.8h68.3v119.5H93.9V204.8z M460.8,435.2c0,14.1-11.5,25.6-25.6,25.6H76.8c-14.1,0-25.6-11.5-25.6-25.6v-68.3
			c0-14.1,11.5-25.6,25.6-25.6h358.4c14.1,0,25.6,11.5,25.6,25.6V435.2z"/>
		<path id="Shape_9_" class="st0" d="M119.5,221.9c-4.7,0-8.5,3.8-8.5,8.5v51.2c0,4.7,3.8,8.5,8.5,8.5c4.7,0,8.5-3.8,8.5-8.5v-51.2
			C128,225.7,124.2,221.9,119.5,221.9z"/>
		<path id="Shape_10_" class="st0" d="M247.5,179.2c-4.7,0-8.5,3.8-8.5,8.5v51.2c0,4.7,3.8,8.5,8.5,8.5c4.7,0,8.5-3.8,8.5-8.5v-51.2
			C256,183,252.2,179.2,247.5,179.2z"/>
		<path id="Shape_11_" class="st0" d="M375.5,204.8c-4.7,0-8.5,3.8-8.5,8.5v51.2c0,4.7,3.8,8.5,8.5,8.5c4.7,0,8.5-3.8,8.5-8.5v-51.2
			C384,208.6,380.2,204.8,375.5,204.8z"/>
	</g>
</g>
</svg>
