<?xml version="1.0" encoding="UTF-8"?><svg id="a" xmlns="http://www.w3.org/2000/svg" viewBox="0 0 480 480"><defs><style>.c{fill:#fff;}</style></defs><g id="b"><path class="c" d="M368,128h56c4.42,0,8-3.58,8-8s-3.58-8-8-8h-56c-4.42,0-8,3.58-8,8s3.58,8,8,8Z"/><path class="c" d="M328,160h96c4.42,0,8-3.58,8-8s-3.58-8-8-8h-96c-4.42,0-8,3.58-8,8s3.58,8,8,8Z"/><path class="c" d="M328,192h96c4.42,0,8-3.58,8-8s-3.58-8-8-8h-96c-4.42,0-8,3.58-8,8s3.58,8,8,8Z"/><path class="c" d="M328,224h96c4.42,0,8-3.58,8-8s-3.58-8-8-8h-96c-4.42,0-8,3.58-8,8s3.58,8,8,8Z"/><path class="c" d="M328,256h96c4.42,0,8-3.58,8-8s-3.58-8-8-8h-96c-4.42,0-8,3.58-8,8s3.58,8,8,8Z"/><path class="c" d="M328,288h56c4.42,0,8-3.58,8-8s-3.58-8-8-8h-56c-4.42,0-8,3.58-8,8s3.58,8,8,8Z"/><path class="c" d="M456,0H24C10.76,.04,.04,10.76,0,24V456c.04,13.24,10.76,23.96,24,24H456c13.24-.04,23.96-10.76,24-24V24c-.04-13.24-10.76-23.96-24-24Zm8,456c0,4.42-3.58,8-8,8H24c-4.42,0-8-3.58-8-8V80H464V456Zm0-392H16V24c0-4.42,3.58-8,8-8H456c4.42,0,8,3.58,8,8v40Z"/><path class="c" d="M48,32h-8c-4.42,0-8,3.58-8,8s3.58,8,8,8h8c4.42,0,8-3.58,8-8s-3.58-8-8-8Z"/><path class="c" d="M88,32h-8c-4.42,0-8,3.58-8,8s3.58,8,8,8h8c4.42,0,8-3.58,8-8s-3.58-8-8-8Z"/><path class="c" d="M128,32h-8c-4.42,0-8,3.58-8,8s3.58,8,8,8h8c4.42,0,8-3.58,8-8s-3.58-8-8-8Z"/><path class="c" d="M440,32h-8c-4.42,0-8,3.58-8,8s3.58,8,8,8h8c4.42,0,8-3.58,8-8s-3.58-8-8-8Z"/><path class="c" d="M328,128h8c4.42,0,8-3.58,8-8s-3.58-8-8-8h-8c-4.42,0-8,3.58-8,8s3.58,8,8,8Z"/><path class="c" d="M424,272h-8c-4.42,0-8,3.58-8,8s3.58,8,8,8h8c4.42,0,8-3.58,8-8s-3.58-8-8-8Z"/><path class="c" d="M400,32H208c-4.42,0-8,3.58-8,8s3.58,8,8,8h192c4.42,0,8-3.58,8-8s-3.58-8-8-8Z"/><path class="c" d="M56,288h232c4.42,0,8-3.58,8-8V120c0-4.42-3.58-8-8-8H56c-4.42,0-8,3.58-8,8v160c0,4.42,3.58,8,8,8Zm105.74-46.9l.1-.15,46.16-73.86,65.6,104.9H142.4l19.34-30.9Zm-38.18,30.9h-52.62l49.06-73.6,25.6,38.4-22.03,35.2Zm156.43-144v124.11l-65.22-104.35c-2.64-3.76-7.82-4.66-11.58-2.02-.78,.55-1.47,1.24-2.02,2.02l-46.32,74.13-28.24-42.33c-2.75-3.68-7.96-4.43-11.63-1.68-.64,.48-1.2,1.04-1.68,1.68l-49.31,74.04v-125.6h216Z"/><path class="c" d="M288,432h-96c-4.42,0-8-3.58-8-8v-96c0-4.42,3.58-8,8-8h96c4.42,0,8,3.58,8,8v96c0,4.42-3.58,8-8,8Zm-88-16h80v-80h-80v80Z"/><path class="c" d="M424,432h-96c-4.42,0-8-3.58-8-8v-96c0-4.42,3.58-8,8-8h96c4.42,0,8,3.58,8,8v96c0,4.42-3.58,8-8,8Zm-88-16h80v-80h-80v80Z"/><path class="c" d="M152,432H56c-4.42,0-8-3.58-8-8v-96c0-4.42,3.58-8,8-8h96c4.42,0,8,3.58,8,8v96c0,4.42-3.58,8-8,8Zm-88-16h80v-80H64v80Z"/></g></svg>