<?xml version="1.0" encoding="utf-8"?>
<!-- Generator: Adobe Illustrator 24.3.0, SVG Export Plug-In . SVG Version: 6.00 Build 0)  -->
<svg version="1.1" id="Layer_1" xmlns="http://www.w3.org/2000/svg" xmlns:xlink="http://www.w3.org/1999/xlink" x="0px" y="0px"
	 viewBox="0 0 512 512" style="enable-background:new 0 0 512 512;" xml:space="preserve">
<style type="text/css">
	.st0{fill:#FFFFFF;}
</style>
<g id="Page-1">
	<g id="_x30_21---Designer" transform="translate(0 -1)">
		<path id="Shape" class="st0" d="M34.1,478.9c0,18.9,15.3,34.1,34.1,34.1h375.5c18.9,0,34.1-15.3,34.1-34.1v-25.6
			c-0.1-1.8-0.7-3.5-1.6-5l-41.1-57.5V214.3c0-14.1-11.5-25.6-25.6-25.6h-16.1c1.2-3.4,2.3-6.7,3.4-10.1
			c21.6-12.2,37.4-32.6,43.9-56.5c12.5-48.4-16.9-97.9-18.1-100c-1.9-3.1-5.6-4.7-9.2-3.9c-3.6,0.8-6.2,3.8-6.6,7.5
			c-1.7,17-11.4,32-54.4,54.1c-12.7,5.8-22.5,16.4-27.3,29.4c-4.8,13.1-4.2,27.5,1.6,40.1c-6.5,11.4-12.5,22.7-17.8,33.6
			c-3.7,7.6-7,15.2-10.2,22.8l0.1-102.4c-0.2-1.2-0.4-2.3-0.8-3.4l-23-84.5C272.7,6.9,265,1,256.1,1c-8.9,0-16.7,6-19,14.5
			l-23.4,85.6c-0.2,0.7-0.3,1.5-0.3,2.3v75.9L171.8,79c-3.7-8.6-13.6-12.6-22.3-9.1l-71,29.3c-8.7,3.6-12.8,13.6-9.2,22.3l28,67.6
			c-12,2.4-20.6,12.9-20.6,25.1v176.5l-41.1,57.5c-0.9,1.5-1.5,3.2-1.6,5L34.1,478.9z M460.8,478.9c0,9.4-7.6,17.1-17.1,17.1H68.3
			c-9.4,0-17.1-7.6-17.1-17.1v-17.1h124.5l14.6,14.6c1.6,1.6,3.8,2.5,6,2.5h119.5c2.3,0,4.4-0.9,6-2.5l14.6-14.6h124.5V478.9z
			 M256,461.8h-56.2L189,451l4.9-14.8h124.2L323,451l-10.8,10.8H256z M339.9,160.7l13.4,6c8.6,3.9,17.3,7.8,25.8,11.6
			c-1.8,5.3-3.7,10.6-5.8,15.9c-0.9,2.3-1.9,4.6-2.8,6.9c-13.8-4-27-9.7-39.4-16.8c-1-0.5-1.9-1-2.8-1.5
			C331.9,175.5,335.7,168.2,339.9,160.7L339.9,160.7z M360.2,95c30-15.4,47.7-29.3,56.7-45.2c9.3,21.4,11.9,45.2,7.3,68.1
			c-5.4,19.4-18.3,35.9-35.7,45.9c-9.4-4.2-18.9-8.4-28.2-12.6l-17.6-7.9c-4.3-8.7-4.9-18.8-1.5-27.9
			C344.5,106.3,351.4,98.9,360.2,95L360.2,95z M320.8,198.1c0.7,0.4,1.4,0.7,2.2,1.1c12.9,7.3,26.5,13.3,40.7,17.6
			c-12,25.6-25.7,50.4-41,74.2h-24v-34.4C304.5,236.7,311.9,217.1,320.8,198.1L320.8,198.1z M264.5,291.1v-85.3
			c0-4.7-3.8-8.5-8.5-8.5s-8.5,3.8-8.5,8.5v85.3h-17.1V129c5,3.9,10.9,6.5,17.1,7.7v26.5c0,4.7,3.8,8.5,8.5,8.5s8.5-3.8,8.5-8.5
			v-26.5c6.3-1.2,12.1-3.8,17.2-7.7l-0.1,126.6c0,0.1,0,0.2,0,0.3v0.2l0,35.1H264.5z M281.2,102.9c-4.2,10.3-14,17.2-25.1,17.6
			c-11.1-0.4-20.9-7.3-25.1-17.6l7.9-29.1c10.8,5.4,23.6,5.4,34.4,0L281.2,102.9z M258.6,20l10.1,37.1c-3.9,2.2-8.2,3.4-12.7,3.6
			c-4.4-0.2-8.8-1.5-12.7-3.6L253.5,20c0.4-1,1.4-1.7,2.5-1.7C257.2,18.3,258.2,19,258.6,20z M156.2,85.7l6.5,15.8l-31.6,13.1
			c-2.9,1.1-5,3.7-5.4,6.8c-0.4,3.1,0.8,6.1,3.3,8c2.5,1.9,5.8,2.2,8.6,1l31.6-13.1l6.5,15.8l-15.8,6.5c-3.8,1.6-5.9,5.6-5.1,9.6
			c0.8,4,4.3,6.9,8.4,6.9c1.1,0,2.2-0.2,3.3-0.6l15.8-6.5l6.5,15.8l-31.6,13.1c-3.8,1.6-5.9,5.6-5.1,9.6c0.8,4,4.3,6.9,8.4,6.9
			c1.1,0,2.2-0.2,3.3-0.6l31.6-13.1l9.9,23.9l8.1,18.4v68.6h-55.2L85.1,115L156.2,85.7z M93.9,214.3c0-4.7,3.8-8.5,8.5-8.5h1.9
			l35.4,85.3h-3.1c-4.7,0-8.5,3.8-8.5,8.5s3.8,8.5,8.5,8.5h238.9c4.7,0,8.5-3.8,8.5-8.5s-3.8-8.5-8.5-8.5h-32.7
			c17.1-27.2,31.9-55.7,44.2-85.3h22.7c4.7,0,8.5,3.8,8.5,8.5V385H93.9L93.9,214.3z M89.7,402.1h332.5l30.5,42.7H339l-6.6-19.8
			c-1.2-3.5-4.4-5.8-8.1-5.8H187.7c-3.7,0-6.9,2.4-8.1,5.8l-6.6,19.8H59.2L89.7,402.1z"/>
		<path id="Shape_1_" class="st0" d="M383.7,148.1c1.6,0,3.2-0.5,4.5-1.3c15-9.7,25.3-25.4,28.3-43c0.5-4.7-2.9-8.9-7.6-9.3
			c-4.7-0.5-8.9,2.9-9.3,7.6c-2.5,12.4-9.9,23.3-20.5,30.3c-3.2,2-4.7,5.9-3.6,9.6C376.5,145.6,379.9,148.1,383.7,148.1L383.7,148.1
			z"/>
	</g>
</g>
</svg>
