<?xml version="1.0" encoding="utf-8"?>
<!-- Generator: Adobe Illustrator 25.4.1, SVG Export Plug-In . SVG Version: 6.00 Build 0)  -->
<svg version="1.1" id="Capa_1" xmlns="http://www.w3.org/2000/svg" xmlns:xlink="http://www.w3.org/1999/xlink" x="0px" y="0px"
	 viewBox="0 0 512 512" style="enable-background:new 0 0 512 512;" xml:space="preserve">
<style type="text/css">
	.st0{fill:#FFFFFF;}
	.st1{fill-rule:evenodd;clip-rule:evenodd;fill:#FFFFFF;}
</style>
<g>
	<g id="Page-1_2_">
		<g id="_x30_03---Layout">
			<path id="Shape_15_" class="st0" d="M460.8,0H51.2C22.9,0,0,22.9,0,51.2v409.6C0,489.1,22.9,512,51.2,512h409.6
				c28.3,0,51.2-22.9,51.2-51.2V51.2C512,22.9,489.1,0,460.8,0L460.8,0z M51.2,17.1h409.6c18.9,0,34.1,15.3,34.1,34.1v51.2H17.1
				V51.2C17.1,32.3,32.3,17.1,51.2,17.1z M460.8,494.9H51.2c-18.9,0-34.1-15.3-34.1-34.1V119.5h477.9v341.3
				C494.9,479.7,479.7,494.9,460.8,494.9z"/>
			<path id="Shape_14_" class="st0" d="M59.7,85.3c14.1,0,25.6-11.5,25.6-25.6S73.9,34.1,59.7,34.1S34.1,45.6,34.1,59.7
				S45.6,85.3,59.7,85.3z M59.7,51.2c4.7,0,8.5,3.8,8.5,8.5s-3.8,8.5-8.5,8.5s-8.5-3.8-8.5-8.5S55,51.2,59.7,51.2z"/>
			<path id="Shape_13_" class="st0" d="M128,85.3c14.1,0,25.6-11.5,25.6-25.6S142.1,34.1,128,34.1s-25.6,11.5-25.6,25.6
				S113.9,85.3,128,85.3z M128,51.2c4.7,0,8.5,3.8,8.5,8.5s-3.8,8.5-8.5,8.5c-4.7,0-8.5-3.8-8.5-8.5S123.3,51.2,128,51.2z"/>
			<path id="Shape_12_" class="st0" d="M196.3,85.3c14.1,0,25.6-11.5,25.6-25.6s-11.5-25.6-25.6-25.6s-25.6,11.5-25.6,25.6
				S182.1,85.3,196.3,85.3z M196.3,51.2c4.7,0,8.5,3.8,8.5,8.5s-3.8,8.5-8.5,8.5s-8.5-3.8-8.5-8.5S191.6,51.2,196.3,51.2z"/>
			<path id="Shape_11_" class="st0" d="M366.9,85.3h85.3c14.1,0,25.6-11.5,25.6-25.6s-11.5-25.6-25.6-25.6h-85.3
				c-14.1,0-25.6,11.5-25.6,25.6S352.8,85.3,366.9,85.3z M366.9,51.2h85.3c4.7,0,8.5,3.8,8.5,8.5s-3.8,8.5-8.5,8.5h-85.3
				c-4.7,0-8.5-3.8-8.5-8.5S362.2,51.2,366.9,51.2z"/>
			<path id="Shape_10_" class="st0" d="M452.3,145.1H59.7c-14.1,0-25.6,11.5-25.6,25.6V256c0,14.1,11.5,25.6,25.6,25.6h392.5
				c14.1,0,25.6-11.5,25.6-25.6v-85.3C477.9,156.5,466.4,145.1,452.3,145.1L452.3,145.1z M460.8,256c0,4.7-3.8,8.5-8.5,8.5H59.7
				c-4.7,0-8.5-3.8-8.5-8.5v-85.3c0-4.7,3.8-8.5,8.5-8.5h392.5c4.7,0,8.5,3.8,8.5,8.5L460.8,256L460.8,256z"/>
			<path id="Shape_9_" class="st0" d="M145.1,298.7H59.7c-14.1,0-25.6,11.5-25.6,25.6v85.3c0,14.1,11.5,25.6,25.6,25.6h85.3
				c14.1,0,25.6-11.5,25.6-25.6v-85.3C170.7,310.1,159.2,298.7,145.1,298.7L145.1,298.7z M153.6,409.6c0,4.7-3.8,8.5-8.5,8.5H59.7
				c-4.7,0-8.5-3.8-8.5-8.5v-85.3c0-4.7,3.8-8.5,8.5-8.5h85.3c4.7,0,8.5,3.8,8.5,8.5L153.6,409.6L153.6,409.6z"/>
			<path id="Shape_7_" class="st0" d="M298.7,298.7h-85.3c-14.1,0-25.6,11.5-25.6,25.6v85.3c0,14.1,11.5,25.6,25.6,25.6h85.3
				c14.1,0,25.6-11.5,25.6-25.6v-85.3C324.3,310.1,312.8,298.7,298.7,298.7z M307.2,409.6c0,4.7-3.8,8.5-8.5,8.5h-85.3
				c-4.7,0-8.5-3.8-8.5-8.5v-85.3c0-4.7,3.8-8.5,8.5-8.5h85.3c4.7,0,8.5,3.8,8.5,8.5V409.6z"/>
			<path id="Shape_8_" class="st0" d="M452.3,298.7h-85.3c-14.1,0-25.6,11.5-25.6,25.6v85.3c0,14.1,11.5,25.6,25.6,25.6h85.3
				c14.1,0,25.6-11.5,25.6-25.6v-85.3C477.9,310.1,466.4,298.7,452.3,298.7z M460.8,409.6c0,4.7-3.8,8.5-8.5,8.5h-85.3
				c-4.7,0-8.5-3.8-8.5-8.5v-85.3c0-4.7,3.8-8.5,8.5-8.5h85.3c4.7,0,8.5,3.8,8.5,8.5V409.6z"/>
			<g>
				<path id="Path_32_" class="st1" d="M136.5,452.3H68.3c-4.7,0-8.5,3.8-8.5,8.5s3.8,8.5,8.5,8.5h68.3c4.7,0,8.5-3.8,8.5-8.5
					S141.2,452.3,136.5,452.3z"/>
				<path id="Path_31_" class="st1" d="M290.1,452.3h-68.3c-4.7,0-8.5,3.8-8.5,8.5s3.8,8.5,8.5,8.5h68.3c4.7,0,8.5-3.8,8.5-8.5
					S294.8,452.3,290.1,452.3z"/>
				<path id="Path_30_" class="st1" d="M443.7,452.3h-68.3c-4.7,0-8.5,3.8-8.5,8.5s3.8,8.5,8.5,8.5h68.3c4.7,0,8.5-3.8,8.5-8.5
					S448.4,452.3,443.7,452.3z"/>
			</g>
		</g>
	</g>
</g>
</svg>
