<?xml version="1.0" encoding="utf-8"?>
<!-- Generator: Adobe Illustrator 24.3.0, SVG Export Plug-In . SVG Version: 6.00 Build 0)  -->
<svg version="1.1" id="Layer_1" xmlns="http://www.w3.org/2000/svg" xmlns:xlink="http://www.w3.org/1999/xlink" x="0px" y="0px"
	 viewBox="0 0 512 512" style="enable-background:new 0 0 512 512;" xml:space="preserve">
<style type="text/css">
	.st0{fill:#FFFFFF;}
</style>
<path class="st0" d="M469.3,0H42.7C19.1,0,0,19.1,0,42.7v426.7C0,492.9,19.1,512,42.7,512h426.7c23.6,0,42.6-19.1,42.7-42.7V42.7
	C512,19.1,492.9,0,469.3,0z M494.9,469.3c0,14.1-11.5,25.6-25.6,25.6H42.7c-14.1,0-25.6-11.5-25.6-25.6V42.7
	c0-14.1,11.5-25.6,25.6-25.6h426.7c14.1,0,25.6,11.5,25.6,25.6V469.3z"/>
<path class="st0" d="M469.4,36.5l-0.4-0.2c-2.5-1.4-5.3-2.2-8.2-2.2H51.2c-2.9,0-5.7,0.8-8.2,2.2l-0.4,0.2c-5.2,3-8.5,8.6-8.5,14.7
	v128c0,9.4,7.6,17.1,17.1,17.1h409.6c9.4,0,17.1-7.6,17.1-17.1v-128C477.8,45.2,474.6,39.6,469.4,36.5z M51.2,54.6l178.3,60.6
	L51.2,175.8V54.6z M94.2,51.2h323.6l-161.8,55L94.2,51.2z M256,124.2l161.8,55H94.2L256,124.2z M282.5,115.2l178.3-60.6v121.2
	L282.5,115.2z"/>
<path class="st0" d="M51.2,349.9h-8.5c-4.7,0-8.5,3.8-8.5,8.5c0,4.7,3.8,8.5,8.5,8.5h8.5c4.7,0,8.5-3.8,8.5-8.5
	C59.7,353.7,55.9,349.9,51.2,349.9z"/>
<path class="st0" d="M162.1,349.9H85.3c-4.7,0-8.5,3.8-8.5,8.5c0,4.7,3.8,8.5,8.5,8.5h76.8c4.7,0,8.5-3.8,8.5-8.5
	C170.7,353.7,166.8,349.9,162.1,349.9z"/>
<path class="st0" d="M51.2,384h-8.5c-4.7,0-8.5,3.8-8.5,8.5c0,4.7,3.8,8.5,8.5,8.5h8.5c4.7,0,8.5-3.8,8.5-8.5
	C59.7,387.8,55.9,384,51.2,384z"/>
<path class="st0" d="M162.1,384H85.3c-4.7,0-8.5,3.8-8.5,8.5c0,4.7,3.8,8.5,8.5,8.5h76.8c4.7,0,8.5-3.8,8.5-8.5
	C170.7,387.8,166.8,384,162.1,384z"/>
<path class="st0" d="M51.2,418.1h-8.5c-4.7,0-8.5,3.8-8.5,8.5c0,4.7,3.8,8.5,8.5,8.5h8.5c4.7,0,8.5-3.8,8.5-8.5
	C59.7,422,55.9,418.1,51.2,418.1z"/>
<path class="st0" d="M162.1,418.1H85.3c-4.7,0-8.5,3.8-8.5,8.5c0,4.7,3.8,8.5,8.5,8.5h76.8c4.7,0,8.5-3.8,8.5-8.5
	C170.7,422,166.8,418.1,162.1,418.1z"/>
<path class="st0" d="M51.2,452.3h-8.5c-4.7,0-8.5,3.8-8.5,8.5c0,4.7,3.8,8.5,8.5,8.5h8.5c4.7,0,8.5-3.8,8.5-8.5
	C59.7,456.1,55.9,452.3,51.2,452.3z"/>
<path class="st0" d="M162.1,452.3H85.3c-4.7,0-8.5,3.8-8.5,8.5c0,4.7,3.8,8.5,8.5,8.5h76.8c4.7,0,8.5-3.8,8.5-8.5
	C170.7,456.1,166.8,452.3,162.1,452.3z"/>
<path class="st0" d="M204.8,349.9h-8.5c-4.7,0-8.5,3.8-8.5,8.5c0,4.7,3.8,8.5,8.5,8.5h8.5c4.7,0,8.5-3.8,8.5-8.5
	C213.3,353.7,209.5,349.9,204.8,349.9z"/>
<path class="st0" d="M315.7,349.9h-76.8c-4.7,0-8.5,3.8-8.5,8.5c0,4.7,3.8,8.5,8.5,8.5h76.8c4.7,0,8.5-3.8,8.5-8.5
	C324.3,353.7,320.4,349.9,315.7,349.9z"/>
<path class="st0" d="M204.8,384h-8.5c-4.7,0-8.5,3.8-8.5,8.5c0,4.7,3.8,8.5,8.5,8.5h8.5c4.7,0,8.5-3.8,8.5-8.5
	C213.3,387.8,209.5,384,204.8,384z"/>
<path class="st0" d="M315.7,384h-76.8c-4.7,0-8.5,3.8-8.5,8.5c0,4.7,3.8,8.5,8.5,8.5h76.8c4.7,0,8.5-3.8,8.5-8.5
	C324.3,387.8,320.4,384,315.7,384z"/>
<path class="st0" d="M204.8,418.1h-8.5c-4.7,0-8.5,3.8-8.5,8.5c0,4.7,3.8,8.5,8.5,8.5h8.5c4.7,0,8.5-3.8,8.5-8.5
	C213.3,422,209.5,418.1,204.8,418.1z"/>
<path class="st0" d="M315.7,418.1h-76.8c-4.7,0-8.5,3.8-8.5,8.5c0,4.7,3.8,8.5,8.5,8.5h76.8c4.7,0,8.5-3.8,8.5-8.5
	C324.3,422,320.4,418.1,315.7,418.1z"/>
<path class="st0" d="M204.8,452.3h-8.5c-4.7,0-8.5,3.8-8.5,8.5c0,4.7,3.8,8.5,8.5,8.5h8.5c4.7,0,8.5-3.8,8.5-8.5
	C213.3,456.1,209.5,452.3,204.8,452.3z"/>
<path class="st0" d="M315.7,452.3h-76.8c-4.7,0-8.5,3.8-8.5,8.5c0,4.7,3.8,8.5,8.5,8.5h76.8c4.7,0,8.5-3.8,8.5-8.5
	C324.3,456.1,320.4,452.3,315.7,452.3z"/>
<path class="st0" d="M358.4,349.9h-8.5c-4.7,0-8.5,3.8-8.5,8.5c0,4.7,3.8,8.5,8.5,8.5h8.5c4.7,0,8.5-3.8,8.5-8.5
	C366.9,353.7,363.1,349.9,358.4,349.9z"/>
<path class="st0" d="M469.3,349.9h-76.8c-4.7,0-8.5,3.8-8.5,8.5c0,4.7,3.8,8.5,8.5,8.5h76.8c4.7,0,8.5-3.8,8.5-8.5
	C477.9,353.7,474,349.9,469.3,349.9z"/>
<path class="st0" d="M358.4,384h-8.5c-4.7,0-8.5,3.8-8.5,8.5c0,4.7,3.8,8.5,8.5,8.5h8.5c4.7,0,8.5-3.8,8.5-8.5
	C366.9,387.8,363.1,384,358.4,384z"/>
<path class="st0" d="M469.3,384h-76.8c-4.7,0-8.5,3.8-8.5,8.5c0,4.7,3.8,8.5,8.5,8.5h76.8c4.7,0,8.5-3.8,8.5-8.5
	C477.9,387.8,474,384,469.3,384z"/>
<path class="st0" d="M358.4,418.1h-8.5c-4.7,0-8.5,3.8-8.5,8.5c0,4.7,3.8,8.5,8.5,8.5h8.5c4.7,0,8.5-3.8,8.5-8.5
	C366.9,422,363.1,418.1,358.4,418.1z"/>
<path class="st0" d="M469.3,418.1h-76.8c-4.7,0-8.5,3.8-8.5,8.5c0,4.7,3.8,8.5,8.5,8.5h76.8c4.7,0,8.5-3.8,8.5-8.5
	C477.9,422,474,418.1,469.3,418.1z"/>
<path class="st0" d="M358.4,452.3h-8.5c-4.7,0-8.5,3.8-8.5,8.5c0,4.7,3.8,8.5,8.5,8.5h8.5c4.7,0,8.5-3.8,8.5-8.5
	C366.9,456.1,363.1,452.3,358.4,452.3z"/>
<path class="st0" d="M469.3,452.3h-76.8c-4.7,0-8.5,3.8-8.5,8.5c0,4.7,3.8,8.5,8.5,8.5h76.8c4.7,0,8.5-3.8,8.5-8.5
	C477.9,456.1,474,452.3,469.3,452.3z"/>
<path class="st0" d="M166,218.6c-0.1-0.1-0.1-0.1-0.2-0.2c-3.2-3.3-7.6-5.1-12.2-5.1H51.2c-9.4,0-17.1,7.6-17.1,17.1v85.3
	c0,9.4,7.6,17.1,17.1,17.1h102.4c4.6,0,9-1.8,12.2-5.1c0.1-0.1,0.1-0.1,0.2-0.1s0.1-0.2,0.1-0.3c2.9-3.1,4.6-7.3,4.6-11.6v-85.3
	c0-4.3-1.6-8.4-4.6-11.5C166.1,218.8,166,218.7,166,218.6z M51.2,240.4l38.1,32.7l-38.1,32.7V240.4z M65.8,230.4h73.3l-36.7,31.4
	L65.8,230.4z M102.5,284.3l36.6,31.4H65.8L102.5,284.3z M115.6,273.1l38.1-32.6v65.2L115.6,273.1z"/>
<path class="st0" d="M319.6,218.6c-0.1-0.1-0.1-0.1-0.2-0.2c-3.2-3.3-7.6-5.1-12.2-5.1H204.8c-9.4,0-17.1,7.6-17.1,17.1v85.3
	c0,9.4,7.6,17.1,17.1,17.1h102.4c4.6,0,9-1.8,12.2-5.1c0.1-0.1,0.1-0.1,0.2-0.1c0.1-0.1,0.1-0.2,0.1-0.3c2.9-3.1,4.6-7.3,4.6-11.6
	v-85.3c0-4.3-1.6-8.4-4.6-11.5C319.6,218.8,319.6,218.7,319.6,218.6z M204.8,240.4l38.1,32.7l-38.1,32.7V240.4z M219.4,230.4h73.3
	L256,261.8L219.4,230.4z M256.1,284.3l36.6,31.4h-73.3L256.1,284.3z M269.1,273.1l38.1-32.6v65.2L269.1,273.1z"/>
<path class="st0" d="M473.2,218.6c-0.1-0.1-0.1-0.1-0.2-0.2c-3.2-3.3-7.6-5.1-12.2-5.1H358.4c-9.4,0-17.1,7.6-17.1,17.1v85.3
	c0,9.4,7.6,17.1,17.1,17.1h102.4c4.6,0,9-1.8,12.2-5.1c0.1-0.1,0.1-0.1,0.2-0.1s0.1-0.2,0.1-0.3c2.9-3.1,4.6-7.3,4.6-11.6v-85.3
	c0-4.3-1.6-8.4-4.6-11.5C473.2,218.8,473.2,218.7,473.2,218.6z M358.4,240.4l38.1,32.7l-38.1,32.7V240.4z M373,230.4h73.3
	l-36.7,31.4L373,230.4z M409.7,284.3l36.6,31.4H373L409.7,284.3z M422.8,273.1l38.1-32.6v65.2L422.8,273.1z"/>
</svg>
