<?xml version="1.0" encoding="utf-8"?>
<!-- Generator: Adobe Illustrator 26.3.1, SVG Export Plug-In . SVG Version: 6.00 Build 0)  -->
<svg version="1.1" id="Layer_1" xmlns="http://www.w3.org/2000/svg" xmlns:xlink="http://www.w3.org/1999/xlink" x="0px" y="0px"
	 viewBox="0 0 512 512" style="enable-background:new 0 0 512 512;" xml:space="preserve">
<g id="Layer_2_00000039106905254585441410000016942769340338236806_">
	<path d="M256,272c-53,0-96-43-96-96s43-96,96-96s96,43,96,96S309,272,256,272z M256,112c-35.3,0-64,28.7-64,64s28.7,64,64,64
		s64-28.7,64-64S291.3,112,256,112z"/>
	<path d="M256,496c-71.8,0-139.9-32.3-185.4-87.8l-8.3-10.2l8.3-10.1c84.1-102.4,235.4-117.2,337.8-33.1c12.1,9.9,23.2,21,33.1,33.1
		l8.3,10.1l-8.3,10.2C395.9,463.7,327.8,496,256,496z M104.2,398.1c78.4,83.9,210,88.4,294,10c3.5-3.2,6.8-6.6,10-10
		c-78.4-83.9-210-88.4-294-10C110.7,391.3,107.4,394.6,104.2,398.1z"/>
	<path d="M256,496C123.5,496.1,15.9,388.7,15.8,256.2S123.1,16.1,255.7,16s240.1,107.3,240.2,239.8c0,55.5-19.2,109.4-54.4,152.3
		C395.9,463.7,327.8,496,256,496z M256,48C141.1,48,48,141.1,48,256s93.1,208,208,208s208-93.1,208-208S370.9,48,256,48z"/>
	<path d="M82.9,398.1c0,0,161.1,180,325.1,17.9l21.1-17.9c0,0-137-142.1-276-56.8L82.9,398.1z"/>
	<circle cx="256" cy="176" r="80"/>
</g>
</svg>
