<?xml version="1.0" encoding="utf-8"?>
<!-- Generator: Adobe Illustrator 25.4.1, SVG Export Plug-In . SVG Version: 6.00 Build 0)  -->
<svg version="1.1" id="Capa_1" xmlns="http://www.w3.org/2000/svg" xmlns:xlink="http://www.w3.org/1999/xlink" x="0px" y="0px"
	 viewBox="0 0 512 512" style="enable-background:new 0 0 512 512;" xml:space="preserve">
<g transform="translate(1 1)">
	<g>
		<g>
			<path d="M255-1C113.6-1-1,113.6-1,255s114.6,256,256,256s256-114.6,256-256S396.4-1,255-1z M255,468.3
				c-117.8,0-213.3-95.5-213.3-213.3S137.2,41.7,255,41.7S468.3,137.2,468.3,255S372.8,468.3,255,468.3z"/>
			<path d="M212.3,127h-64c-11.8,0-21.3,9.6-21.3,21.3v213.3c0,11.8,9.6,21.3,21.3,21.3h64c11.8,0,21.3-9.6,21.3-21.3V148.3
				C233.7,136.6,224.1,127,212.3,127z M191,340.3h-21.3V169.7H191V340.3z"/>
			<path d="M361.7,127h-64c-11.8,0-21.3,9.6-21.3,21.3v213.3c0,11.8,9.6,21.3,21.3,21.3h64c11.8,0,21.3-9.6,21.3-21.3V148.3
				C383,136.6,373.4,127,361.7,127z M340.3,340.3H319V169.7h21.3V340.3z"/>
		</g>
	</g>
</g>
</svg>
