<svg height="512" viewBox="0 0 54 60" width="512" xmlns="http://www.w3.org/2000/svg"><g id="Page-1" fill="none" fill-rule="evenodd"><g id="031---Microphone" fill="rgb(0,0,0)" fill-rule="nonzero"><path id="Shape" d="m54 17c.0206593-6.0276987-2.0004293-11.88476706-5.734-16.617-.2204329-.28116804-.5741226-.42337849-.9278377-.37306205-.3537151.05031645-.6537178.28551554-.787.61700003s-.0795952.708894.1408377.99006202c3.4561537 4.38088519 5.3270762 9.8029651 5.308 15.383 0 .5522847.4477153 1 1 1s1-.4477153 1-1z"/><path id="Shape" d="m5.735.383c-3.73252713 4.73286717-5.75379845 10.5894435-5.735 16.617 0 .5522847.44771525 1 1 1s1-.4477153 1-1c-.01740329-5.5800905 1.85411082-11.00184225 5.31-15.383.34075969-.43492424.26442424-1.06374031-.1705-1.4045s-1.06374031-.26442424-1.4045.1705z"/><path id="Shape" d="m49 18c.5522847 0 1-.4477153 1-1 .0156428-5.0397113-1.642816-9.94192549-4.715-13.937-.2080047-.30767821-.5693915-.47473729-.9385262-.4338546s-.6852072.28297227-.8208443.62870975c-.1356371.34573749-.0684944.73816713.1743705 1.01914485 2.8028789 3.64771805 4.3153286 8.1228106 4.3 12.723 0 .5522847.4477153 1 1 1z"/><path id="Shape" d="m8.715 3.073c-3.07089722 3.99192893-4.72933465 8.8905627-4.715 13.927 0 .5522847.44771525 1 1 1s1-.4477153 1-1c-.01417745-4.5966348 1.49827944-9.06787946 4.3-12.712.335513-.43879023.2517902-1.066487-.187-1.40199998-.43879024-.33551298-1.06648701-.25179024-1.402.18699998z"/><path id="Shape" d="m40.7 5.307c-.4369397.33594379-.5196807.96209208-.185 1.4 2.271382 2.94937304 3.4973846 6.5703902 3.485 10.293 0 .5522847.4477153 1 1 1s1-.4477153 1-1c.013454-4.1625619-1.3586267-8.21125552-3.9-11.508-.3359438-.4369397-.9620921-.51968072-1.4-.185z"/><path id="Shape" d="m11.9 5.494c-2.53581231 3.29895386-3.90725588 7.345064-3.9 11.506 0 .5522847.44771525 1 1 1s1-.4477153 1-1c-.00754194-3.7218189 1.217945-7.34131321 3.485-10.293.2449147-.28076358.3134369-.67440226.1778008-1.0214098-.135636-.34700755-.4529372-.58983806-.82333-.63009424s-.7324532.12873784-.9394708.43850404z"/><path id="Shape" d="m27 2c-8.2803876.00936852-14.9906315 6.71961243-15 15v10.184c-.320257-.1184378-.6585603-.1806856-1-.184-1.65685425 0-3 1.3431458-3 3 .01354605 8.3923409 5.8190595 15.6641611 14 17.536v2.464c0 1.1045695.8954305 2 2 2v2h-5c-1.6568542 0-3 1.3431458-3 3v2c0 .5522847.4477153 1 1 1h20c.5522847 0 1-.4477153 1-1v-2c0-1.6568542-1.3431458-3-3-3h-5v-2c1.1045695 0 2-.8954305 2-2v-2.464c8.1809405-1.8718389 13.986454-9.1436591 14-17.536 0-1.6568542-1.3431458-3-3-3-.3414397.0033144-.679743.0655622-1 .184v-10.184c0-8.28427125-6.7157288-15-15-15zm0 2c5.2472153.00295691 9.9791108 3.1575539 12 8h-9c-.5522847 0-1 .4477153-1 1s.4477153 1 1 1h9.638c.1558666.6575752.2605135 1.3262458.313 2h-9.951c-.5522847 0-1 .4477153-1 1s.4477153 1 1 1h10v2h-10c-.5522847 0-1 .4477153-1 1s.4477153 1 1 1h10v2h-10c-.5522847 0-1 .4477153-1 1s.4477153 1 1 1h10v2h-26v-2h5c.5522847 0 1-.4477153 1-1s-.4477153-1-1-1h-5v-2h5c.5522847 0 1-.4477153 1-1s-.4477153-1-1-1h-5v-2h5c.5522847 0 1-.4477153 1-1s-.4477153-1-1-1h-4.949c.0515359-.6738002.155856-1.3425187.312-2h4.637c.5522847 0 1-.4477153 1-1s-.4477153-1-1-1h-4c2.0224037-4.84119824 6.753354-7.99516512 12-8zm13 26c-.0071648 6.624447-5.375553 11.9928352-12 12h-2c-6.624447-.0071648-11.9928352-5.375553-12-12zm-4 27v1h-18v-1c0-.5522847.4477153-1 1-1h16c.5522847 0 1 .4477153 1 1zm-8-3h-2v-2h2zm2-4h-6v-2.118c.6639768.0762279 1.3316661.1156216 2 .118h2c.6683339-.0023784 1.3360232-.0417721 2-.118zm13-21c.5522847 0 1 .4477153 1 1-.0104696 8.8322157-7.1677843 15.9895304-16 16h-2c-8.8322157-.0104696-15.9895304-7.1677843-16-16 0-.5522847.4477153-1 1-1s1 .4477153 1 1c.0082673 7.7285595 6.2714405 13.9917327 14 14h2c7.7285595-.0082673 13.9917327-6.2714405 14-14 0-.5522847.4477153-1 1-1z"/><path id="Shape" d="m23 18h1c.5522847 0 1-.4477153 1-1s-.4477153-1-1-1h-1c-.5522847 0-1 .4477153-1 1s.4477153 1 1 1z"/><path id="Shape" d="m23 22h1c.5522847 0 1-.4477153 1-1s-.4477153-1-1-1h-1c-.5522847 0-1 .4477153-1 1s.4477153 1 1 1z"/><path id="Shape" d="m23 14h1c.5522847 0 1-.4477153 1-1s-.4477153-1-1-1h-1c-.5522847 0-1 .4477153-1 1s.4477153 1 1 1z"/><path id="Shape" d="m23 26h1c.5522847 0 1-.4477153 1-1s-.4477153-1-1-1h-1c-.5522847 0-1 .4477153-1 1s.4477153 1 1 1z"/></g></g></svg>