<?xml version="1.0" encoding="iso-8859-1"?>
<!-- Generator: Adobe Illustrator 19.0.0, SVG Export Plug-In . SVG Version: 6.00 Build 0)  -->
<svg version="1.1" id="Capa_1" xmlns="http://www.w3.org/2000/svg" xmlns:xlink="http://www.w3.org/1999/xlink" x="0px" y="0px"
	 viewBox="0 0 512.005 512.005" style="enable-background:new 0 0 512.005 512.005;" xml:space="preserve">
<g>
	<g>
		<g>
			<path d="M467.623,419.051l0.007-0.003l0.014-0.002c0.484-0.148,0.953-0.341,1.401-0.577c0.598-0.175,1.176-0.412,1.724-0.709
				c0.416-0.34,0.799-0.72,1.142-1.134c0.429-0.351,0.822-0.744,1.175-1.171c0.273-0.496,0.497-1.018,0.668-1.557
				c0.251-0.463,0.458-0.948,0.617-1.45c0.062-0.568,0.069-1.141,0.02-1.711c0.064-0.553,0.07-1.112,0.019-1.666l-0.004-0.01v-0.01
				c-0.526-2.689-0.795-5.422-0.804-8.162c0.007-19.443,13.171-36.416,32-41.262c2.952-0.762,5.273-3.041,6.089-5.979
				c0.816-2.938,0.003-6.087-2.133-8.262c-2.136-2.175-5.27-3.046-8.222-2.284c-26.365,6.791-44.794,30.562-44.8,57.788
				c0,1.099,0.1,2.219,0.165,3.331c-32.369,9.767-54.53,39.571-54.565,73.381c0,0.682,0.083,1.342,0.102,2.019
				c-7.969,4.82-14.953,11.105-20.585,18.523c-2.812,3.761-2.057,9.087,1.689,11.919c3.747,2.832,9.077,2.104,11.928-1.628
				c5.167-6.894,11.854-12.503,19.541-16.392c0.049-0.024,0.076-0.072,0.125-0.097c0.574-0.344,1.104-0.757,1.58-1.228
				c0.362-0.256,0.705-0.54,1.024-0.848c0.545-0.937,1.07-1.886,1.574-2.846c0.086-0.416,0.142-0.838,0.167-1.262
				c0.153-0.672,0.223-1.359,0.207-2.048c-0.004-0.052,0.02-0.098,0.015-0.151c-0.192-1.963-0.3-3.95-0.3-5.962
				C419.216,448.999,439.532,424.434,467.623,419.051z"/>
			<path d="M502.186,451.135L502.186,451.135c-26.153,4.401-46.698,24.8-51.284,50.921c-0.736,4.655,2.438,9.026,7.092,9.767
				c0.445,0.069,0.895,0.104,1.346,0.104c4.193-0.005,7.762-3.055,8.421-7.196c3.473-18.754,18.213-33.386,36.992-36.721
				c4.66-0.709,7.863-5.061,7.154-9.721C511.198,453.629,506.846,450.426,502.186,451.135z"/>
			<path d="M109.767,479.621c0.018-0.677,0.102-1.337,0.102-2.019c-0.034-33.811-22.196-63.614-54.565-73.381
				c0.065-1.113,0.165-2.233,0.165-3.331c-0.006-27.226-18.435-50.997-44.8-57.788c-4.563-1.178-9.218,1.566-10.396,6.129
				c-1.178,4.563,1.566,9.218,6.129,10.396l0,0c18.829,4.846,31.993,21.82,32,41.262c-0.009,2.74-0.278,5.473-0.804,8.163v0.01
				l-0.004,0.01c-0.051,0.555-0.045,1.113,0.019,1.666c-0.049,0.57-0.042,1.143,0.02,1.711c0.16,0.502,0.366,0.987,0.617,1.45
				c0.171,0.54,0.395,1.061,0.668,1.557c0.353,0.428,0.746,0.82,1.175,1.171c0.343,0.414,0.726,0.794,1.142,1.134
				c0.548,0.297,1.126,0.534,1.724,0.709c0.448,0.236,0.917,0.429,1.401,0.577l0.014,0.002l0.007,0.003
				c28.091,5.382,48.407,29.948,48.421,58.55c0,2.012-0.108,4-0.3,5.962c-0.005,0.053,0.019,0.099,0.015,0.151
				c-0.016,0.689,0.054,1.377,0.207,2.048c0.025,0.424,0.081,0.846,0.167,1.262c0.504,0.96,1.029,1.909,1.574,2.846
				c0.319,0.308,0.662,0.592,1.024,0.848c0.475,0.471,1.006,0.884,1.58,1.228c0.048,0.025,0.076,0.072,0.125,0.097
				c7.688,3.889,14.375,9.498,19.541,16.392c2.851,3.732,8.181,4.459,11.928,1.628c3.747-2.832,4.501-8.158,1.689-11.919
				C124.721,490.726,117.736,484.441,109.767,479.621z"/>
			<path d="M9.819,451.135c-4.66-0.709-9.012,2.494-9.721,7.154s2.494,9.012,7.154,9.721c18.779,3.334,33.519,17.967,36.992,36.721
				c0.659,4.141,4.228,7.19,8.421,7.196c0.451,0,0.901-0.035,1.346-0.104c4.654-0.741,7.828-5.112,7.092-9.767
				C56.516,475.935,35.972,455.536,9.819,451.135z"/>
			<path d="M387.568,451.414c3.028-1.393,4.968-4.421,4.967-7.754v-128c0-2.068-0.751-4.065-2.112-5.621l-57.621-65.853V119.873
				c0.824-7.46,4.771-67.288-72.067-118.513l-0.01-0.004c-0.935-0.622-1.984-1.053-3.087-1.269c-1.092-0.011-2.185-0.011-3.277,0
				c-1.102,0.216-2.15,0.648-3.085,1.27l-0.007,0.003c-76.838,51.225-72.891,111.053-72.067,118.513v124.314l-57.621,65.853
				c-1.362,1.556-2.112,3.553-2.112,5.621v128c0.001,3.332,1.94,6.359,4.966,7.754c3.029,1.391,6.59,0.893,9.121-1.275
				l53.032-45.456l21.347,26.684c-3.097,2.414-5.514,5.592-7.013,9.222c-3.609,8.462-1.657,18.272,4.917,24.708l44.13,44.129
				c1.6,1.601,3.77,2.5,6.033,2.5c2.263,0,4.434-0.899,6.033-2.5l44.129-44.129c5.443-5.438,7.754-13.266,6.139-20.789
				c-1.615-7.522-6.937-13.711-14.132-16.436l21.663-27.079h1.276l57.337,49.146C380.978,452.309,384.54,452.807,387.568,451.414z
				 M179.202,388.535l-42.667,36.571V318.868l42.667-48.763V388.535z M294.098,453.231l-38.096,38.096l-38.096-38.096
				c-1.605-1.603-2.085-4.014-1.218-6.11s2.912-3.462,5.18-3.461h68.267c2.268-0.001,4.313,1.366,5.18,3.461
				S295.703,451.628,294.098,453.231z M277.502,426.593h-51.533l-20.481-25.6h92.495L277.502,426.593z M315.736,383.927H196.269
				v-34.133h119.467V383.927z M315.736,247.393v85.333H196.269v-204.8h119.467V247.393z M196.071,110.86
				c0.713-15.91,8.271-55.38,59.936-91.897c51.91,36.661,59.355,75.923,59.978,91.897H196.071z M375.469,425.106l-42.667-36.571
				V270.106l42.667,48.763V425.106z"/>
			<path d="M256.002,264.46c23.564,0,42.667-19.102,42.667-42.667s-19.103-42.667-42.667-42.667s-42.667,19.103-42.667,42.667
				C213.363,245.346,232.45,264.432,256.002,264.46z M256.002,196.193c14.138,0,25.6,11.462,25.6,25.6s-11.462,25.6-25.6,25.6
				s-25.6-11.461-25.6-25.6C230.418,207.661,241.87,196.209,256.002,196.193z"/>
		</g>
	</g>
</g>
<g>
</g>
<g>
</g>
<g>
</g>
<g>
</g>
<g>
</g>
<g>
</g>
<g>
</g>
<g>
</g>
<g>
</g>
<g>
</g>
<g>
</g>
<g>
</g>
<g>
</g>
<g>
</g>
<g>
</g>
</svg>
