<?xml version="1.0" encoding="utf-8"?>
<!-- Generator: Adobe Illustrator 25.4.1, SVG Export Plug-In . SVG Version: 6.00 Build 0)  -->
<svg version="1.1" id="Layer_1" xmlns="http://www.w3.org/2000/svg" xmlns:xlink="http://www.w3.org/1999/xlink" x="0px" y="0px"
	 viewBox="0 0 512 512" style="enable-background:new 0 0 512 512;" xml:space="preserve">
<style type="text/css">
	.st0{fill:url(#SVGID_1_);}
	.st1{fill:url(#SVGID_00000100357264693819719370000018102159639397624972_);}
	.st2{fill:url(#SVGID_00000049211191329678480340000008024973115242686391_);}
	.st3{fill:url(#SVGID_00000151530753556307728410000017632208881407961533_);}
	.st4{fill:url(#SVGID_00000070116129927118477340000007315070776225067915_);}
	.st5{fill:url(#SVGID_00000138561178259412235760000001927512794230808470_);}
	.st6{fill:url(#SVGID_00000087390793819089433760000000994428515810193282_);}
	.st7{fill:url(#SVGID_00000082331814748442754200000000873108580329488811_);}
	.st8{fill:url(#SVGID_00000025427399778187450810000004074419808592971941_);}
	.st9{fill:url(#SVGID_00000069378865692493009590000010568871202159414923_);}
	.st10{fill:url(#SVGID_00000081618885785153002630000017077816787556367535_);}
	.st11{fill:url(#SVGID_00000143598191573559380620000015180658732437586620_);}
	.st12{fill:url(#SVGID_00000081646573558335976960000007495139955410102170_);}
	.st13{fill:url(#SVGID_00000030479893258761962220000015695690800867387827_);}
	.st14{fill:url(#SVGID_00000139992144042627503580000014210675526735596222_);}
</style>
<linearGradient id="SVGID_1_" gradientUnits="userSpaceOnUse" x1="0" y1="247.4668" x2="230.3984" y2="247.4668">
	<stop  offset="0" style="stop-color:#0F8FCE"/>
	<stop  offset="1" style="stop-color:#095A81"/>
</linearGradient>
<path class="st0" d="M25.6,341.3h119.5c14.1,0,25.6-11.5,25.6-25.6v-42.7h34.1c14.1,0,25.6-11.5,25.6-25.6v-85.3
	c0-4.7-3.8-8.5-8.5-8.5c-4.7,0-8.5,3.8-8.5,8.5v85.3c0,4.7-3.8,8.5-8.5,8.5h-34.1v-42.7c0-14.1-11.5-25.6-25.6-25.6H25.6
	C11.5,187.7,0,199.2,0,213.3v102.4C0,329.9,11.5,341.3,25.6,341.3z M17.1,213.3c0-4.7,3.8-8.5,8.5-8.5h119.5c4.7,0,8.5,3.8,8.5,8.5
	v102.4c0,4.7-3.8,8.5-8.5,8.5H25.6c-4.7,0-8.5-3.8-8.5-8.5V213.3z"/>
<linearGradient id="SVGID_00000106140614799605604750000004079736317326921123_" gradientUnits="userSpaceOnUse" x1="281.6016" y1="247.4668" x2="512" y2="247.4668">
	<stop  offset="0" style="stop-color:#0F8FCE"/>
	<stop  offset="1" style="stop-color:#095A81"/>
</linearGradient>
<path style="fill:url(#SVGID_00000106140614799605604750000004079736317326921123_);" d="M486.4,187.7H366.9
	c-14.1,0-25.6,11.5-25.6,25.6V256h-34.1c-4.7,0-8.5-3.8-8.5-8.5v-85.3c0-4.7-3.8-8.5-8.5-8.5c-4.7,0-8.5,3.8-8.5,8.5v85.3
	c0,14.1,11.5,25.6,25.6,25.6h34.1v42.7c0,14.1,11.5,25.6,25.6,25.6h119.5c14.1,0,25.6-11.5,25.6-25.6V213.3
	C512,199.2,500.5,187.7,486.4,187.7z M494.9,315.7c0,4.7-3.8,8.5-8.5,8.5H366.9c-4.7,0-8.5-3.8-8.5-8.5V213.3c0-4.7,3.8-8.5,8.5-8.5
	h119.5c4.7,0,8.5,3.8,8.5,8.5V315.7z"/>
<linearGradient id="SVGID_00000108280601391313145310000011273860042850433413_" gradientUnits="userSpaceOnUse" x1="170.668" y1="332.8008" x2="341.332" y2="332.8008">
	<stop  offset="0" style="stop-color:#0F8FCE"/>
	<stop  offset="1" style="stop-color:#095A81"/>
</linearGradient>
<path style="fill:url(#SVGID_00000108280601391313145310000011273860042850433413_);" d="M256,153.6c-4.7,0-8.5,3.8-8.5,8.5v196.3
	h-51.2c-14.1,0-25.6,11.5-25.6,25.6v102.4c0,14.1,11.5,25.6,25.6,25.6h119.5c14.1,0,25.6-11.5,25.6-25.6V384
	c0-14.1-11.5-25.6-25.6-25.6h-51.2V162.1C264.5,157.4,260.7,153.6,256,153.6z M324.3,384v102.4c0,4.7-3.8,8.5-8.5,8.5H196.3
	c-4.7,0-8.5-3.8-8.5-8.5V384c0-4.7,3.8-8.5,8.5-8.5h119.5C320.4,375.5,324.3,379.3,324.3,384z"/>
<linearGradient id="SVGID_00000008862568287953398950000013792966641187419835_" gradientUnits="userSpaceOnUse" x1="34.1328" y1="384" x2="153.6016" y2="384">
	<stop  offset="0" style="stop-color:#0F8FCE"/>
	<stop  offset="1" style="stop-color:#095A81"/>
</linearGradient>
<path style="fill:url(#SVGID_00000008862568287953398950000013792966641187419835_);" d="M42.7,358.4c-4.7,0-8.5,3.8-8.5,8.5V384
	c0,14.1,11.5,25.6,25.6,25.6h85.3c4.7,0,8.5-3.8,8.5-8.5c0-4.7-3.8-8.5-8.5-8.5H59.7c-4.7,0-8.5-3.8-8.5-8.5v-17.1
	C51.2,362.2,47.4,358.4,42.7,358.4z"/>
<linearGradient id="SVGID_00000116922761621611090010000009779658464547711905_" gradientUnits="userSpaceOnUse" x1="358.3984" y1="384" x2="460.8008" y2="384">
	<stop  offset="0" style="stop-color:#0F8FCE"/>
	<stop  offset="1" style="stop-color:#095A81"/>
</linearGradient>
<path style="fill:url(#SVGID_00000116922761621611090010000009779658464547711905_);" d="M435.2,409.6c14.1,0,25.6-11.5,25.6-25.6
	v-17.1c0-4.7-3.8-8.5-8.5-8.5c-4.7,0-8.5,3.8-8.5,8.5V384c0,4.7-3.8,8.5-8.5,8.5h-68.3c-4.7,0-8.5,3.8-8.5,8.5
	c0,4.7,3.8,8.5,8.5,8.5H435.2z"/>
<linearGradient id="SVGID_00000093171277012937526970000013886895084346672266_" gradientUnits="userSpaceOnUse" x1="34.1328" y1="85.334" x2="460.8008" y2="85.334">
	<stop  offset="0" style="stop-color:#0F8FCE"/>
	<stop  offset="1" style="stop-color:#095A81"/>
</linearGradient>
<path style="fill:url(#SVGID_00000093171277012937526970000013886895084346672266_);" d="M452.3,170.7c4.7,0,8.5-3.8,8.5-8.5V25.6
	c0-14.1-11.5-25.6-25.6-25.6H59.7C45.6,0,34.1,11.5,34.1,25.6v136.5c0,4.7,3.8,8.5,8.5,8.5c4.7,0,8.5-3.8,8.5-8.5V85.3h392.5v76.8
	C443.7,166.8,447.6,170.7,452.3,170.7z M51.2,68.3V25.6c0-4.7,3.8-8.5,8.5-8.5h375.5c4.7,0,8.5,3.8,8.5,8.5v42.7H51.2z"/>
<linearGradient id="SVGID_00000173129831533697398560000007459830170246662801_" gradientUnits="userSpaceOnUse" x1="68.2656" y1="42.666" x2="85.332" y2="42.666">
	<stop  offset="0" style="stop-color:#0F8FCE"/>
	<stop  offset="1" style="stop-color:#095A81"/>
</linearGradient>
<path style="fill:url(#SVGID_00000173129831533697398560000007459830170246662801_);" d="M85.3,42.7c0,4.7-3.8,8.5-8.5,8.5
	c-4.7,0-8.5-3.8-8.5-8.5c0-4.7,3.8-8.5,8.5-8.5C81.5,34.1,85.3,38,85.3,42.7z"/>
<linearGradient id="SVGID_00000165211996456146061740000014311384633513129395_" gradientUnits="userSpaceOnUse" x1="102.3984" y1="42.666" x2="119.4648" y2="42.666">
	<stop  offset="0" style="stop-color:#0F8FCE"/>
	<stop  offset="1" style="stop-color:#095A81"/>
</linearGradient>
<path style="fill:url(#SVGID_00000165211996456146061740000014311384633513129395_);" d="M119.5,42.7c0,4.7-3.8,8.5-8.5,8.5
	c-4.7,0-8.5-3.8-8.5-8.5c0-4.7,3.8-8.5,8.5-8.5C115.6,34.1,119.5,38,119.5,42.7z"/>
<linearGradient id="SVGID_00000075131394722911319000000003922376290811907007_" gradientUnits="userSpaceOnUse" x1="136.5352" y1="42.666" x2="153.6016" y2="42.666">
	<stop  offset="0" style="stop-color:#0F8FCE"/>
	<stop  offset="1" style="stop-color:#095A81"/>
</linearGradient>
<path style="fill:url(#SVGID_00000075131394722911319000000003922376290811907007_);" d="M153.6,42.7c0,4.7-3.8,8.5-8.5,8.5
	c-4.7,0-8.5-3.8-8.5-8.5c0-4.7,3.8-8.5,8.5-8.5C149.8,34.1,153.6,38,153.6,42.7z"/>
<linearGradient id="SVGID_00000078026197294508448280000010412654267158626227_" gradientUnits="userSpaceOnUse" x1="110.9336" y1="136.5332" x2="401.0664" y2="136.5332">
	<stop  offset="0" style="stop-color:#0F8FCE"/>
	<stop  offset="1" style="stop-color:#095A81"/>
</linearGradient>
<path style="fill:url(#SVGID_00000078026197294508448280000010412654267158626227_);" d="M392.5,170.7c4.7,0,8.5-3.8,8.5-8.5V128
	c0-14.1-11.5-25.6-25.6-25.6H136.5c-14.1,0-25.6,11.5-25.6,25.6v34.1c0,4.7,3.8,8.5,8.5,8.5c4.7,0,8.5-3.8,8.5-8.5V128
	c0-4.7,3.8-8.5,8.5-8.5h238.9c4.7,0,8.5,3.8,8.5,8.5v34.1C384,166.8,387.8,170.7,392.5,170.7z"/>
<linearGradient id="SVGID_00000060016831315072005460000010373299030959636132_" gradientUnits="userSpaceOnUse" x1="204.8148" y1="435.2886" x2="307.193" y2="435.2886">
	<stop  offset="0" style="stop-color:#0F8FCE"/>
	<stop  offset="1" style="stop-color:#095A81"/>
</linearGradient>
<path style="fill:url(#SVGID_00000060016831315072005460000010373299030959636132_);" d="M249.2,395.9l-13.4,17.5l-24.3,5.4
	c-3,0.7-5.4,2.9-6.3,5.9c-0.9,3-0.1,6.2,2,8.4l15.2,15.7l-1.3,20c-0.2,2.8,1,5.6,3.3,7.3c2.2,1.7,5.2,2.3,7.9,1.4l23.7-7.7l23.7,7.7
	c2.7,0.9,5.6,0.4,7.9-1.4c2.2-1.7,3.5-4.5,3.3-7.3l-1.3-20l15.2-15.7c2.1-2.2,2.9-5.4,2-8.4c-0.9-3-3.3-5.2-6.3-5.9l-24.3-5.4
	l-13.4-17.5c-1.7-2-4.2-3.2-6.8-3.2S250.9,393.9,249.2,395.9z M264.5,426.2c1.2,1.6,3,2.7,4.9,3.1l12.4,2.8l-7.3,7.5
	c-1.7,1.7-2.5,4.1-2.4,6.5l0.8,11.2l-14.4-4.7c-1.7-0.6-3.6-0.6-5.3,0l-14.4,4.7l0.7-11.2c0.2-2.4-0.7-4.8-2.4-6.5l-7.3-7.5
	l12.5-2.8c1.9-0.4,3.7-1.6,4.9-3.1l8.5-11.2L264.5,426.2z"/>
<linearGradient id="SVGID_00000037670464161112496960000007721225326807270551_" gradientUnits="userSpaceOnUse" x1="384" y1="264.52" x2="469.332" y2="264.52">
	<stop  offset="0" style="stop-color:#0F8FCE"/>
	<stop  offset="1" style="stop-color:#095A81"/>
</linearGradient>
<path style="fill:url(#SVGID_00000037670464161112496960000007721225326807270551_);" d="M447.8,261.8c7.3-10.7,5.4-25.1-4.2-33.6
	s-24.2-8.5-33.9,0c-9.7,8.5-11.5,22.9-4.2,33.6c-13.2,7.5-21.5,21.6-21.5,36.8c0,4.7,3.8,8.5,8.5,8.5h68.3c4.7,0,8.5-3.8,8.5-8.5
	C469.3,283.4,461.1,269.4,447.8,261.8z M418.1,247.5c0-4.7,3.8-8.5,8.5-8.5c4.7,0,8.5,3.8,8.5,8.5c0,4.7-3.8,8.5-8.5,8.5
	C422,256,418.1,252.2,418.1,247.5z M402.5,290.1c3.6-10.2,13.3-17.1,24.1-17.1c10.9,0,20.5,6.8,24.1,17.1H402.5z"/>
<linearGradient id="SVGID_00000170270274567530562060000017731581740850943374_" gradientUnits="userSpaceOnUse" x1="34.1328" y1="230.4004" x2="136.5352" y2="230.4004">
	<stop  offset="0" style="stop-color:#0F8FCE"/>
	<stop  offset="1" style="stop-color:#095A81"/>
</linearGradient>
<path style="fill:url(#SVGID_00000170270274567530562060000017731581740850943374_);" d="M42.7,238.9H128c4.7,0,8.5-3.8,8.5-8.5
	c0-4.7-3.8-8.5-8.5-8.5H42.7c-4.7,0-8.5,3.8-8.5,8.5C34.1,235.1,38,238.9,42.7,238.9z"/>
<linearGradient id="SVGID_00000120542473071430278710000015691433883348823943_" gradientUnits="userSpaceOnUse" x1="34.1328" y1="264.5332" x2="136.5352" y2="264.5332">
	<stop  offset="0" style="stop-color:#0F8FCE"/>
	<stop  offset="1" style="stop-color:#095A81"/>
</linearGradient>
<path style="fill:url(#SVGID_00000120542473071430278710000015691433883348823943_);" d="M42.7,273.1H128c4.7,0,8.5-3.8,8.5-8.5
	c0-4.7-3.8-8.5-8.5-8.5H42.7c-4.7,0-8.5,3.8-8.5,8.5C34.1,269.2,38,273.1,42.7,273.1z"/>
<linearGradient id="SVGID_00000098916988522495031490000010525341666891500734_" gradientUnits="userSpaceOnUse" x1="34.1328" y1="298.666" x2="136.5352" y2="298.666">
	<stop  offset="0" style="stop-color:#0F8FCE"/>
	<stop  offset="1" style="stop-color:#095A81"/>
</linearGradient>
<path style="fill:url(#SVGID_00000098916988522495031490000010525341666891500734_);" d="M42.7,307.2H128c4.7,0,8.5-3.8,8.5-8.5
	c0-4.7-3.8-8.5-8.5-8.5H42.7c-4.7,0-8.5,3.8-8.5,8.5C34.1,303.4,38,307.2,42.7,307.2z"/>
</svg>
