<?xml version="1.0" encoding="utf-8"?>
<!-- Generator: Adobe Illustrator 25.4.1, SVG Export Plug-In . SVG Version: 6.00 Build 0)  -->
<svg version="1.1" id="Capa_1" xmlns="http://www.w3.org/2000/svg" xmlns:xlink="http://www.w3.org/1999/xlink" x="0px" y="0px"
	 viewBox="0 0 512 512" style="enable-background:new 0 0 512 512;" xml:space="preserve">
<style type="text/css">
	.st0{fill:url(#Shape_00000109716353303254259610000002999265461694040998_);}
	.st1{fill:url(#Shape_00000021818415779737116530000014201230545130283708_);}
	.st2{fill:url(#Shape_00000176009986540737517420000010203313410655216560_);}
</style>
<g>
	<g id="Page-1_2_">
		<g id="_x30_03---Send-Email">
			
				<linearGradient id="Shape_00000015331773640779706030000014417452288507572409_" gradientUnits="userSpaceOnUse" x1="51.2" y1="256.0005" x2="460.802" y2="256.0005">
				<stop  offset="0" style="stop-color:#0F8FCE"/>
				<stop  offset="1" style="stop-color:#095A81"/>
			</linearGradient>
			<path id="Shape_8_" style="fill:url(#Shape_00000015331773640779706030000014417452288507572409_);" d="M93.9,307.2h74.8
				l-19.4,23c-4.4,5.1-5.4,12.2-2.6,18.3s8.9,10,15.5,10h34.1v136.5c0,9.4,7.6,17.1,17.1,17.1h85.3c9.4,0,17.1-7.6,17.1-17.1V358.4
				h34.1c6.7,0,12.7-3.9,15.5-9.9c2.8-6,1.8-13.2-2.5-18.2l-19.5-23h74.8c23.6,0,42.6-19.1,42.7-42.7V42.7
				c0-23.6-19.1-42.6-42.7-42.7H93.9C70.3,0,51.2,19.1,51.2,42.7v221.9C51.2,288.1,70.3,307.2,93.9,307.2z M68.3,264.5V42.7
				c0-4.4,1.2-8.7,3.4-12.5l141.9,123.4L71.7,277C69.5,273.2,68.3,268.9,68.3,264.5z M315.7,341.3c-9.4,0-17.1,7.6-17.1,17.1v136.5
				h-85.3V358.4c0-9.4-7.6-17.1-17.1-17.1l-34.1-0.1L256,230.4l62.8,74.2l0.1,0.2l31,36.6L315.7,341.3L315.7,341.3z M328.9,290.1
				l-60-70.9c-3.3-3.6-8-5.6-12.9-5.6c-4.9,0-9.6,2-12.9,5.6l-0.1,0.1l-59.9,70.8H93.9c-3.2,0-6.3-0.6-9.2-1.8l141.9-123.4l7.1,6.1
				c12.9,11.1,31.9,11.1,44.8,0l7-6.1l141.9,123.4c-2.9,1.2-6.1,1.8-9.2,1.8H328.9z M440.3,30.2c2.2,3.8,3.4,8.1,3.4,12.5v221.9
				c0,4.4-1.2,8.7-3.4,12.5L298.5,153.6L440.3,30.2z M418.1,17.1c3.2,0,6.3,0.6,9.2,1.8L267.2,158.2c-6.5,5.5-16,5.5-22.4,0
				L84.7,18.9c2.9-1.2,6.1-1.8,9.2-1.8L418.1,17.1z"/>
			
				<linearGradient id="Shape_00000012431634862631913230000010500061052862845360_" gradientUnits="userSpaceOnUse" x1="145.067" y1="42.667" x2="179.2" y2="42.667">
				<stop  offset="0" style="stop-color:#0F8FCE"/>
				<stop  offset="1" style="stop-color:#095A81"/>
			</linearGradient>
			<path id="Shape_7_" style="fill:url(#Shape_00000012431634862631913230000010500061052862845360_);" d="M153.6,51.2h17.1
				c4.7,0,8.5-3.8,8.5-8.5s-3.8-8.5-8.5-8.5h-17.1c-4.7,0-8.5,3.8-8.5,8.5S148.9,51.2,153.6,51.2z"/>
			
				<linearGradient id="Shape_00000107568206968231459360000000744460289407026049_" gradientUnits="userSpaceOnUse" x1="196.267" y1="42.667" x2="315.733" y2="42.667">
				<stop  offset="0" style="stop-color:#0F8FCE"/>
				<stop  offset="1" style="stop-color:#095A81"/>
			</linearGradient>
			<path id="Shape_6_" style="fill:url(#Shape_00000107568206968231459360000000744460289407026049_);" d="M204.8,51.2h102.4
				c4.7,0,8.5-3.8,8.5-8.5s-3.8-8.5-8.5-8.5H204.8c-4.7,0-8.5,3.8-8.5,8.5S200.1,51.2,204.8,51.2L204.8,51.2z"/>
		</g>
	</g>
</g>
</svg>
