<?xml version="1.0" encoding="utf-8"?>
<!-- Generator: Adobe Illustrator 25.4.1, SVG Export Plug-In . SVG Version: 6.00 Build 0)  -->
<svg version="1.1" id="Capa_1" xmlns="http://www.w3.org/2000/svg" xmlns:xlink="http://www.w3.org/1999/xlink" x="0px" y="0px"
	 viewBox="0 0 512 512" style="enable-background:new 0 0 512 512;" xml:space="preserve">
<style type="text/css">
	.st0{fill:url(#Shape_00000103254144310442463950000005482330871292942731_);}
	.st1{fill:url(#Shape_00000006668507943972775970000004953014238683426438_);}
	.st2{fill:url(#Shape_00000021102190135258013150000017171600254702614975_);}
	.st3{fill:url(#Shape_00000059991896344515264230000011279170032301082765_);}
	.st4{fill:url(#Shape_00000054249804857394072790000004635940530215283883_);}
	.st5{fill:url(#Shape_00000031184766249572386140000002063865937047475338_);}
	.st6{fill:url(#Shape_00000084513778914467557570000017949607766220158883_);}
	.st7{fill-rule:evenodd;clip-rule:evenodd;fill:url(#Path_00000180362491365012751930000004078432651056605066_);}
	.st8{fill-rule:evenodd;clip-rule:evenodd;fill:url(#Path_00000054955116714113839980000009677808078437892508_);}
	.st9{fill-rule:evenodd;clip-rule:evenodd;fill:url(#Path_00000173121586652595428170000010909991763442144945_);}
	.st10{fill-rule:evenodd;clip-rule:evenodd;fill:url(#Path_00000014617416307479453190000010077175902563802250_);}
	.st11{fill-rule:evenodd;clip-rule:evenodd;fill:url(#Path_00000150807826780787506630000012212218597840919697_);}
	.st12{fill-rule:evenodd;clip-rule:evenodd;fill:url(#Path_00000078734685311625292730000015653512051611246510_);}
	.st13{fill:url(#Shape_00000144338875804402098530000005554653131847466127_);}
	.st14{fill:url(#Shape_00000047767112726114216700000003927697502844302209_);}
	.st15{fill-rule:evenodd;clip-rule:evenodd;fill:url(#Path_00000088841425220281573020000004426577665168829588_);}
</style>
<g>
	<g id="Page-1_6_">
		<g id="_x30_07---Banner-Ad">
			
				<linearGradient id="Shape_00000080188472642638282520000011108472060554022785_" gradientUnits="userSpaceOnUse" x1="-1.907349e-05" y1="256" x2="512" y2="256">
				<stop  offset="0" style="stop-color:#0F8FCE"/>
				<stop  offset="1" style="stop-color:#095A81"/>
			</linearGradient>
			<path id="Shape_34_" style="fill:url(#Shape_00000080188472642638282520000011108472060554022785_);" d="M460.8,0H51.2
				C22.9,0,0,22.9,0,51.2v409.6C0,489.1,22.9,512,51.2,512h409.6c28.3,0,51.2-22.9,51.2-51.2V51.2C512,22.9,489.1,0,460.8,0L460.8,0
				z M51.2,17.1h409.6c18.9,0,34.1,15.3,34.1,34.1v51.2H17.1V51.2C17.1,32.3,32.3,17.1,51.2,17.1z M460.8,494.9H51.2
				c-18.9,0-34.1-15.3-34.1-34.1V119.5h477.9v341.3C494.9,479.7,479.7,494.9,460.8,494.9z"/>
			
				<linearGradient id="Shape_00000075860735635262947550000001485583064881730949_" gradientUnits="userSpaceOnUse" x1="34.133" y1="59.733" x2="85.333" y2="59.733">
				<stop  offset="0" style="stop-color:#0F8FCE"/>
				<stop  offset="1" style="stop-color:#095A81"/>
			</linearGradient>
			<path id="Shape_33_" style="fill:url(#Shape_00000075860735635262947550000001485583064881730949_);" d="M59.7,85.3
				c14.1,0,25.6-11.5,25.6-25.6S73.9,34.1,59.7,34.1S34.1,45.6,34.1,59.7S45.6,85.3,59.7,85.3z M59.7,51.2c4.7,0,8.5,3.8,8.5,8.5
				s-3.8,8.5-8.5,8.5s-8.5-3.8-8.5-8.5S55,51.2,59.7,51.2z"/>
			
				<linearGradient id="Shape_00000169521541325211950520000015619986034469504440_" gradientUnits="userSpaceOnUse" x1="102.4" y1="59.733" x2="153.6" y2="59.733">
				<stop  offset="0" style="stop-color:#0F8FCE"/>
				<stop  offset="1" style="stop-color:#095A81"/>
			</linearGradient>
			<path id="Shape_32_" style="fill:url(#Shape_00000169521541325211950520000015619986034469504440_);" d="M128,85.3
				c14.1,0,25.6-11.5,25.6-25.6S142.1,34.1,128,34.1s-25.6,11.5-25.6,25.6S113.9,85.3,128,85.3z M128,51.2c4.7,0,8.5,3.8,8.5,8.5
				s-3.8,8.5-8.5,8.5c-4.7,0-8.5-3.8-8.5-8.5S123.3,51.2,128,51.2z"/>
			
				<linearGradient id="Shape_00000160891422594177713550000002225753002015472003_" gradientUnits="userSpaceOnUse" x1="170.667" y1="59.733" x2="221.867" y2="59.733">
				<stop  offset="0" style="stop-color:#0F8FCE"/>
				<stop  offset="1" style="stop-color:#095A81"/>
			</linearGradient>
			<path id="Shape_31_" style="fill:url(#Shape_00000160891422594177713550000002225753002015472003_);" d="M196.3,85.3
				c14.1,0,25.6-11.5,25.6-25.6s-11.5-25.6-25.6-25.6s-25.6,11.5-25.6,25.6S182.1,85.3,196.3,85.3z M196.3,51.2
				c4.7,0,8.5,3.8,8.5,8.5s-3.8,8.5-8.5,8.5s-8.5-3.8-8.5-8.5S191.6,51.2,196.3,51.2z"/>
			
				<linearGradient id="Shape_00000161599661991365810940000015050323821885254539_" gradientUnits="userSpaceOnUse" x1="341.333" y1="59.733" x2="477.866" y2="59.733">
				<stop  offset="0" style="stop-color:#0F8FCE"/>
				<stop  offset="1" style="stop-color:#095A81"/>
			</linearGradient>
			<path id="Shape_30_" style="fill:url(#Shape_00000161599661991365810940000015050323821885254539_);" d="M366.9,85.3h85.3
				c14.1,0,25.6-11.5,25.6-25.6s-11.5-25.6-25.6-25.6h-85.3c-14.1,0-25.6,11.5-25.6,25.6S352.8,85.3,366.9,85.3z M366.9,51.2h85.3
				c4.7,0,8.5,3.8,8.5,8.5s-3.8,8.5-8.5,8.5h-85.3c-4.7,0-8.5-3.8-8.5-8.5S362.2,51.2,366.9,51.2z"/>
			
				<linearGradient id="Shape_00000072979883737133593110000008030015751594485917_" gradientUnits="userSpaceOnUse" x1="34.133" y1="221.8665" x2="477.866" y2="221.8665">
				<stop  offset="0" style="stop-color:#0F8FCE"/>
				<stop  offset="1" style="stop-color:#095A81"/>
			</linearGradient>
			<path id="Shape_29_" style="fill:url(#Shape_00000072979883737133593110000008030015751594485917_);" d="M452.3,136.5H59.7
				c-14.1,0-25.6,11.5-25.6,25.6v119.5c0,14.1,11.5,25.6,25.6,25.6h392.5c14.1,0,25.6-11.5,25.6-25.6V162.1
				C477.9,148,466.4,136.5,452.3,136.5L452.3,136.5z M460.8,281.6c0,4.7-3.8,8.5-8.5,8.5H59.7c-4.7,0-8.5-3.8-8.5-8.5V162.1
				c0-4.7,3.8-8.5,8.5-8.5h392.5c4.7,0,8.5,3.8,8.5,8.5L460.8,281.6L460.8,281.6z"/>
			
				<linearGradient id="Shape_00000088845284350982262990000007158956420147381419_" gradientUnits="userSpaceOnUse" x1="51.2" y1="401.0665" x2="187.733" y2="401.0665">
				<stop  offset="0" style="stop-color:#0F8FCE"/>
				<stop  offset="1" style="stop-color:#095A81"/>
			</linearGradient>
			<path id="Shape_28_" style="fill:url(#Shape_00000088845284350982262990000007158956420147381419_);" d="M162.1,332.8H76.8
				c-14.1,0-25.6,11.5-25.6,25.6v85.3c0,14.1,11.5,25.6,25.6,25.6h85.3c14.1,0,25.6-11.5,25.6-25.6v-85.3
				C187.7,344.3,176.3,332.8,162.1,332.8z M107.4,401.1l-39.1,39.1v-78.3L107.4,401.1z M80.3,349.9h78.3L119.5,389L80.3,349.9z
				 M119.5,413.1l39.1,39.1H80.3L119.5,413.1z M131.5,401.1l39.1-39.1v78.3L131.5,401.1z"/>
			<g>
				
					<linearGradient id="Path_00000058589149865025562980000017337296411301640377_" gradientUnits="userSpaceOnUse" x1="213.334" y1="341.334" x2="307.2" y2="341.334">
					<stop  offset="0" style="stop-color:#0F8FCE"/>
					<stop  offset="1" style="stop-color:#095A81"/>
				</linearGradient>
				
					<path id="Path_22_" style="fill-rule:evenodd;clip-rule:evenodd;fill:url(#Path_00000058589149865025562980000017337296411301640377_);" d="
					M221.9,349.9h76.8c4.7,0,8.5-3.8,8.5-8.5s-3.8-8.5-8.5-8.5h-76.8c-4.7,0-8.5,3.8-8.5,8.5S217.2,349.9,221.9,349.9L221.9,349.9z"
					/>
				
					<linearGradient id="Path_00000150070025446320800790000004730594251915369860_" gradientUnits="userSpaceOnUse" x1="358.401" y1="392.533" x2="460.8" y2="392.533">
					<stop  offset="0" style="stop-color:#0F8FCE"/>
					<stop  offset="1" style="stop-color:#095A81"/>
				</linearGradient>
				
					<path id="Path_21_" style="fill-rule:evenodd;clip-rule:evenodd;fill:url(#Path_00000150070025446320800790000004730594251915369860_);" d="
					M452.3,384h-85.3c-4.7,0-8.5,3.8-8.5,8.5s3.8,8.5,8.5,8.5h85.3c4.7,0,8.5-3.8,8.5-8.5S457,384,452.3,384z"/>
				
					<linearGradient id="Path_00000143608637610915901730000001085326965258112943_" gradientUnits="userSpaceOnUse" x1="213.334" y1="392.5335" x2="341.333" y2="392.5335">
					<stop  offset="0" style="stop-color:#0F8FCE"/>
					<stop  offset="1" style="stop-color:#095A81"/>
				</linearGradient>
				
					<path id="Path_20_" style="fill-rule:evenodd;clip-rule:evenodd;fill:url(#Path_00000143608637610915901730000001085326965258112943_);" d="
					M221.9,401.1h110.9c4.7,0,8.5-3.8,8.5-8.5s-3.8-8.5-8.5-8.5H221.9c-4.7,0-8.5,3.8-8.5,8.5S217.2,401.1,221.9,401.1L221.9,401.1z
					"/>
				
					<linearGradient id="Path_00000005975336083443640510000000283813811541298828_" gradientUnits="userSpaceOnUse" x1="290.134" y1="426.666" x2="460.8" y2="426.666">
					<stop  offset="0" style="stop-color:#0F8FCE"/>
					<stop  offset="1" style="stop-color:#095A81"/>
				</linearGradient>
				
					<path id="Path_19_" style="fill-rule:evenodd;clip-rule:evenodd;fill:url(#Path_00000005975336083443640510000000283813811541298828_);" d="
					M452.3,418.1H298.7c-4.7,0-8.5,3.8-8.5,8.5s3.8,8.5,8.5,8.5h153.6c4.7,0,8.5-3.8,8.5-8.5S457,418.1,452.3,418.1z"/>
				
					<linearGradient id="Path_00000047769411295180091030000015473497216025058729_" gradientUnits="userSpaceOnUse" x1="213.334" y1="426.667" x2="273.067" y2="426.667">
					<stop  offset="0" style="stop-color:#0F8FCE"/>
					<stop  offset="1" style="stop-color:#095A81"/>
				</linearGradient>
				
					<path id="Path_18_" style="fill-rule:evenodd;clip-rule:evenodd;fill:url(#Path_00000047769411295180091030000015473497216025058729_);" d="
					M221.9,435.2h42.7c4.7,0,8.5-3.8,8.5-8.5s-3.8-8.5-8.5-8.5h-42.7c-4.7,0-8.5,3.8-8.5,8.5S217.2,435.2,221.9,435.2z"/>
				
					<linearGradient id="Path_00000145761390589975979110000003630908403567964058_" gradientUnits="userSpaceOnUse" x1="213.334" y1="460.8" x2="418.133" y2="460.8">
					<stop  offset="0" style="stop-color:#0F8FCE"/>
					<stop  offset="1" style="stop-color:#095A81"/>
				</linearGradient>
				
					<path id="Path_17_" style="fill-rule:evenodd;clip-rule:evenodd;fill:url(#Path_00000145761390589975979110000003630908403567964058_);" d="
					M409.6,452.3H221.9c-4.7,0-8.5,3.8-8.5,8.5s3.8,8.5,8.5,8.5h187.7c4.7,0,8.5-3.8,8.5-8.5S414.3,452.3,409.6,452.3z"/>
			</g>
			
				<linearGradient id="Shape_00000080194788383286217560000001009031290540212098_" gradientUnits="userSpaceOnUse" x1="179.2" y1="221.8665" x2="247.466" y2="221.8665">
				<stop  offset="0" style="stop-color:#0F8FCE"/>
				<stop  offset="1" style="stop-color:#095A81"/>
			</linearGradient>
			<path id="Shape_27_" style="fill:url(#Shape_00000080194788383286217560000001009031290540212098_);" d="M213.3,170.7
				c-18.9,0-34.1,15.3-34.1,34.1v59.7c0,4.7,3.8,8.5,8.5,8.5c4.7,0,8.5-3.8,8.5-8.5v-25.6h34.1v25.6c0,4.7,3.8,8.5,8.5,8.5
				c4.7,0,8.5-3.8,8.5-8.5v-59.7C247.5,185.9,232.2,170.7,213.3,170.7L213.3,170.7z M196.3,221.9v-17.1c0-9.4,7.6-17.1,17.1-17.1
				s17.1,7.6,17.1,17.1v17.1H196.3z"/>
			
				<linearGradient id="Shape_00000101826355114872921950000000314468640592688045_" gradientUnits="userSpaceOnUse" x1="264.533" y1="221.867" x2="332.8" y2="221.867">
				<stop  offset="0" style="stop-color:#0F8FCE"/>
				<stop  offset="1" style="stop-color:#095A81"/>
			</linearGradient>
			<path id="Shape_26_" style="fill:url(#Shape_00000101826355114872921950000000314468640592688045_);" d="M298.7,170.7h-17.1
				c-9.4,0-17.1,7.6-17.1,17.1V256c0,9.4,7.6,17.1,17.1,17.1h17.1c18.9,0,34.1-15.3,34.1-34.1v-34.1
				C332.8,185.9,317.5,170.7,298.7,170.7L298.7,170.7z M315.7,238.9c0,9.4-7.6,17.1-17.1,17.1h-17.1v-68.3h17.1
				c9.4,0,17.1,7.6,17.1,17.1L315.7,238.9L315.7,238.9z"/>
			
				<linearGradient id="Path_00000008148672674786269580000017723662848698620595_" gradientUnits="userSpaceOnUse" x1="409.4957" y1="187.7865" x2="443.7313" y2="187.7865">
				<stop  offset="0" style="stop-color:#0F8FCE"/>
				<stop  offset="1" style="stop-color:#095A81"/>
			</linearGradient>
			
				<path id="Path_16_" style="fill-rule:evenodd;clip-rule:evenodd;fill:url(#Path_00000008148672674786269580000017723662848698620595_);" d="
				M441.2,173.2c-3.3-3.3-8.7-3.3-12.1,0l-2.5,2.5l-2.5-2.5c-3.3-3.2-8.7-3.2-12,0.1c-3.3,3.3-3.3,8.6-0.1,12l2.5,2.5l-2.5,2.5
				c-2.2,2.1-3.1,5.3-2.3,8.3s3.1,5.3,6.1,6.1s6.2-0.1,8.3-2.3l2.5-2.5l2.5,2.5c3.3,3.2,8.7,3.2,12-0.1c3.3-3.3,3.3-8.6,0.1-12
				l-2.5-2.5l2.5-2.5C444.6,181.9,444.6,176.5,441.2,173.2z"/>
		</g>
	</g>
</g>
</svg>
