<?xml version="1.0" encoding="utf-8"?>
<!-- Generator: Adobe Illustrator 24.3.0, SVG Export Plug-In . SVG Version: 6.00 Build 0)  -->
<svg version="1.1" id="Layer_1" xmlns="http://www.w3.org/2000/svg" xmlns:xlink="http://www.w3.org/1999/xlink" x="0px" y="0px"
	 viewBox="0 0 512 512" style="enable-background:new 0 0 512 512;" xml:space="preserve">
<style type="text/css">
	.st0{fill:url(#Shape_12_);}
	.st1{fill:url(#Oval_3_);}
	.st2{fill:url(#Oval_4_);}
	.st3{fill:url(#Oval_5_);}
	.st4{fill:url(#Shape_13_);}
	.st5{fill:url(#Shape_14_);}
	.st6{fill:url(#Shape_15_);}
	.st7{fill:url(#Shape_16_);}
	.st8{fill:url(#Shape_17_);}
	.st9{fill:url(#Shape_18_);}
	.st10{fill:url(#Shape_19_);}
	.st11{fill:url(#Shape_20_);}
	.st12{fill:url(#Shape_21_);}
	.st13{fill:url(#Shape_22_);}
	.st14{fill:url(#Shape_23_);}
</style>
<g id="Page-1">
	<g id="_x30_33---UI-Data-Information" transform="translate(-1)">
		<linearGradient id="Shape_12_" gradientUnits="userSpaceOnUse" x1="8.7352" y1="7.7352" x2="505.2648" y2="504.2648">
			<stop  offset="0" style="stop-color:#0F8FCE"/>
			<stop  offset="1" style="stop-color:#095A81"/>
		</linearGradient>
		<path id="Shape" class="st0" d="M487.4,0H26.6C12,0.5,0.6,12.7,1,27.2v457.5c-0.4,14.6,11,26.8,25.6,27.2h460.8
			c14.6-0.5,26-12.7,25.6-27.2V27.2C513.4,12.7,502,0.5,487.4,0L487.4,0z M26.6,17.1h460.8c5.1,0.6,8.9,5,8.5,10.2v41H18.1v-41
			C17.7,22.1,21.5,17.6,26.6,17.1z M487.4,494.9H26.6c-5.1-0.6-8.9-5-8.5-10.2V85.3h477.9v399.4
			C496.3,489.9,492.5,494.4,487.4,494.9z"/>
		<linearGradient id="Oval_3_" gradientUnits="userSpaceOnUse" x1="37.6327" y1="36.6327" x2="49.7006" y2="48.7006">
			<stop  offset="0" style="stop-color:#0F8FCE"/>
			<stop  offset="1" style="stop-color:#095A81"/>
		</linearGradient>
		<circle id="Oval" class="st1" cx="43.7" cy="42.7" r="8.5"/>
		<linearGradient id="Oval_4_" gradientUnits="userSpaceOnUse" x1="71.766" y1="36.6327" x2="83.834" y2="48.7006">
			<stop  offset="0" style="stop-color:#0F8FCE"/>
			<stop  offset="1" style="stop-color:#095A81"/>
		</linearGradient>
		<circle id="Oval_1_" class="st2" cx="77.8" cy="42.7" r="8.5"/>
		<linearGradient id="Oval_5_" gradientUnits="userSpaceOnUse" x1="105.8994" y1="36.6327" x2="117.9673" y2="48.7006">
			<stop  offset="0" style="stop-color:#0F8FCE"/>
			<stop  offset="1" style="stop-color:#095A81"/>
		</linearGradient>
		<circle id="Oval_2_" class="st3" cx="111.9" cy="42.7" r="8.5"/>
		<linearGradient id="Shape_13_" gradientUnits="userSpaceOnUse" x1="419.4994" y1="21.6994" x2="461.434" y2="63.634">
			<stop  offset="0" style="stop-color:#0F8FCE"/>
			<stop  offset="1" style="stop-color:#095A81"/>
		</linearGradient>
		<path id="Shape_1_" class="st4" d="M410.6,51.2h59.7c4.7,0,8.5-3.8,8.5-8.5s-3.8-8.5-8.5-8.5h-59.7c-4.7,0-8.5,3.8-8.5,8.5
			S405.9,51.2,410.6,51.2z"/>
		<linearGradient id="Shape_14_" gradientUnits="userSpaceOnUse" x1="63.5987" y1="100.9987" x2="160.268" y2="197.668">
			<stop  offset="0" style="stop-color:#0F8FCE"/>
			<stop  offset="1" style="stop-color:#095A81"/>
		</linearGradient>
		<path id="Shape_2_" class="st5" d="M154.6,196.3c9.4,0,17.1-7.6,17.1-17.1v-59.7c0-9.4-7.6-17.1-17.1-17.1H69.3
			c-9.4,0-17.1,7.6-17.1,17.1v59.7c0,9.4,7.6,17.1,17.1,17.1H154.6z M69.3,119.5h85.3v59.7H69.3V119.5z"/>
		<linearGradient id="Shape_15_" gradientUnits="userSpaceOnUse" x1="208.6654" y1="100.9987" x2="305.3346" y2="197.668">
			<stop  offset="0" style="stop-color:#0F8FCE"/>
			<stop  offset="1" style="stop-color:#095A81"/>
		</linearGradient>
		<path id="Shape_3_" class="st6" d="M214.3,196.3h85.3c9.4,0,17.1-7.6,17.1-17.1v-59.7c0-9.4-7.6-17.1-17.1-17.1h-85.3
			c-9.4,0-17.1,7.6-17.1,17.1v59.7C197.3,188.6,204.9,196.3,214.3,196.3z M214.3,119.5h85.3v59.7h-85.3V119.5z"/>
		<linearGradient id="Shape_16_" gradientUnits="userSpaceOnUse" x1="353.7321" y1="100.9987" x2="450.4013" y2="197.668">
			<stop  offset="0" style="stop-color:#0F8FCE"/>
			<stop  offset="1" style="stop-color:#095A81"/>
		</linearGradient>
		<path id="Shape_4_" class="st7" d="M444.7,102.4h-85.3c-9.4,0-17.1,7.6-17.1,17.1v59.7c0,9.4,7.6,17.1,17.1,17.1h85.3
			c9.4,0,17.1-7.6,17.1-17.1v-59.7C461.8,110,454.2,102.4,444.7,102.4z M359.4,179.2v-59.7h85.3v59.7H359.4z"/>
		<linearGradient id="Shape_17_" gradientUnits="userSpaceOnUse" x1="84.566" y1="194.4994" x2="139.3006" y2="249.234">
			<stop  offset="0" style="stop-color:#0F8FCE"/>
			<stop  offset="1" style="stop-color:#095A81"/>
		</linearGradient>
		<path id="Shape_5_" class="st8" d="M154.6,213.3H69.3c-4.7,0-8.5,3.8-8.5,8.5c0,4.7,3.8,8.5,8.5,8.5h85.3c4.7,0,8.5-3.8,8.5-8.5
			C163.1,217.2,159.3,213.3,154.6,213.3z"/>
		<linearGradient id="Shape_18_" gradientUnits="userSpaceOnUse" x1="84.566" y1="228.6327" x2="139.3006" y2="283.3673">
			<stop  offset="0" style="stop-color:#0F8FCE"/>
			<stop  offset="1" style="stop-color:#095A81"/>
		</linearGradient>
		<path id="Shape_6_" class="st9" d="M154.6,247.5H69.3c-4.7,0-8.5,3.8-8.5,8.5c0,4.7,3.8,8.5,8.5,8.5h85.3c4.7,0,8.5-3.8,8.5-8.5
			C163.1,251.3,159.3,247.5,154.6,247.5z"/>
		<linearGradient id="Shape_19_" gradientUnits="userSpaceOnUse" x1="229.6327" y1="194.4994" x2="284.3673" y2="249.234">
			<stop  offset="0" style="stop-color:#0F8FCE"/>
			<stop  offset="1" style="stop-color:#095A81"/>
		</linearGradient>
		<path id="Shape_7_" class="st10" d="M299.7,213.3h-85.3c-4.7,0-8.5,3.8-8.5,8.5c0,4.7,3.8,8.5,8.5,8.5h85.3c4.7,0,8.5-3.8,8.5-8.5
			C308.2,217.2,304.4,213.3,299.7,213.3z"/>
		<linearGradient id="Shape_20_" gradientUnits="userSpaceOnUse" x1="229.6327" y1="228.6327" x2="284.3673" y2="283.3673">
			<stop  offset="0" style="stop-color:#0F8FCE"/>
			<stop  offset="1" style="stop-color:#095A81"/>
		</linearGradient>
		<path id="Shape_8_" class="st11" d="M299.7,247.5h-85.3c-4.7,0-8.5,3.8-8.5,8.5c0,4.7,3.8,8.5,8.5,8.5h85.3c4.7,0,8.5-3.8,8.5-8.5
			C308.2,251.3,304.4,247.5,299.7,247.5z"/>
		<linearGradient id="Shape_21_" gradientUnits="userSpaceOnUse" x1="374.6994" y1="194.4994" x2="429.434" y2="249.234">
			<stop  offset="0" style="stop-color:#0F8FCE"/>
			<stop  offset="1" style="stop-color:#095A81"/>
		</linearGradient>
		<path id="Shape_9_" class="st12" d="M444.7,213.3h-85.3c-4.7,0-8.5,3.8-8.5,8.5c0,4.7,3.8,8.5,8.5,8.5h85.3c4.7,0,8.5-3.8,8.5-8.5
			C453.3,217.2,449.4,213.3,444.7,213.3z"/>
		<linearGradient id="Shape_22_" gradientUnits="userSpaceOnUse" x1="139.1785" y1="315.6703" x2="374.8215" y2="551.3132">
			<stop  offset="0" style="stop-color:#0F8FCE"/>
			<stop  offset="1" style="stop-color:#095A81"/>
		</linearGradient>
		<path id="Shape_10_" class="st13" d="M393,334.1c-0.1-0.1-0.2-0.3-0.3-0.4c-0.2-0.2-0.5-0.3-0.7-0.5
			c-76.8-68.8-193.1-68.8-269.9,0c-0.2,0.1-0.5,0.3-0.7,0.5c-0.1,0.1-0.2,0.3-0.3,0.4c-38.2,34.6-60.1,83.7-60.3,135.2
			c0,4.7,3.8,8.5,8.5,8.5h375.5c4.7,0,8.5-3.8,8.5-8.5C453.1,417.8,431.2,368.7,393,334.1z M281,460.8H233
			c3.6-10.2,13.2-17.1,24-17.1S277.5,450.6,281,460.8z M298.8,460.8c-2.2-10.3-8-19.4-16.5-25.6l42.1-90.3c1.3-2.8,1.1-6.1-0.7-8.6
			s-4.7-3.9-7.8-3.6c-3.1,0.3-5.7,2.2-7,5l-42.1,90.2c-3.2-0.8-6.6-1.2-9.9-1.3c-20.3,0-37.7,14.3-41.8,34.1H78
			c2.4-41.2,20-80.1,49.4-109l21.1,21.1c3.3,3.2,8.7,3.2,12-0.1c3.3-3.3,3.3-8.6,0.1-12l-20.5-20.6c30.7-25.1,68.7-39.6,108.4-41.3
			v33.7c0,4.7,3.8,8.5,8.5,8.5c4.7,0,8.5-3.8,8.5-8.5v-33.7c39.6,1.7,77.7,16.1,108.4,41.3l-20.6,20.6c-2.2,2.1-3.1,5.3-2.3,8.3
			c0.8,3,3.1,5.3,6.1,6.1c3,0.8,6.2-0.1,8.3-2.3l21.1-21.1c29.4,28.9,47.1,67.8,49.4,109L298.8,460.8z"/>
		<linearGradient id="Shape_23_" gradientUnits="userSpaceOnUse" x1="374.6994" y1="228.6327" x2="429.434" y2="283.3673">
			<stop  offset="0" style="stop-color:#0F8FCE"/>
			<stop  offset="1" style="stop-color:#095A81"/>
		</linearGradient>
		<path id="Shape_11_" class="st14" d="M444.7,247.5h-85.3c-4.7,0-8.5,3.8-8.5,8.5c0,4.7,3.8,8.5,8.5,8.5h85.3
			c4.7,0,8.5-3.8,8.5-8.5C453.3,251.3,449.4,247.5,444.7,247.5z"/>
	</g>
</g>
</svg>
