<?xml version="1.0" encoding="utf-8"?>
<!-- Generator: Adobe Illustrator 24.3.0, SVG Export Plug-In . SVG Version: 6.00 Build 0)  -->
<svg version="1.1" id="Layer_1" xmlns="http://www.w3.org/2000/svg" xmlns:xlink="http://www.w3.org/1999/xlink" x="0px" y="0px"
	 viewBox="0 0 512 512" style="enable-background:new 0 0 512 512;" xml:space="preserve">
<style type="text/css">
	.st0{fill:url(#Shape_1_);}
</style>
<g id="Page-1">
	<g id="_x30_19---Connections" transform="translate(-1)">
		<linearGradient id="Shape_1_" gradientUnits="userSpaceOnUse" x1="57.7153" y1="47.7541" x2="456.2832" y2="446.322">
			<stop  offset="0" style="stop-color:#0F8FCE"/>
			<stop  offset="1" style="stop-color:#095A81"/>
		</linearGradient>
		<path id="Shape" class="st0" d="M436.2,59.7c-8.7,0-17.4,1.5-25.6,4.5V34.1c0-18.9-15.3-34.1-34.1-34.1H137.5
			c-18.9,0-34.1,15.3-34.1,34.1v30.1C71.6,52.8,36,63.6,15.9,90.8s-20.1,64.3,0,91.5s55.7,38,87.5,26.6v269
			c0,18.9,15.3,34.1,34.1,34.1h238.9c18.9,0,34.1-15.3,34.1-34.1v-269c28.8,10.3,61.1,2.5,82-19.9s26.5-55.1,14.3-83.1
			C494.6,77.7,466.8,59.6,436.2,59.7z M322.6,17.1l-10.9,11.7c-3.2,3.4-7.7,5.4-12.4,5.4h-84.5c-4.7,0-9.2-2-12.5-5.4l-10.9-11.7
			H322.6z M120.5,34.1c0-9.4,7.6-17.1,17.1-17.1H168l21.9,23.3c6.5,6.9,15.5,10.8,24.9,10.8h84.5c9.4,0,18.4-3.9,24.9-10.8L346,17.1
			h30.4c9.4,0,17.1,7.6,17.1,17.1v38.6c-32.6,21.7-43.6,64.6-25.4,99.3l-51.7,77.5c-15-10.8-32.6-17.2-50.9-18.8v-18
			c40.5-4.5,70.4-39.9,68.1-80.6c-2.3-40.7-35.9-72.5-76.7-72.5s-74.4,31.8-76.7,72.5s27.6,76.1,68.1,80.6v18
			c-18.4,1.5-36,8-50.9,18.8l-51.7-77.5c18.2-34.7,7.3-77.6-25.4-99.4L120.5,34.1z M205.8,400.9c0-17.1,8.7-33.1,23-42.5
			c17.1,11.3,39.2,11.3,56.3,0c14.3,9.4,23,25.4,23,42.5C277.9,423.9,236.1,423.9,205.8,400.9L205.8,400.9z M257,349.9
			c-18.9,0-34.1-15.3-34.1-34.1c0-18.9,15.3-34.1,34.1-34.1s34.1,15.3,34.1,34.1C291.1,334.6,275.9,349.9,257,349.9L257,349.9z
			 M323.5,386.2c-3.5-15.9-12.6-30-25.6-39.7c15.9-21.1,13.2-50.9-6.4-68.7s-49.4-17.8-69,0c-19.5,17.8-22.3,47.6-6.4,68.7
			c-13,9.7-22.1,23.8-25.6,39.7c-28.1-34.9-24.4-85.5,8.4-116s83.5-30.5,116.3,0C347.9,300.7,351.6,351.3,323.5,386.2L323.5,386.2z
			 M305.4,171.3c-3.5-10.4-10.3-19.4-19.4-25.6c8.8-14.3,5.9-32.9-6.8-43.9s-31.6-10.9-44.4,0c-12.8,10.9-15.7,29.6-6.8,43.9
			c-9,6.2-15.8,15.2-19.4,25.6c-17.9-24.8-14.2-59,8.5-79.4s57.1-20.4,79.8,0C319.6,112.4,323.3,146.6,305.4,171.3L305.4,171.3z
			 M239.9,128c0-9.4,7.6-17.1,17.1-17.1c9.4,0,17.1,7.6,17.1,17.1s-7.6,17.1-17.1,17.1C247.6,145.1,239.9,137.4,239.9,128L239.9,128
			z M240.7,157.8c10.1,5.8,22.5,5.8,32.6,0c10.3,5.6,16.9,16.1,17.6,27.8c-20.4,14.2-47.5,14.2-67.9,0
			C223.8,173.9,230.4,163.4,240.7,157.8L240.7,157.8z M18.1,136.5C18,110.7,34.6,87.7,59.2,79.6c24.6-8.1,51.6,0.6,66.8,21.5
			s15.4,49.2,0.2,70.2c-3.5-10.4-10.3-19.4-19.4-25.6c8.8-14.3,5.9-32.9-6.8-43.9s-31.6-10.9-44.4,0s-15.7,29.6-6.8,43.9
			c-9,6.2-15.8,15.2-19.4,25.6C22,161.2,18.1,149,18.1,136.5z M60.7,128c0-9.4,7.6-17.1,17.1-17.1s17.1,7.6,17.1,17.1
			s-7.6,17.1-17.1,17.1S60.7,137.4,60.7,128z M43.8,185.6c0.7-11.7,7.4-22.2,17.6-27.8c10.1,5.8,22.5,5.8,32.6,0
			c10.3,5.6,16.9,16.1,17.6,27.8C91.4,199.8,64.2,199.8,43.8,185.6z M376.5,494.9H137.5c-9.4,0-17.1-7.6-17.1-17.1v-13.3
			c5.2,3.1,11.1,4.7,17.1,4.7h238.9c6,0,11.9-1.7,17.1-4.7v13.3C393.5,487.3,385.9,494.9,376.5,494.9z M393.5,435.2
			c0,9.4-7.6,17.1-17.1,17.1H137.5c-9.4,0-17.1-7.6-17.1-17.1V200.3c5.5-3.7,10.5-8.2,14.9-13.2l49,73.5
			c-39.8,40-39.7,104.8,0.2,144.7s104.7,39.9,144.7,0s40.1-104.6,0.2-144.7l49-73.5c4.4,5,9.4,9.4,14.9,13.2V435.2z M402.2,185.6
			c0.7-11.7,7.4-22.2,17.6-27.8c10.1,5.8,22.5,5.8,32.6,0c10.3,5.6,16.9,16.1,17.6,27.8C449.8,199.8,422.6,199.8,402.2,185.6z
			 M436.2,145.1c-9.4,0-17.1-7.6-17.1-17.1c0-9.4,7.6-17.1,17.1-17.1c9.4,0,17.1,7.6,17.1,17.1S445.6,145.1,436.2,145.1z
			 M484.6,171.3c-3.5-10.4-10.3-19.4-19.4-25.6c8.8-14.3,5.9-32.9-6.8-43.9s-31.6-10.9-44.4,0c-12.8,10.9-15.7,29.6-6.8,43.9
			c-9,6.2-15.8,15.2-19.4,25.6c-17.9-24.8-14.2-59,8.5-79.4s57.1-20.4,79.8,0C498.8,112.4,502.5,146.6,484.6,171.3z"/>
	</g>
</g>
</svg>
