<?xml version="1.0" encoding="utf-8"?>
<!-- Generator: Adobe Illustrator 25.4.1, SVG Export Plug-In . SVG Version: 6.00 Build 0)  -->
<svg version="1.1" id="Layer_1" xmlns="http://www.w3.org/2000/svg" xmlns:xlink="http://www.w3.org/1999/xlink" x="0px" y="0px"
	 viewBox="0 0 512 512" style="enable-background:new 0 0 512 512;" xml:space="preserve">
<style type="text/css">
	.st0{fill-rule:evenodd;clip-rule:evenodd;}
</style>
<path class="st0" d="M316,146.7c-9.4,0-20.5,2.2-33.2,6.6c-12.8,4.4-22,6.6-27.6,6.6c-4.4,0-13.2-1.9-26.6-5.8s-24.7-5.8-34.1-5.8
	c-22,0-40.3,9.3-54.7,27.8c-14.5,18.5-21.7,42.5-21.7,71.9c0.1,16.3,2.5,32.5,7.1,48.1c5.1,17,12.3,33.4,21.2,48.8
	c9.5,16.7,19.1,29.1,28.7,37.5c9.6,8.3,19.3,12.5,29.1,12.5c6.5,0,15-2.2,25.4-6.5c10.5-4.3,19.6-6.5,27.5-6.5
	c7.9,0,17.6,2.1,29,6.2c11.5,4.1,20.4,6.2,27,6.2c8.3,0,16.5-3.1,24.8-9.4c8.3-6.3,16.5-15.7,24.8-28.4c5.2-7.9,10-16.1,14.2-24.6
	c3.8-7.6,7-15.5,9.5-23.7c-11.4-3.4-21.5-11.5-30.4-24.2c-8.8-12.6-13.5-27.6-13.3-43c0-10.4,2.4-20.7,6.9-30.1
	c4.6-9.8,13.8-20.6,27.7-32.4c-8.9-11-18.3-19.1-28.2-24.1C338.8,149.1,327.5,146.5,316,146.7L316,146.7z M312.8,74.2
	c-22.4,5.1-38.5,14.6-48.2,28.5c-9.7,13.9-14.7,30.4-14.9,49.4c9.8-0.5,17.6-2.1,23.5-4.7c6.5-3,12.3-7.2,17.3-12.4
	c7.7-7.5,13.8-16.5,17.8-26.5c3.8-9.5,5.6-18.3,5.6-26.3c0-1.3-0.1-2.5-0.2-3.8C313.6,77,313.3,75.6,312.8,74.2L312.8,74.2z
	 M256,8.6c136.9,0,247.8,110.9,247.8,247.8c0,136.9-110.9,247.8-247.8,247.8S8.2,393.2,8.2,256.4C8.2,119.5,119.1,8.6,256,8.6
	L256,8.6z"/>
</svg>
