<?xml version="1.0" encoding="utf-8"?>
<!-- Generator: Adobe Illustrator 25.4.1, SVG Export Plug-In . SVG Version: 6.00 Build 0)  -->
<svg version="1.1" id="Layer_1" xmlns="http://www.w3.org/2000/svg" xmlns:xlink="http://www.w3.org/1999/xlink" x="0px" y="0px"
	 viewBox="0 0 512 512" style="enable-background:new 0 0 512 512;" xml:space="preserve">
<style type="text/css">
	.st0{fill-rule:evenodd;clip-rule:evenodd;}
</style>
<path class="st0" d="M256,8.6c136.9,0,247.8,110.9,247.8,247.8c0,136.9-110.9,247.8-247.8,247.8S8.2,393.2,8.2,256.4
	C8.2,119.5,119.1,8.6,256,8.6L256,8.6z M81,256c0-96.5,78.5-175,175-175c39,0,75.9,12.5,106.7,36.3L322,170.1
	c-19.1-14.7-41.9-22.4-66-22.4c-59.7,0-108.3,48.6-108.3,108.3S196.3,364.3,256,364.3c48.1,0,89-31.5,103.1-75H256v-66.7h175V256
	c0,96.5-78.5,175-175,175S81,352.5,81,256z"/>
</svg>
