<?xml version="1.0" encoding="utf-8"?>
<!-- Generator: Adobe Illustrator 25.4.1, SVG Export Plug-In . SVG Version: 6.00 Build 0)  -->
<svg version="1.1" id="Layer_1" xmlns="http://www.w3.org/2000/svg" xmlns:xlink="http://www.w3.org/1999/xlink" x="0px" y="0px"
	 viewBox="0 0 512 512" style="enable-background:new 0 0 512 512;" xml:space="preserve">
<style type="text/css">
	.st0{fill:#FFFFFF;}
</style>
<path class="st0" d="M25.6,341.3h119.5c14.1,0,25.6-11.5,25.6-25.6v-42.7h34.1c14.1,0,25.6-11.5,25.6-25.6v-85.3
	c0-4.7-3.8-8.5-8.5-8.5c-4.7,0-8.5,3.8-8.5,8.5v85.3c0,4.7-3.8,8.5-8.5,8.5h-34.1v-42.7c0-14.1-11.5-25.6-25.6-25.6H25.6
	C11.5,187.7,0,199.2,0,213.3v102.4C0,329.9,11.5,341.3,25.6,341.3z M17.1,213.3c0-4.7,3.8-8.5,8.5-8.5h119.5c4.7,0,8.5,3.8,8.5,8.5
	v102.4c0,4.7-3.8,8.5-8.5,8.5H25.6c-4.7,0-8.5-3.8-8.5-8.5V213.3z"/>
<path class="st0" d="M486.4,187.7H366.9c-14.1,0-25.6,11.5-25.6,25.6V256h-34.1c-4.7,0-8.5-3.8-8.5-8.5v-85.3c0-4.7-3.8-8.5-8.5-8.5
	c-4.7,0-8.5,3.8-8.5,8.5v85.3c0,14.1,11.5,25.6,25.6,25.6h34.1v42.7c0,14.1,11.5,25.6,25.6,25.6h119.5c14.1,0,25.6-11.5,25.6-25.6
	V213.3C512,199.2,500.5,187.7,486.4,187.7z M494.9,315.7c0,4.7-3.8,8.5-8.5,8.5H366.9c-4.7,0-8.5-3.8-8.5-8.5V213.3
	c0-4.7,3.8-8.5,8.5-8.5h119.5c4.7,0,8.5,3.8,8.5,8.5V315.7z"/>
<path class="st0" d="M256,153.6c-4.7,0-8.5,3.8-8.5,8.5v196.3h-51.2c-14.1,0-25.6,11.5-25.6,25.6v102.4c0,14.1,11.5,25.6,25.6,25.6
	h119.5c14.1,0,25.6-11.5,25.6-25.6V384c0-14.1-11.5-25.6-25.6-25.6h-51.2V162.1C264.5,157.4,260.7,153.6,256,153.6z M324.3,384
	v102.4c0,4.7-3.8,8.5-8.5,8.5H196.3c-4.7,0-8.5-3.8-8.5-8.5V384c0-4.7,3.8-8.5,8.5-8.5h119.5C320.4,375.5,324.3,379.3,324.3,384z"/>
<path class="st0" d="M42.7,358.4c-4.7,0-8.5,3.8-8.5,8.5V384c0,14.1,11.5,25.6,25.6,25.6h85.3c4.7,0,8.5-3.8,8.5-8.5
	c0-4.7-3.8-8.5-8.5-8.5H59.7c-4.7,0-8.5-3.8-8.5-8.5v-17.1C51.2,362.2,47.4,358.4,42.7,358.4z"/>
<path class="st0" d="M435.2,409.6c14.1,0,25.6-11.5,25.6-25.6v-17.1c0-4.7-3.8-8.5-8.5-8.5c-4.7,0-8.5,3.8-8.5,8.5V384
	c0,4.7-3.8,8.5-8.5,8.5h-68.3c-4.7,0-8.5,3.8-8.5,8.5c0,4.7,3.8,8.5,8.5,8.5H435.2z"/>
<path class="st0" d="M452.3,170.7c4.7,0,8.5-3.8,8.5-8.5V25.6c0-14.1-11.5-25.6-25.6-25.6H59.7C45.6,0,34.1,11.5,34.1,25.6v136.5
	c0,4.7,3.8,8.5,8.5,8.5c4.7,0,8.5-3.8,8.5-8.5V85.3h392.5v76.8C443.7,166.8,447.6,170.7,452.3,170.7z M51.2,68.3V25.6
	c0-4.7,3.8-8.5,8.5-8.5h375.5c4.7,0,8.5,3.8,8.5,8.5v42.7H51.2z"/>
<path class="st0" d="M85.3,42.7c0,4.7-3.8,8.5-8.5,8.5c-4.7,0-8.5-3.8-8.5-8.5c0-4.7,3.8-8.5,8.5-8.5C81.5,34.1,85.3,38,85.3,42.7z"
	/>
<path class="st0" d="M119.5,42.7c0,4.7-3.8,8.5-8.5,8.5c-4.7,0-8.5-3.8-8.5-8.5c0-4.7,3.8-8.5,8.5-8.5
	C115.6,34.1,119.5,38,119.5,42.7z"/>
<path class="st0" d="M153.6,42.7c0,4.7-3.8,8.5-8.5,8.5c-4.7,0-8.5-3.8-8.5-8.5c0-4.7,3.8-8.5,8.5-8.5
	C149.8,34.1,153.6,38,153.6,42.7z"/>
<path class="st0" d="M392.5,170.7c4.7,0,8.5-3.8,8.5-8.5V128c0-14.1-11.5-25.6-25.6-25.6H136.5c-14.1,0-25.6,11.5-25.6,25.6v34.1
	c0,4.7,3.8,8.5,8.5,8.5c4.7,0,8.5-3.8,8.5-8.5V128c0-4.7,3.8-8.5,8.5-8.5h238.9c4.7,0,8.5,3.8,8.5,8.5v34.1
	C384,166.8,387.8,170.7,392.5,170.7z"/>
<path class="st0" d="M249.2,395.9l-13.4,17.5l-24.3,5.4c-3,0.7-5.4,2.9-6.3,5.9c-0.9,3-0.1,6.2,2,8.4l15.2,15.7l-1.3,20
	c-0.2,2.8,1,5.6,3.3,7.3c2.2,1.7,5.2,2.3,7.9,1.4l23.7-7.7l23.7,7.7c2.7,0.9,5.6,0.4,7.9-1.4c2.2-1.7,3.5-4.5,3.3-7.3l-1.3-20
	l15.2-15.7c2.1-2.2,2.9-5.4,2-8.4c-0.9-3-3.3-5.2-6.3-5.9l-24.3-5.4l-13.4-17.5c-1.7-2-4.2-3.2-6.8-3.2S250.9,393.9,249.2,395.9z
	 M264.5,426.2c1.2,1.6,3,2.7,4.9,3.1l12.4,2.8l-7.3,7.5c-1.7,1.7-2.5,4.1-2.4,6.5l0.8,11.2l-14.4-4.7c-1.7-0.6-3.6-0.6-5.3,0
	l-14.4,4.7l0.7-11.2c0.2-2.4-0.7-4.8-2.4-6.5l-7.3-7.5l12.5-2.8c1.9-0.4,3.7-1.6,4.9-3.1l8.5-11.2L264.5,426.2z"/>
<path class="st0" d="M447.8,261.8c7.3-10.7,5.4-25.1-4.2-33.6s-24.2-8.5-33.9,0c-9.7,8.5-11.5,22.9-4.2,33.6
	c-13.2,7.5-21.5,21.6-21.5,36.8c0,4.7,3.8,8.5,8.5,8.5h68.3c4.7,0,8.5-3.8,8.5-8.5C469.3,283.4,461.1,269.4,447.8,261.8z
	 M418.1,247.5c0-4.7,3.8-8.5,8.5-8.5c4.7,0,8.5,3.8,8.5,8.5c0,4.7-3.8,8.5-8.5,8.5C422,256,418.1,252.2,418.1,247.5z M402.5,290.1
	c3.6-10.2,13.3-17.1,24.1-17.1c10.9,0,20.5,6.8,24.1,17.1H402.5z"/>
<path class="st0" d="M42.7,238.9H128c4.7,0,8.5-3.8,8.5-8.5c0-4.7-3.8-8.5-8.5-8.5H42.7c-4.7,0-8.5,3.8-8.5,8.5
	C34.1,235.1,38,238.9,42.7,238.9z"/>
<path class="st0" d="M42.7,273.1H128c4.7,0,8.5-3.8,8.5-8.5c0-4.7-3.8-8.5-8.5-8.5H42.7c-4.7,0-8.5,3.8-8.5,8.5
	C34.1,269.2,38,273.1,42.7,273.1z"/>
<path class="st0" d="M42.7,307.2H128c4.7,0,8.5-3.8,8.5-8.5c0-4.7-3.8-8.5-8.5-8.5H42.7c-4.7,0-8.5,3.8-8.5,8.5
	C34.1,303.4,38,307.2,42.7,307.2z"/>
</svg>
