<?xml version="1.0" encoding="utf-8"?>
<!-- Generator: Adobe Illustrator 24.3.0, SVG Export Plug-In . SVG Version: 6.00 Build 0)  -->
<svg version="1.1" id="Capa_1" xmlns="http://www.w3.org/2000/svg" xmlns:xlink="http://www.w3.org/1999/xlink" x="0px" y="0px"
	 viewBox="0 0 512 512" style="enable-background:new 0 0 512 512;" xml:space="preserve">
<style type="text/css">
	.st0{fill:#FFFFFF;}
</style>
<g>
	<g>
		<g>
			<path class="st0" d="M324,245.2c-0.8-3-3.1-5.3-6.1-6.1s-6.1,0.1-8.3,2.3l-11,11l-11-11c-3.3-3.3-8.7-3.3-12,0.1
				c-3.3,3.3-3.3,8.7-0.1,12l11,11l-11,11c-2.2,2.2-3,5.3-2.3,8.3c0.8,3,3.1,5.3,6.1,6.1c3,0.8,6.1-0.1,8.3-2.3l11-11l11,11
				c3.3,3.3,8.7,3.3,12,0c3.3-3.3,3.3-8.7,0-12l-11-11l11-11C323.9,251.4,324.8,248.2,324,245.2z"/>
			<path class="st0" d="M145.1,187.7c0,2.3,0.9,4.4,2.5,6c1.6,1.6,3.8,2.5,6,2.5s4.4-0.9,6-2.5l11-11l11,11c3.3,3.3,8.7,3.3,12,0
				s3.3-8.7,0-12l-11-11l11-11c3.3-3.3,3.3-8.7,0-12c-3.3-3.3-8.7-3.3-12,0l-11,11l-11-11c-3.3-3.3-8.7-3.3-12,0
				c-3.3,3.3-3.3,8.7,0,12l11,11l-11,11C146,183.3,145.1,185.5,145.1,187.7z"/>
			<path class="st0" d="M290.3,180.6c1.2,3.5,4.4,5.8,8.1,5.8c0.9,0,1.9-0.2,2.8-0.5c4.5-1.5,6.8-6.4,5.3-10.8l-8.3-24.2
				c-0.1-0.2-0.2-0.3-0.3-0.5c-0.2-0.5-0.5-1-0.9-1.5c-0.9-1.1-2-2.1-3.2-2.9c-0.2-0.1-0.4-0.1-0.6-0.2c-0.2-0.1-0.3-0.2-0.5-0.3
				c-0.3-0.1-0.7-0.1-1.1-0.1c-0.6-0.1-1.1-0.2-1.7-0.2c-0.6,0-1.2,0.1-1.7,0.2c-0.3,0-0.7,0.1-1,0.1l-24.2,8.3
				c-4.5,1.5-6.8,6.4-5.3,10.8s6.4,6.8,10.8,5.3l4.1-1.4c-14.4,22-36.4,38.1-61.8,45.1c-65.2,18.6-65.9,92.8-65.9,93.5
				c0,2.3,0.9,4.4,2.5,6c1.6,1.6,3.8,2.5,6,2.5c2.3,0,4.4-0.9,6-2.5c1.6-1.6,2.5-3.8,2.5-6c0-0.6,0.6-62,53.5-77.1
				c30.3-8.4,56.3-27.8,73-54.5L290.3,180.6z"/>
			<path class="st0" d="M388.7,78.3c-3.9-2.6-9.2-1.6-11.8,2.3l-28.4,42.5l-9.7-9.7c-3.3-3.3-8.7-3.3-12,0.1s-3.3,8.7-0.1,12
				l17.1,17.1c1.6,1.6,3.8,2.5,6,2.5c0.3,0,0.6,0,0.8,0c2.5-0.3,4.8-1.6,6.3-3.8l34.1-51.2C393.7,86.1,392.6,80.9,388.7,78.3z"/>
			<path class="st0" d="M452.3,91.8V51.2h8.5c14.1,0,25.6-11.5,25.6-25.6S474.9,0,460.8,0H51.2C37.1,0,25.6,11.5,25.6,25.6
				s11.5,25.6,25.6,25.6h8.5v40.6C11.6,149.2-9,225,3.6,298.9c12.6,73.9,57,138.6,121.5,177c0.1,0.1,0.2,0.3,0.3,0.3
				c0.5,0.3,1,0.5,1.5,0.7c9.9,5.8,20.2,11,30.9,15.4c0.4,0.2,0.9,0.4,1.3,0.5c62.1,25.5,131.7,25.5,193.7,0
				c0.4-0.1,0.9-0.3,1.3-0.5c10.6-4.4,20.9-9.6,30.9-15.4c0.5-0.2,1-0.4,1.5-0.7c0.1-0.1,0.2-0.2,0.3-0.3
				c64.5-38.3,108.9-103,121.5-177S500.4,149.2,452.3,91.8z M51.2,34.1c-4.7,0-8.5-3.8-8.5-8.5c0-4.7,3.8-8.5,8.5-8.5h409.6
				c4.7,0,8.5,3.8,8.5,8.5s-3.8,8.5-8.5,8.5H51.2z M85.3,341.3c-4.7,0-8.5-3.8-8.5-8.5V51.2h358.4v281.6c0,4.7-3.8,8.5-8.5,8.5H85.3
				z M315.7,358.4v17.1c0,4.7-3.8,8.5-8.5,8.5H204.8c-4.7,0-8.5-3.8-8.5-8.5v-17.1H315.7z M17.1,256c0-48.6,14.9-96.1,42.7-136
				v212.8c0,14.1,11.5,25.6,25.6,25.6h93.9v17.1c0,1.8,0.2,3.5,0.6,5.2l-51.9,76.8C58.9,413.7,17.1,337.7,17.1,256z M158.3,474
				c-5.3-2.4-10.6-5-15.8-7.7l47.4-70c4.3,3.2,9.6,4.9,14.9,4.9h3.1L158.3,474z M230.4,493.5c-19.1-2-37.9-6.4-56-13l54.1-79.5h1.9
				L230.4,493.5L230.4,493.5z M264.5,494.7c-2.8,0.1-5.7,0.2-8.5,0.2s-5.7-0.1-8.5-0.2v-93.6h17.1L264.5,494.7L264.5,494.7z
				 M281.6,493.5v-92.5h1.9l54.1,79.5C319.5,487.2,300.7,491.5,281.6,493.5z M353.7,474l-49.6-72.9h3.1c5.4,0,10.6-1.7,14.9-4.9
				l47.4,70C364.4,469,359.1,471.5,353.7,474z M384.2,457.5l-51.9-76.8c0.4-1.7,0.5-3.5,0.5-5.2v-17.1h93.9
				c14.1,0,25.6-11.5,25.6-25.6V120c27.7,39.9,42.6,87.4,42.7,136C494.9,337.7,453.1,413.7,384.2,457.5z"/>
		</g>
	</g>
</g>
</svg>
