<?xml version="1.0" encoding="utf-8"?>
<!-- Generator: Adobe Illustrator 26.2.1, SVG Export Plug-In . SVG Version: 6.00 Build 0)  -->
<svg version="1.1" id="a" xmlns="http://www.w3.org/2000/svg" xmlns:xlink="http://www.w3.org/1999/xlink" x="0px" y="0px"
	 viewBox="0 0 852.9 966.5" enable-background="new 0 0 852.9 966.5" xml:space="preserve">
<path fill="#FFFFFF" d="M149.6,331.9C106.5,389.8,77.7,461.5,77.7,539c0,191.7,162.9,347.6,354.5,347.6v77.7
	C197.7,964.3,0,773.5,0,539c0-128.9,57.6-244.6,148.5-322.6L149.6,331.9L149.6,331.9z"/>
<path fill="#FFFFFF" d="M703.7,631.1c43-57.7,71.7-129.2,71.7-206.6c0-191.1-152-346.7-343.2-346.7V0.4
	c233.9,0,420.7,190.3,420.7,424.1c0,128.6-57.5,243.9-148.1,321.8L703.7,631.1L703.7,631.1z"/>
<g id="b">
	<g id="c">
		<path fill="#FFFFFF" d="M633.5,420.4L225.1,11.9c-17.5-16.5-45-15.7-61.5,1.8c-15.8,16.7-15.8,42.9-0.1,59.7L633.1,543
			L633.5,420.4L633.5,420.4z"/>
		<polygon fill="#FFFFFF" points="634.5,628.3 220.6,214.4 220.1,337.4 633.1,750.4 		"/>
		<path fill="#FFFFFF" d="M220.1,544.7l408.5,408.5c18,18.7,48.7,17.7,65.5-3.3c7.6-9.5,10.7-22,8.7-34c-1.7-9.7-6.2-17.9-12.6-24.2
			L220.6,422.1L220.1,544.7z"/>
	</g>
</g>
</svg>
