<?xml version="1.0" encoding="utf-8"?>
<!-- Generator: Adobe Illustrator 24.3.0, SVG Export Plug-In . SVG Version: 6.00 Build 0)  -->
<svg version="1.1" id="Layer_1" xmlns="http://www.w3.org/2000/svg" xmlns:xlink="http://www.w3.org/1999/xlink" x="0px" y="0px"
	 viewBox="0 0 512 512" style="enable-background:new 0 0 512 512;" xml:space="preserve">
<style type="text/css">
	.st0{fill:url(#Shape_4_);}
	.st1{fill:url(#Shape_5_);}
	.st2{fill:url(#Shape_6_);}
	.st3{fill:url(#Shape_7_);}
</style>
<desc>Created with Sketch.</desc>
<g id="Page-1">
	<g id="_x30_01---Accessibility">
		<linearGradient id="Shape_4_" gradientUnits="userSpaceOnUse" x1="75.0769" y1="75.0231" x2="437.1155" y2="437.0618">
			<stop  offset="0" style="stop-color:#0F8FCE"/>
			<stop  offset="1" style="stop-color:#095A81"/>
		</linearGradient>
		<path id="Shape" class="st0" d="M256.1,0C114.8,0,0.1,114.6,0.1,256s114.6,256,256,256s256-114.6,256-256
			C512,114.7,397.5,0.2,256.1,0z M256.1,494.9c-132,0-238.9-107-238.9-238.9s107-238.9,238.9-238.9S495.1,124,495.1,256
			C494.9,387.9,388,494.8,256.1,494.9z"/>
		<linearGradient id="Shape_5_" gradientUnits="userSpaceOnUse" x1="99.2178" y1="99.154" x2="412.9846" y2="412.9209">
			<stop  offset="0" style="stop-color:#0F8FCE"/>
			<stop  offset="1" style="stop-color:#095A81"/>
		</linearGradient>
		<path id="Shape_1_" class="st1" d="M256.1,34.1C133.6,34.1,34.3,133.5,34.3,256s99.3,221.9,221.9,221.9S478,378.5,478,256
			C477.9,133.5,378.6,34.3,256.1,34.1z M256.1,460.8C143,460.8,51.3,369.1,51.3,256S143,51.2,256.1,51.2S460.9,142.9,460.9,256
			C460.8,369.1,369.2,460.7,256.1,460.8z"/>
		<linearGradient id="Shape_6_" gradientUnits="userSpaceOnUse" x1="219.9422" y1="91.7887" x2="292.35" y2="164.1964">
			<stop  offset="0" style="stop-color:#0F8FCE"/>
			<stop  offset="1" style="stop-color:#095A81"/>
		</linearGradient>
		<path id="Shape_2_" class="st2" d="M256.1,179.2c28.3,0,51.2-22.9,51.2-51.2s-22.9-51.2-51.2-51.2s-51.2,22.9-51.2,51.2
			C205,156.3,227.9,179.2,256.1,179.2z M256.1,93.9c18.9,0,34.1,15.3,34.1,34.1c0,18.9-15.3,34.1-34.1,34.1
			c-18.9,0-34.1-15.3-34.1-34.1C222,109.1,237.3,93.9,256.1,93.9z"/>
		<linearGradient id="Shape_7_" gradientUnits="userSpaceOnUse" x1="145.2331" y1="167.174" x2="366.8556" y2="388.7965">
			<stop  offset="0" style="stop-color:#0F8FCE"/>
			<stop  offset="1" style="stop-color:#095A81"/>
		</linearGradient>
		<path id="Shape_3_" class="st3" d="M375,187.8h-0.1l-89.6,8c-3.1,0.3-6.1,0.4-9.2,0.4h-39.9c-3.1,0-6.1-0.1-9.2-0.4l-89.8-8.1
			c-14.1-1.1-26.4,9.4-27.5,23.5c-1.1,14.1,9.4,26.4,23.5,27.5l72.4,6.6c4.4,0.4,7.8,4.1,7.8,8.5v19.6c0,4.3-0.8,8.5-2.4,12.5
			l-41.1,104.6c-5.7,12.9,0.1,28.1,13.1,33.8s28.1-0.1,33.8-13.1l39.1-95.7l39.5,95.9c5.9,12.6,20.8,18.2,33.5,12.6
			c12.7-5.6,18.7-20.4,13.3-33.2l-41.2-105c-1.6-4-2.4-8.2-2.4-12.5v-19.6c0-4.4,3.4-8.1,7.8-8.5l72.3-6.6
			c14.1-1.1,24.7-13.4,23.6-27.5C401.4,197.3,389.1,186.7,375,187.8L375,187.8z M377.4,221.9l-72.4,6.6
			c-13.2,1.1-23.3,12.2-23.3,25.5v19.6c0,6.4,1.2,12.8,3.5,18.7l41.4,105.3c2,4.3,0.2,9.3-4.1,11.4c-4.3,2-9.3,0.2-11.4-4.1
			l-39.4-95.7c-2.6-6.3-8.8-10.5-15.6-10.5s-13,4.1-15.6,10.5l-39.3,95.4c-1.2,2.9-3.9,4.9-7.1,5.2c-3.1,0.3-6.2-1.2-7.9-3.8
			c-1.7-2.6-1.9-6-0.4-8.8l41.2-105c2.3-6,3.5-12.3,3.5-18.7v-19.6c0.1-13.3-10.1-24.4-23.3-25.5l-72.5-6.5
			c-4.7-0.3-8.3-4.4-7.9-9.1c0.3-4.7,4.4-8.3,9.1-7.9l89.6,8c3.5,0.3,7.1,0.5,10.7,0.5h39.9c3.6,0,7.1-0.2,10.7-0.5l89.6-8
			c2.3-0.2,4.5,0.6,6.2,2c1.7,1.5,2.8,3.6,2.9,5.8c0.2,2.3-0.6,4.5-2.1,6.3C381.9,220.7,379.7,221.7,377.4,221.9z"/>
	</g>
</g>
</svg>
