<?xml version="1.0" encoding="utf-8"?>
<!-- Generator: Adobe Illustrator 24.3.0, SVG Export Plug-In . SVG Version: 6.00 Build 0)  -->
<svg version="1.1" id="Layer_1" xmlns="http://www.w3.org/2000/svg" xmlns:xlink="http://www.w3.org/1999/xlink" x="0px" y="0px"
	 viewBox="0 0 512 512" style="enable-background:new 0 0 512 512;" xml:space="preserve">
<style type="text/css">
	.st0{fill:url(#SVGID_1_);}
	.st1{fill:url(#SVGID_2_);}
	.st2{fill:url(#SVGID_3_);}
	.st3{fill:url(#SVGID_4_);}
	.st4{fill:url(#SVGID_5_);}
	.st5{fill:url(#SVGID_6_);}
	.st6{fill:url(#SVGID_7_);}
	.st7{fill:url(#SVGID_8_);}
	.st8{fill:url(#SVGID_9_);}
	.st9{fill:url(#SVGID_10_);}
	.st10{fill:url(#SVGID_11_);}
	.st11{fill:url(#SVGID_12_);}
	.st12{fill:url(#SVGID_13_);}
</style>
<linearGradient id="SVGID_1_" gradientUnits="userSpaceOnUse" x1="17.3633" y1="17.8301" x2="494.6367" y2="495.1035">
	<stop  offset="0" style="stop-color:#0F8FCE"/>
	<stop  offset="1" style="stop-color:#095A81"/>
</linearGradient>
<path class="st0" d="M467.3,9H44.7C20,9,0,29,0,53.7v405.6c0,24.6,20,44.6,44.7,44.7h422.7c24.6,0,44.6-20,44.7-44.7V53.7
	C512,29,492,9,467.3,9z M44.7,26.1h422.7c15.2,0,27.6,12.4,27.6,27.6v57.7H17.1V53.7C17.1,38.4,29.4,26.1,44.7,26.1z M467.3,486.9
	H44.7c-15.2,0-27.6-12.4-27.6-27.6V128.5h477.9v330.8C494.9,474.5,482.6,486.8,467.3,486.9z"/>
<linearGradient id="SVGID_2_" gradientUnits="userSpaceOnUse" x1="41.6309" y1="50.6309" x2="77.8345" y2="86.8345">
	<stop  offset="0" style="stop-color:#0F8FCE"/>
	<stop  offset="1" style="stop-color:#095A81"/>
</linearGradient>
<path class="st1" d="M59.7,94.3c14.1,0,25.6-11.5,25.6-25.6c0-14.1-11.5-25.6-25.6-25.6c-14.1,0-25.6,11.5-25.6,25.6
	C34.1,82.9,45.6,94.3,59.7,94.3z M59.7,60.2c4.7,0,8.5,3.8,8.5,8.5c0,4.7-3.8,8.5-8.5,8.5c-4.7,0-8.5-3.8-8.5-8.5
	C51.2,64,55,60.2,59.7,60.2z"/>
<linearGradient id="SVGID_3_" gradientUnits="userSpaceOnUse" x1="109.8981" y1="50.6307" x2="146.1019" y2="86.8346">
	<stop  offset="0" style="stop-color:#0F8FCE"/>
	<stop  offset="1" style="stop-color:#095A81"/>
</linearGradient>
<path class="st2" d="M128,94.3c14.1,0,25.6-11.5,25.6-25.6c0-14.1-11.5-25.6-25.6-25.6s-25.6,11.5-25.6,25.6
	C102.4,82.9,113.9,94.3,128,94.3z M128,60.2c4.7,0,8.5,3.8,8.5,8.5c0,4.7-3.8,8.5-8.5,8.5s-8.5-3.8-8.5-8.5
	C119.5,64,123.3,60.2,128,60.2z"/>
<linearGradient id="SVGID_4_" gradientUnits="userSpaceOnUse" x1="178.1655" y1="50.6309" x2="214.3691" y2="86.8345">
	<stop  offset="0" style="stop-color:#0F8FCE"/>
	<stop  offset="1" style="stop-color:#095A81"/>
</linearGradient>
<path class="st3" d="M196.3,94.3c14.1,0,25.6-11.5,25.6-25.6c0-14.1-11.5-25.6-25.6-25.6c-14.1,0-25.6,11.5-25.6,25.6
	C170.7,82.9,182.1,94.3,196.3,94.3z M196.3,60.2c4.7,0,8.5,3.8,8.5,8.5c0,4.7-3.8,8.5-8.5,8.5c-4.7,0-8.5-3.8-8.5-8.5
	C187.7,64,191.6,60.2,196.3,60.2z"/>
<linearGradient id="SVGID_5_" gradientUnits="userSpaceOnUse" x1="423.1313" y1="48.1313" x2="464.3335" y2="89.3335">
	<stop  offset="0" style="stop-color:#0F8FCE"/>
	<stop  offset="1" style="stop-color:#095A81"/>
</linearGradient>
<path class="st4" d="M435.2,94.3h17.1c9.4,0,17.1-7.6,17.1-17.1V60.2c0-9.4-7.6-17.1-17.1-17.1h-17.1c-9.4,0-17.1,7.6-17.1,17.1
	v17.1C418.1,86.7,425.8,94.3,435.2,94.3z M435.2,60.2h17.1v17.1h-17.1V60.2z"/>
<linearGradient id="SVGID_6_" gradientUnits="userSpaceOnUse" x1="38.1277" y1="155.0706" x2="230.4319" y2="347.3748">
	<stop  offset="0" style="stop-color:#0F8FCE"/>
	<stop  offset="1" style="stop-color:#095A81"/>
</linearGradient>
<path class="st5" d="M131.8,324.7h26.6c-3.1,5.2-4.7,11.1-4.7,17.1c0,18.9,15.3,34.1,34.1,34.1s34.1-15.3,34.1-34.1
	c0-6-1.7-11.9-4.7-17.1h4.7c4.7,0,8.5-3.8,8.5-8.5c0-4.7-3.8-8.5-8.5-8.5H85.3c-2.3,0-4.6-1-6.2-2.7s-2.5-4-2.4-6.3l-0.5-8h137.1
	c3.8,0,7.1-2.5,8.2-6.1l25.6-85.3c0.8-2.6,0.3-5.4-1.3-7.5c-1.6-2.2-4.1-3.4-6.8-3.4H69.9l-1.6-26.1c-0.3-4.5-4-8-8.5-8H42.7
	c-4.7,0-8.5,3.8-8.5,8.5c0,4.7,3.8,8.5,8.5,8.5h9.1l8,128c0,9.9,5.8,18.9,14.8,23.1c-9.9,13.9-8.1,32.9,4.3,44.7
	c12.4,11.7,31.5,12.6,44.8,2C137,358.3,140.5,339.4,131.8,324.7z M204.8,341.8c0,9.4-7.6,17.1-17.1,17.1s-17.1-7.6-17.1-17.1
	s7.6-17.1,17.1-17.1S204.8,332.4,204.8,341.8z M227.5,205.3l-5.1,17.1H119.5c-4.7,0-8.5,3.8-8.5,8.5c0,4.7,3.8,8.5,8.5,8.5h97.8
	L207,273.5H75.2l-4.3-68.3H227.5z M102.4,358.9c-9.4,0-17.1-7.6-17.1-17.1s7.6-17.1,17.1-17.1s17.1,7.6,17.1,17.1
	S111.8,358.9,102.4,358.9z"/>
<linearGradient id="SVGID_7_" gradientUnits="userSpaceOnUse" x1="280.5646" y1="170.0978" x2="316.7688" y2="206.302">
	<stop  offset="0" style="stop-color:#0F8FCE"/>
	<stop  offset="1" style="stop-color:#095A81"/>
</linearGradient>
<path class="st6" d="M298.7,213.8c10.4,0,19.7-6.2,23.6-15.8c4-9.6,1.8-20.6-5.5-27.9c-7.3-7.3-18.3-9.5-27.9-5.6
	c-9.6,4-15.8,13.3-15.8,23.7C273.1,202.3,284.5,213.8,298.7,213.8z M298.7,179.7c4.7,0,8.5,3.8,8.5,8.5c0,4.7-3.8,8.5-8.5,8.5
	c-4.7,0-8.5-3.8-8.5-8.5C290.1,183.5,294,179.7,298.7,179.7z"/>
<linearGradient id="SVGID_8_" gradientUnits="userSpaceOnUse" x1="371.5649" y1="154.4336" x2="439.0996" y2="221.9683">
	<stop  offset="0" style="stop-color:#0F8FCE"/>
	<stop  offset="1" style="stop-color:#095A81"/>
</linearGradient>
<path class="st7" d="M460.8,179.7H349.9c-4.7,0-8.5,3.8-8.5,8.5c0,4.7,3.8,8.5,8.5,8.5h110.9c4.7,0,8.5-3.8,8.5-8.5
	C469.3,183.5,465.5,179.7,460.8,179.7z"/>
<linearGradient id="SVGID_9_" gradientUnits="userSpaceOnUse" x1="280.5645" y1="238.3647" x2="316.7681" y2="274.5684">
	<stop  offset="0" style="stop-color:#0F8FCE"/>
	<stop  offset="1" style="stop-color:#095A81"/>
</linearGradient>
<path class="st8" d="M298.7,282.1c14.1,0,25.6-11.5,25.6-25.6c0-14.1-11.5-25.6-25.6-25.6c-14.1,0-25.6,11.5-25.6,25.6
	C273.1,270.6,284.5,282.1,298.7,282.1z M298.7,247.9c4.7,0,8.5,3.8,8.5,8.5c0,4.7-3.8,8.5-8.5,8.5c-4.7,0-8.5-3.8-8.5-8.5
	C290.1,251.8,294,247.9,298.7,247.9z"/>
<linearGradient id="SVGID_10_" gradientUnits="userSpaceOnUse" x1="371.5649" y1="222.6992" x2="439.0996" y2="290.2339">
	<stop  offset="0" style="stop-color:#0F8FCE"/>
	<stop  offset="1" style="stop-color:#095A81"/>
</linearGradient>
<path class="st9" d="M460.8,247.9H349.9c-4.7,0-8.5,3.8-8.5,8.5c0,4.7,3.8,8.5,8.5,8.5h110.9c4.7,0,8.5-3.8,8.5-8.5
	C469.3,251.8,465.5,247.9,460.8,247.9z"/>
<linearGradient id="SVGID_11_" gradientUnits="userSpaceOnUse" x1="280.5645" y1="306.6309" x2="316.7681" y2="342.8345">
	<stop  offset="0" style="stop-color:#0F8FCE"/>
	<stop  offset="1" style="stop-color:#095A81"/>
</linearGradient>
<path class="st10" d="M298.7,350.3c14.1,0,25.6-11.5,25.6-25.6c0-14.1-11.5-25.6-25.6-25.6c-14.1,0-25.6,11.5-25.6,25.6
	C273.1,338.9,284.5,350.3,298.7,350.3z M298.7,316.2c4.7,0,8.5,3.8,8.5,8.5c0,4.7-3.8,8.5-8.5,8.5c-4.7,0-8.5-3.8-8.5-8.5
	C290.1,320,294,316.2,298.7,316.2z"/>
<linearGradient id="SVGID_12_" gradientUnits="userSpaceOnUse" x1="371.5649" y1="290.9653" x2="439.0996" y2="358.5">
	<stop  offset="0" style="stop-color:#0F8FCE"/>
	<stop  offset="1" style="stop-color:#095A81"/>
</linearGradient>
<path class="st11" d="M460.8,316.2H349.9c-4.7,0-8.5,3.8-8.5,8.5c0,4.7,3.8,8.5,8.5,8.5h110.9c4.7,0,8.5-3.8,8.5-8.5
	C469.3,320,465.5,316.2,460.8,316.2z"/>
<linearGradient id="SVGID_13_" gradientUnits="userSpaceOnUse" x1="184.9307" y1="364.5986" x2="327.0693" y2="506.7373">
	<stop  offset="0" style="stop-color:#0F8FCE"/>
	<stop  offset="1" style="stop-color:#095A81"/>
</linearGradient>
<path class="st12" d="M349.9,401.5H162.1c-18.9,0-34.1,15.3-34.1,34.1s15.3,34.1,34.1,34.1h187.7c18.9,0,34.1-15.3,34.1-34.1
	S368.7,401.5,349.9,401.5z M349.9,452.7H162.1c-9.4,0-17.1-7.6-17.1-17.1s7.6-17.1,17.1-17.1h187.7c9.4,0,17.1,7.6,17.1,17.1
	S359.3,452.7,349.9,452.7z"/>
</svg>
