<?xml version="1.0" encoding="utf-8"?>
<!-- Generator: Adobe Illustrator 25.4.1, SVG Export Plug-In . SVG Version: 6.00 Build 0)  -->
<svg version="1.1" id="Capa_1" xmlns="http://www.w3.org/2000/svg" xmlns:xlink="http://www.w3.org/1999/xlink" x="0px" y="0px"
	 viewBox="0 0 512 512" style="enable-background:new 0 0 512 512;" xml:space="preserve">
<style type="text/css">
	.st0{fill:url(#Shape_00000045584255693197885550000011621658487315311516_);}
	.st1{fill:url(#Shape_00000127757064783307610160000007349285659075279513_);}
	.st2{fill:url(#Shape_00000114056803066252334880000004281803067907738802_);}
	.st3{fill:url(#Shape_00000164500584666689911680000004673237892457003938_);}
	.st4{fill:url(#Shape_00000126306836876787500120000013143170363349576637_);}
	.st5{fill:url(#Shape_00000045609878784908617430000000289802602297527938_);}
	.st6{fill:url(#Shape_00000113350104337549025450000011310942568652810153_);}
	.st7{fill:url(#Shape_00000104671993325969980480000001344243801812860340_);}
	.st8{fill:url(#Shape_00000095321817000247717430000004257665539033329587_);}
	.st9{fill-rule:evenodd;clip-rule:evenodd;fill:url(#Path_00000076581868217277582630000006718831189433348756_);}
	.st10{fill-rule:evenodd;clip-rule:evenodd;fill:url(#Path_00000120517157677301858110000000021347315266773911_);}
	.st11{fill-rule:evenodd;clip-rule:evenodd;fill:url(#Path_00000065753851949681294210000010699539046197893293_);}
</style>
<g>
	<g id="Page-1_2_">
		<g id="_x30_03---Layout">
			
				<linearGradient id="Shape_00000127036927262749541010000000592106621749782159_" gradientUnits="userSpaceOnUse" x1="-1.907349e-05" y1="256" x2="512" y2="256">
				<stop  offset="0" style="stop-color:#0F8FCE"/>
				<stop  offset="1" style="stop-color:#095A81"/>
			</linearGradient>
			<path id="Shape_15_" style="fill:url(#Shape_00000127036927262749541010000000592106621749782159_);" d="M460.8,0H51.2
				C22.9,0,0,22.9,0,51.2v409.6C0,489.1,22.9,512,51.2,512h409.6c28.3,0,51.2-22.9,51.2-51.2V51.2C512,22.9,489.1,0,460.8,0L460.8,0
				z M51.2,17.1h409.6c18.9,0,34.1,15.3,34.1,34.1v51.2H17.1V51.2C17.1,32.3,32.3,17.1,51.2,17.1z M460.8,494.9H51.2
				c-18.9,0-34.1-15.3-34.1-34.1V119.5h477.9v341.3C494.9,479.7,479.7,494.9,460.8,494.9z"/>
			
				<linearGradient id="Shape_00000126323837558544617230000002649216262793252243_" gradientUnits="userSpaceOnUse" x1="34.133" y1="59.733" x2="85.333" y2="59.733">
				<stop  offset="0" style="stop-color:#0F8FCE"/>
				<stop  offset="1" style="stop-color:#095A81"/>
			</linearGradient>
			<path id="Shape_14_" style="fill:url(#Shape_00000126323837558544617230000002649216262793252243_);" d="M59.7,85.3
				c14.1,0,25.6-11.5,25.6-25.6S73.9,34.1,59.7,34.1S34.1,45.6,34.1,59.7S45.6,85.3,59.7,85.3z M59.7,51.2c4.7,0,8.5,3.8,8.5,8.5
				s-3.8,8.5-8.5,8.5s-8.5-3.8-8.5-8.5S55,51.2,59.7,51.2z"/>
			
				<linearGradient id="Shape_00000041283743914996406410000007016115645416328837_" gradientUnits="userSpaceOnUse" x1="102.4" y1="59.733" x2="153.6" y2="59.733">
				<stop  offset="0" style="stop-color:#0F8FCE"/>
				<stop  offset="1" style="stop-color:#095A81"/>
			</linearGradient>
			<path id="Shape_13_" style="fill:url(#Shape_00000041283743914996406410000007016115645416328837_);" d="M128,85.3
				c14.1,0,25.6-11.5,25.6-25.6S142.1,34.1,128,34.1s-25.6,11.5-25.6,25.6S113.9,85.3,128,85.3z M128,51.2c4.7,0,8.5,3.8,8.5,8.5
				s-3.8,8.5-8.5,8.5c-4.7,0-8.5-3.8-8.5-8.5S123.3,51.2,128,51.2z"/>
			
				<linearGradient id="Shape_00000005262275239358663280000017105975006050864274_" gradientUnits="userSpaceOnUse" x1="170.667" y1="59.733" x2="221.867" y2="59.733">
				<stop  offset="0" style="stop-color:#0F8FCE"/>
				<stop  offset="1" style="stop-color:#095A81"/>
			</linearGradient>
			<path id="Shape_12_" style="fill:url(#Shape_00000005262275239358663280000017105975006050864274_);" d="M196.3,85.3
				c14.1,0,25.6-11.5,25.6-25.6s-11.5-25.6-25.6-25.6s-25.6,11.5-25.6,25.6S182.1,85.3,196.3,85.3z M196.3,51.2
				c4.7,0,8.5,3.8,8.5,8.5s-3.8,8.5-8.5,8.5s-8.5-3.8-8.5-8.5S191.6,51.2,196.3,51.2z"/>
			
				<linearGradient id="Shape_00000000224704304785711870000011420283005088773042_" gradientUnits="userSpaceOnUse" x1="341.333" y1="59.733" x2="477.866" y2="59.733">
				<stop  offset="0" style="stop-color:#0F8FCE"/>
				<stop  offset="1" style="stop-color:#095A81"/>
			</linearGradient>
			<path id="Shape_11_" style="fill:url(#Shape_00000000224704304785711870000011420283005088773042_);" d="M366.9,85.3h85.3
				c14.1,0,25.6-11.5,25.6-25.6s-11.5-25.6-25.6-25.6h-85.3c-14.1,0-25.6,11.5-25.6,25.6S352.8,85.3,366.9,85.3z M366.9,51.2h85.3
				c4.7,0,8.5,3.8,8.5,8.5s-3.8,8.5-8.5,8.5h-85.3c-4.7,0-8.5-3.8-8.5-8.5S362.2,51.2,366.9,51.2z"/>
			
				<linearGradient id="Shape_00000175313587890588075450000012917154669003134391_" gradientUnits="userSpaceOnUse" x1="34.133" y1="213.3335" x2="477.866" y2="213.3335">
				<stop  offset="0" style="stop-color:#0F8FCE"/>
				<stop  offset="1" style="stop-color:#095A81"/>
			</linearGradient>
			<path id="Shape_10_" style="fill:url(#Shape_00000175313587890588075450000012917154669003134391_);" d="M452.3,145.1H59.7
				c-14.1,0-25.6,11.5-25.6,25.6V256c0,14.1,11.5,25.6,25.6,25.6h392.5c14.1,0,25.6-11.5,25.6-25.6v-85.3
				C477.9,156.5,466.4,145.1,452.3,145.1L452.3,145.1z M460.8,256c0,4.7-3.8,8.5-8.5,8.5H59.7c-4.7,0-8.5-3.8-8.5-8.5v-85.3
				c0-4.7,3.8-8.5,8.5-8.5h392.5c4.7,0,8.5,3.8,8.5,8.5L460.8,256L460.8,256z"/>
			
				<linearGradient id="Shape_00000165231252482055234360000013979280008648699018_" gradientUnits="userSpaceOnUse" x1="34.133" y1="366.9335" x2="170.666" y2="366.9335">
				<stop  offset="0" style="stop-color:#0F8FCE"/>
				<stop  offset="1" style="stop-color:#095A81"/>
			</linearGradient>
			<path id="Shape_9_" style="fill:url(#Shape_00000165231252482055234360000013979280008648699018_);" d="M145.1,298.7H59.7
				c-14.1,0-25.6,11.5-25.6,25.6v85.3c0,14.1,11.5,25.6,25.6,25.6h85.3c14.1,0,25.6-11.5,25.6-25.6v-85.3
				C170.7,310.1,159.2,298.7,145.1,298.7L145.1,298.7z M153.6,409.6c0,4.7-3.8,8.5-8.5,8.5H59.7c-4.7,0-8.5-3.8-8.5-8.5v-85.3
				c0-4.7,3.8-8.5,8.5-8.5h85.3c4.7,0,8.5,3.8,8.5,8.5L153.6,409.6L153.6,409.6z"/>
			
				<linearGradient id="Shape_00000060030197955419504320000016417960906258716042_" gradientUnits="userSpaceOnUse" x1="187.734" y1="366.9335" x2="324.267" y2="366.9335">
				<stop  offset="0" style="stop-color:#0F8FCE"/>
				<stop  offset="1" style="stop-color:#095A81"/>
			</linearGradient>
			<path id="Shape_7_" style="fill:url(#Shape_00000060030197955419504320000016417960906258716042_);" d="M298.7,298.7h-85.3
				c-14.1,0-25.6,11.5-25.6,25.6v85.3c0,14.1,11.5,25.6,25.6,25.6h85.3c14.1,0,25.6-11.5,25.6-25.6v-85.3
				C324.3,310.1,312.8,298.7,298.7,298.7z M307.2,409.6c0,4.7-3.8,8.5-8.5,8.5h-85.3c-4.7,0-8.5-3.8-8.5-8.5v-85.3
				c0-4.7,3.8-8.5,8.5-8.5h85.3c4.7,0,8.5,3.8,8.5,8.5V409.6z"/>
			
				<linearGradient id="Shape_00000074442709331236946890000001760617893602191285_" gradientUnits="userSpaceOnUse" x1="341.334" y1="366.9335" x2="477.867" y2="366.9335">
				<stop  offset="0" style="stop-color:#0F8FCE"/>
				<stop  offset="1" style="stop-color:#095A81"/>
			</linearGradient>
			<path id="Shape_8_" style="fill:url(#Shape_00000074442709331236946890000001760617893602191285_);" d="M452.3,298.7h-85.3
				c-14.1,0-25.6,11.5-25.6,25.6v85.3c0,14.1,11.5,25.6,25.6,25.6h85.3c14.1,0,25.6-11.5,25.6-25.6v-85.3
				C477.9,310.1,466.4,298.7,452.3,298.7z M460.8,409.6c0,4.7-3.8,8.5-8.5,8.5h-85.3c-4.7,0-8.5-3.8-8.5-8.5v-85.3
				c0-4.7,3.8-8.5,8.5-8.5h85.3c4.7,0,8.5,3.8,8.5,8.5V409.6z"/>
			<g>
				
					<linearGradient id="Path_00000170958724105726669580000007857763141954740865_" gradientUnits="userSpaceOnUse" x1="59.734" y1="460.8" x2="145.067" y2="460.8">
					<stop  offset="0" style="stop-color:#0F8FCE"/>
					<stop  offset="1" style="stop-color:#095A81"/>
				</linearGradient>
				
					<path id="Path_32_" style="fill-rule:evenodd;clip-rule:evenodd;fill:url(#Path_00000170958724105726669580000007857763141954740865_);" d="
					M136.5,452.3H68.3c-4.7,0-8.5,3.8-8.5,8.5s3.8,8.5,8.5,8.5h68.3c4.7,0,8.5-3.8,8.5-8.5S141.2,452.3,136.5,452.3z"/>
				
					<linearGradient id="Path_00000160149100361774408580000015416506871891641770_" gradientUnits="userSpaceOnUse" x1="213.333" y1="460.8" x2="298.666" y2="460.8">
					<stop  offset="0" style="stop-color:#0F8FCE"/>
					<stop  offset="1" style="stop-color:#095A81"/>
				</linearGradient>
				
					<path id="Path_31_" style="fill-rule:evenodd;clip-rule:evenodd;fill:url(#Path_00000160149100361774408580000015416506871891641770_);" d="
					M290.1,452.3h-68.3c-4.7,0-8.5,3.8-8.5,8.5s3.8,8.5,8.5,8.5h68.3c4.7,0,8.5-3.8,8.5-8.5S294.8,452.3,290.1,452.3z"/>
				
					<linearGradient id="Path_00000035527694042583502660000016256849546120328067_" gradientUnits="userSpaceOnUse" x1="366.933" y1="460.8" x2="452.266" y2="460.8">
					<stop  offset="0" style="stop-color:#0F8FCE"/>
					<stop  offset="1" style="stop-color:#095A81"/>
				</linearGradient>
				
					<path id="Path_30_" style="fill-rule:evenodd;clip-rule:evenodd;fill:url(#Path_00000035527694042583502660000016256849546120328067_);" d="
					M443.7,452.3h-68.3c-4.7,0-8.5,3.8-8.5,8.5s3.8,8.5,8.5,8.5h68.3c4.7,0,8.5-3.8,8.5-8.5S448.4,452.3,443.7,452.3z"/>
			</g>
		</g>
	</g>
</g>
</svg>
