<svg height="512" viewBox="0 0 60 60" width="512" xmlns="http://www.w3.org/2000/svg"><g id="Page-1" fill="none" fill-rule="evenodd"><g id="027---Timesheet" fill="rgb(0,0,0)" fill-rule="nonzero"><path id="Shape" d="m34 41c0-8.2842712-6.7157288-15-15-15s-15 6.7157288-15 15 6.7157288 15 15 15c8.2719714-.0296194 14.9703806-6.7280286 15-15zm-7.657 10.717-.477-.825c-.1773616-.3119508-.5082732-.5049532-.8671183-.5057421s-.6906021.1907567-.8693336.5019247c-.1787314.3111679-.1770325.694247.0044519 1.0038174l.472.819c-1.444717.6962348-3.006908 1.1161203-4.606 1.238v-.949c0-.5522847-.4477153-1-1-1s-1 .4477153-1 1v.949c-1.599092-.1218797-3.161283-.5417652-4.606-1.238l.472-.819c.2716903-.47786.1067416-1.0854205-.3693057-1.3602745-.4760473-.2748541-1.0846885-.1139391-1.3626943.3602745l-.477.825c-1.3221833-.9088323-2.46616766-2.0528167-3.375-3.375l.825-.476c.31195078-.1773616.50495322-.5082732.5057421-.8671183.00078889-.3588451-.19075673-.6906021-.50192468-.8693336-.31116795-.1787314-.694247-.1770325-1.00381742.0044519l-.818.473c-.69611128-1.4451164-1.11598717-3.007611-1.238-4.607h.949c.55228475 0 1-.4477153 1-1s-.44771525-1-1-1h-.949c.12201283-1.599389.54188872-3.1618836 1.238-4.607l.818.473c.30957042.1814844.69264947.1831833 1.00381742.0044519.31116795-.1787315.50271357-.5104885.50192468-.8693336-.00078888-.3588451-.19379132-.6897567-.5057421-.8671183l-.825-.476c.90883234-1.3221833 2.0528167-2.4661677 3.375-3.375l.477.825c.1773616.3119508.5082732.5049532.8671183.5057421s.6906021-.1907567.8693336-.5019247c.1787314-.3111679.1770325-.694247-.0044519-1.0038174l-.472-.819c1.444717-.6962348 3.006908-1.1161203 4.606-1.238v.949c0 .5522847.4477153 1 1 1s1-.4477153 1-1v-.949c1.599092.1218797 3.161283.5417652 4.606 1.238l-.472.819c-.1814844.3095704-.1831833.6926495-.0044519 1.0038174.1787315.311168.5104885.5027136.8693336.5019247s.6897567-.1937913.8671183-.5057421l.477-.825c1.3221833.9088323 2.4661677 2.0528167 3.375 3.375l-.825.476c-.3119508.1773616-.5049532.5082732-.5057421.8671183s.1907567.6906021.5019247.8693336c.3111679.1787314.694247.1770325 1.0038174-.0044519l.818-.473c.6961113 1.4451164 1.1159872 3.007611 1.238 4.607h-.949c-.5522847 0-1 .4477153-1 1s.4477153 1 1 1h.949c-.1220128 1.599389-.5418887 3.1618836-1.238 4.607l-.818-.473c-.3095704-.1814844-.6926495-.1831833-1.0038174-.0044519-.311168.1787315-.5027136.5104885-.5019247.8693336s.1937913.6897567.5057421.8671183l.825.476c-.9088323 1.3221833-2.0528167 2.4661677-3.375 3.375z"/><path id="Shape" d="m21.7 42.285c.3691506-.7633655.3945358-1.6480889.0697628-2.4313651-.324773-.7832761-.9687531-1.3904578-1.7697628-1.6686349v-5.185c0-.5522847-.4477153-1-1-1s-1 .4477153-1 1v5.184c-1.0392845.370915-1.7896625 1.2842686-1.9518498 2.3757746s.2902036 2.1835795 1.1767389 2.8406528 2.0629783.7722423 3.0601109.2995726l3.008 3.008c.3923789.3789722 1.0160848.3735524 1.4018186-.0121814s.3911536-1.0094397.0121814-1.4018186zm-3.7-1.285c0-.5522847.4477153-1 1-1s1 .4477153 1 1-.4477153 1-1 1-1-.4477153-1-1z"/><path id="Shape" d="m57 0h-36c-1.6568542 0-3 1.34314575-3 3v19.051c-10.07970025.5347647-17.9833741 8.8551378-18 18.949 0 15.793 18.215 24.63 30.619 15h26.381c1.6568542 0 3-1.3431458 3-3v-50c0-1.65685425-1.3431458-3-3-3zm-55 41c0-9.3888407 7.61115925-17 17-17 9.3888407 0 17 7.6111593 17 17s-7.6111593 17-17 17c-9.38450009-.010471-16.98952899-7.6154999-17-17zm56 12c0 .5522847-.4477153 1-1 1h-24.182c11.046-11.735 3.342-31.1-12.818-31.949v-19.051c0-.55228475.4477153-1 1-1h36c.5522847 0 1 .44771525 1 1z"/><path id="Shape" d="m53 26h-3c-1.1045695 0-2 .8954305-2 2v3c0 1.1045695.8954305 2 2 2h3c1.1045695 0 2-.8954305 2-2v-3c0-1.1045695-.8954305-2-2-2zm-3 5v-3h3v3z"/><path id="Shape" d="m53 35h-3c-1.1045695 0-2 .8954305-2 2v3c0 1.1045695.8954305 2 2 2h3c1.1045695 0 2-.8954305 2-2v-3c0-1.1045695-.8954305-2-2-2zm-3 5v-3h3v3z"/><path id="Shape" d="m53 44h-3c-1.1045695 0-2 .8954305-2 2v3c0 1.1045695.8954305 2 2 2h3c1.1045695 0 2-.8954305 2-2v-3c0-1.1045695-.8954305-2-2-2zm-3 5v-3h3v3z"/><path id="Shape" d="m45 26h-8c-.5522847 0-1 .4477153-1 1s.4477153 1 1 1h8c.5522847 0 1-.4477153 1-1s-.4477153-1-1-1z"/><path id="Shape" d="m45 30h-4c-.5522847 0-1 .4477153-1 1s.4477153 1 1 1h4c.5522847 0 1-.4477153 1-1s-.4477153-1-1-1z"/><path id="Shape" d="m45 49h-6c-.5522847 0-1 .4477153-1 1s.4477153 1 1 1h6c.5522847 0 1-.4477153 1-1s-.4477153-1-1-1z"/><path id="Shape" d="m45 45h-4c-.5522847 0-1 .4477153-1 1s.4477153 1 1 1h4c.5522847 0 1-.4477153 1-1s-.4477153-1-1-1z"/><path id="Shape" d="m45 35h-3c-.5522847 0-1 .4477153-1 1s.4477153 1 1 1h3c.5522847 0 1-.4477153 1-1s-.4477153-1-1-1z"/><path id="Shape" d="m45 39h-3c-.5522847 0-1 .4477153-1 1s.4477153 1 1 1h3c.5522847 0 1-.4477153 1-1s-.4477153-1-1-1z"/><path id="Shape" d="m54 19h-1v-12c0-1.1045695-.8954305-2-2-2h-4c-1.1045695 0-2 .8954305-2 2v12h-2v-8c0-1.1045695-.8954305-2-2-2h-4c-1.1045695 0-2 .8954305-2 2v8h-2v-5c0-1.1045695-.8954305-2-2-2h-4c-1.1045695 0-2 .8954305-2 2v5h-1c-.5522847 0-1 .4477153-1 1s.4477153 1 1 1h30c.5522847 0 1-.4477153 1-1s-.4477153-1-1-1zm-27 0v-5h4v5zm10 0v-8h4v8zm10 0v-12h4v12z"/></g></g></svg>