<?xml version="1.0" encoding="UTF-8"?><svg id="a" xmlns="http://www.w3.org/2000/svg" viewBox="0 0 620 620"><path d="M476.91,308.95H151.22c-13.62,0-24.7-10.95-24.7-24.41V81.4c0-5.54,4.48-10,10-10H491.61c5.52,0,10,4.46,10,10v203.13c0,13.47-11.08,24.42-24.7,24.42ZM146.52,91.4v193.13c0,2.43,2.11,4.41,4.7,4.41H476.91c2.59,0,4.7-1.98,4.7-4.41V91.4H146.52Z"/><path d="M491.61,91.4H136.52c-5.52,0-10-4.47-10-10V24.5c0-13.5,11.12-24.5,24.79-24.5H476.91c13.62,0,24.7,10.95,24.7,24.4v57c0,5.52-4.48,10-10,10Zm-345.09-20H481.61V24.4c0-2.43-2.11-4.4-4.7-4.4H151.31c-2.69,0-4.79,1.97-4.79,4.5v46.9Z"/><path d="M473.37,46.01c0-8.31-6.77-15.04-15.12-15.04s-15.13,6.73-15.13,15.04,6.77,15.04,15.13,15.04,15.12-6.73,15.12-15.04Z"/><path d="M434.77,46.01c0-8.31-6.77-15.04-15.13-15.04s-15.13,6.73-15.13,15.04,6.77,15.04,15.13,15.04,15.13-6.73,15.13-15.04Z"/><path d="M396.16,46.01c0-8.31-6.78-15.04-15.13-15.04s-15.13,6.73-15.13,15.04,6.78,15.04,15.13,15.04,15.13-6.73,15.13-15.04Z"/><path d="M256.25,195.25l26.75-16.26-5.73-16.7-45.49,26.55v12.82l45.49,26.55,5.73-16.69-26.75-16.27Z"/><path d="M320.84,149.01l-32.93,92.49h19.57l32.71-92.49h-19.35Z"/><path d="M350.85,162.29l-5.71,16.7,26.75,16.26-26.75,16.27,5.71,16.69,45.48-26.55v-12.82l-45.48-26.55Z"/><path d="M475.18,475.88h-67.91c-2.65,0-5.2-1.05-7.07-2.93s-2.93-4.41-2.93-7.07v-165.38c0-5.53,4.48-10,10-10s10,4.47,10,10v155.38h57.91c5.52,0,10,4.47,10,10s-4.48,10-10,10Z"/><path d="M219,475.88h-77.91c-5.52,0-10-4.47-10-10s4.48-10,10-10h67.91v-155.38c0-5.53,4.48-10,10-10s10,4.47,10,10v165.38c0,2.66-1.05,5.2-2.93,7.07-1.88,1.87-4.42,2.93-7.07,2.93Z"/><path d="M314.06,488.6c-5.52,0-10-4.46-10-10v-176.65c0-5.53,4.48-10,10-10s10,4.47,10,10v176.65c0,5.54-4.48,10-10,10Z"/><path d="M381.85,620H250.75c-5.52,0-10-4.47-10-10v-130.33c0-5.53,4.48-10,10-10h131.09c5.52,0,10,4.47,10,10v130.33c.01,5.53-4.47,10-9.99,10Zm-121.1-20h111.09v-110.33h-111.09v110.33Z"/><path d="M268.03,508.39l17.66,11.06-17.66,11.06,2.72,7.95,1.16-.48,26.12-15.09v-6.88l-27.22-15.74-2.78,8.12Z"/><path d="M313.77,514.63h19.33v9.59h-19.33v-9.59Z"/><path d="M346.22,514.63h19.32v9.59h-19.32v-9.59Z"/><path d="M268.03,559.15l17.66,11.06-17.66,11.06,2.72,7.94,1.16-.47,26.12-15.09v-6.89l-27.22-15.73-2.78,8.12Z"/><path d="M313.77,565.39h19.33v9.59h-19.33v-9.59Z"/><path d="M346.22,565.39h19.32v9.59h-19.32v-9.59Z"/><path d="M610,535.27h-131.09c-5.52,0-10-4.47-10-10v-130.33c0-5.53,4.48-10,10-10h131.09c5.52,0,10,4.47,10,10v130.33c0,5.53-4.48,10-10,10Zm-121.09-20h111.09v-110.33h-111.09v110.33Z"/><path d="M496.18,423.66l17.66,11.07-17.66,11.06,2.72,7.93,1.17-.47,26.11-15.09v-6.88l-27.22-15.74-2.78,8.12Z"/><path d="M541.93,429.91h19.33v9.59h-19.33v-9.59Z"/><path d="M574.38,429.91h19.32v9.59h-19.32v-9.59Z"/><path d="M496.18,474.42l17.66,11.07-17.66,11.06,2.72,7.94,1.17-.48,26.11-15.09v-6.88l-27.22-15.74-2.78,8.12Z"/><path d="M541.93,480.67h19.33v9.59h-19.33v-9.59Z"/><path d="M574.38,480.67h19.32v9.59h-19.32v-9.59Z"/><path d="M141.09,535.27H10c-5.52,0-10-4.47-10-10v-130.33c0-5.53,4.48-10,10-10H141.09c5.52,0,10,4.47,10,10v130.33c0,5.53-4.47,10-10,10Zm-121.09-20h111.09v-110.33H20v110.33Z"/><path d="M27.28,423.66l17.66,11.07-17.66,11.06,2.72,7.93,1.16-.47,26.12-15.09v-6.88l-27.22-15.74-2.78,8.12Z"/><path d="M73.03,429.91h19.33v9.59h-19.33v-9.59Z"/><path d="M105.47,429.91h19.32v9.59h-19.32v-9.59Z"/><path d="M27.28,474.42l17.66,11.07-17.66,11.06,2.72,7.94,1.16-.48,26.12-15.09v-6.88l-27.22-15.74-2.78,8.12Z"/><path d="M73.03,480.67h19.33v9.59h-19.33v-9.59Z"/><path d="M105.47,480.67h19.32v9.59h-19.32v-9.59Z"/></svg>