<svg height="512pt" viewBox="0 -9 512.00003 512" width="512pt" xmlns="http://www.w3.org/2000/svg"><path d="m467.34375 0h-422.6875c-24.648438.03125-44.625 20.007812-44.65625 44.65625v405.621094c.03125 24.648437 20.007812 44.625 44.65625 44.65625h422.6875c24.648438-.03125 44.625-20.007813 44.65625-44.65625v-405.621094c-.03125-24.648438-20.007812-44.625-44.65625-44.65625zm-422.6875 17.066406h422.6875c15.230469.019532 27.570312 12.359375 27.589844 27.589844v57.742188h-477.867188v-57.742188c.019532-15.230469 12.359375-27.570312 27.589844-27.589844zm422.6875 460.800782h-422.6875c-15.230469-.019532-27.570312-12.359376-27.589844-27.589844v-330.8125h477.867188v330.8125c-.019532 15.230468-12.359375 27.570312-27.589844 27.589844zm0 0"/><path d="m59.734375 85.332031c14.136719 0 25.597656-11.460937 25.597656-25.597656 0-14.140625-11.460937-25.601563-25.597656-25.601563-14.140625 0-25.601563 11.460938-25.601563 25.601563 0 14.136719 11.460938 25.597656 25.601563 25.597656zm0-34.132812c4.710937 0 8.53125 3.820312 8.53125 8.535156 0 4.710937-3.820313 8.53125-8.53125 8.53125-4.714844 0-8.535156-3.820313-8.535156-8.53125 0-4.714844 3.820312-8.535156 8.535156-8.535156zm0 0"/><path d="m128 85.332031c14.136719 0 25.601562-11.460937 25.601562-25.597656 0-14.140625-11.464843-25.601563-25.601562-25.601563s-25.601562 11.460938-25.601562 25.601563c0 14.136719 11.464843 25.597656 25.601562 25.597656zm0-34.132812c4.710938 0 8.535156 3.820312 8.535156 8.535156 0 4.710937-3.824218 8.53125-8.535156 8.53125s-8.535156-3.820313-8.535156-8.53125c0-4.714844 3.824218-8.535156 8.535156-8.535156zm0 0"/><path d="m196.265625 85.332031c14.140625 0 25.601563-11.460937 25.601563-25.597656 0-14.140625-11.460938-25.601563-25.601563-25.601563-14.136719 0-25.597656 11.460938-25.597656 25.601563 0 14.136719 11.460937 25.597656 25.597656 25.597656zm0-34.132812c4.714844 0 8.535156 3.820312 8.535156 8.535156 0 4.710937-3.820312 8.53125-8.535156 8.53125-4.710937 0-8.53125-3.820313-8.53125-8.53125 0-4.714844 3.820313-8.535156 8.53125-8.535156zm0 0"/><path d="m435.199219 85.332031h17.066406c9.425781 0 17.066406-7.640625 17.066406-17.066406v-17.066406c0-9.425781-7.640625-17.066407-17.066406-17.066407h-17.066406c-9.425781 0-17.066407 7.640626-17.066407 17.066407v17.066406c0 9.425781 7.640626 17.066406 17.066407 17.066406zm0-34.132812h17.066406v17.066406h-17.066406zm0 0"/><path d="m131.789062 315.734375h26.554688c-3.070312 5.164063-4.707031 11.054687-4.742188 17.066406 0 18.851563 15.28125 34.132813 34.132813 34.132813s34.132813-15.28125 34.132813-34.132813c-.035157-6.011719-1.671876-11.902343-4.746094-17.066406h4.746094c4.710937 0 8.53125-3.820313 8.53125-8.535156 0-4.710938-3.820313-8.53125-8.53125-8.53125h-136.535157c-2.339843-.042969-4.570312-1.027344-6.175781-2.734375-1.605469-1.707032-2.457031-3.988282-2.355469-6.328125l-.519531-8.003907h137.050781c3.769531 0 7.09375-2.476562 8.175781-6.085937l25.601563-85.332031c.773437-2.585938.28125-5.382813-1.332031-7.546875-1.609375-2.160157-4.148438-3.4375-6.84375-3.4375h-169.054688l-1.613281-26.128907c-.277344-4.503906-4.019531-8.011718-8.53125-8.003906h-17.066406c-4.714844 0-8.535157 3.820313-8.535157 8.535156 0 4.710938 3.820313 8.53125 8.535157 8.53125h9.050781l8.015625 128c.035156 9.914063 5.789063 18.914063 14.769531 23.109376-9.914062 13.878906-8.085937 32.941406 4.285156 44.683593 12.375 11.742188 31.503907 12.574219 44.847657 1.953125 13.347656-10.625 16.824219-29.457031 8.152343-44.144531zm73.011719 17.066406c0 9.425781-7.640625 17.066407-17.066406 17.066407s-17.066406-7.640626-17.066406-17.066407 7.640625-17.066406 17.066406-17.066406 17.066406 7.640625 17.066406 17.066406zm22.664063-136.535156-5.121094 17.066406h-102.878906c-4.710938 0-8.53125 3.820313-8.53125 8.535157 0 4.710937 3.820312 8.53125 8.53125 8.53125h97.757812l-10.238281 34.136718h-131.773437l-4.265626-68.269531zm-125.066406 153.601563c-9.425782 0-17.066407-7.640626-17.066407-17.066407s7.640625-17.066406 17.066407-17.066406c9.425781 0 17.066406 7.640625 17.066406 17.066406s-7.640625 17.066407-17.066406 17.066407zm0 0"/><path d="m298.667969 204.800781c10.351562 0 19.6875-6.238281 23.648437-15.804687 3.964844-9.566406 1.773438-20.578125-5.546875-27.898438-7.324219-7.320312-18.332031-9.511718-27.898437-5.550781-9.566406 3.964844-15.804688 13.300781-15.804688 23.652344 0 14.140625 11.460938 25.601562 25.601563 25.601562zm0-34.132812c4.710937 0 8.53125 3.820312 8.53125 8.53125 0 4.714843-3.820313 8.535156-8.53125 8.535156-4.714844 0-8.535157-3.820313-8.535157-8.535156 0-4.710938 3.820313-8.53125 8.535157-8.53125zm0 0"/><path d="m460.800781 170.667969h-110.933593c-4.714844 0-8.535157 3.820312-8.535157 8.53125 0 4.714843 3.820313 8.535156 8.535157 8.535156h110.933593c4.710938 0 8.53125-3.820313 8.53125-8.535156 0-4.710938-3.820312-8.53125-8.53125-8.53125zm0 0"/><path d="m298.667969 273.066406c14.136719 0 25.597656-11.460937 25.597656-25.601562 0-14.136719-11.460937-25.597656-25.597656-25.597656-14.140625 0-25.601563 11.460937-25.601563 25.597656 0 14.140625 11.460938 25.601562 25.601563 25.601562zm0-34.132812c4.710937 0 8.53125 3.820312 8.53125 8.53125 0 4.714844-3.820313 8.535156-8.53125 8.535156-4.714844 0-8.535157-3.820312-8.535157-8.535156 0-4.710938 3.820313-8.53125 8.535157-8.53125zm0 0"/><path d="m460.800781 238.933594h-110.933593c-4.714844 0-8.535157 3.820312-8.535157 8.53125 0 4.714844 3.820313 8.535156 8.535157 8.535156h110.933593c4.710938 0 8.53125-3.820312 8.53125-8.535156 0-4.710938-3.820312-8.53125-8.53125-8.53125zm0 0"/><path d="m298.667969 341.332031c14.136719 0 25.597656-11.460937 25.597656-25.597656 0-14.140625-11.460937-25.601563-25.597656-25.601563-14.140625 0-25.601563 11.460938-25.601563 25.601563 0 14.136719 11.460938 25.597656 25.601563 25.597656zm0-34.132812c4.710937 0 8.53125 3.820312 8.53125 8.535156 0 4.710937-3.820313 8.53125-8.53125 8.53125-4.714844 0-8.535157-3.820313-8.535157-8.53125 0-4.714844 3.820313-8.535156 8.535157-8.535156zm0 0"/><path d="m460.800781 307.199219h-110.933593c-4.714844 0-8.535157 3.820312-8.535157 8.535156 0 4.710937 3.820313 8.53125 8.535157 8.53125h110.933593c4.710938 0 8.53125-3.820313 8.53125-8.53125 0-4.714844-3.820312-8.535156-8.53125-8.535156zm0 0"/><path d="m349.867188 392.535156h-187.734376c-18.851562 0-34.132812 15.28125-34.132812 34.132813 0 18.851562 15.28125 34.132812 34.132812 34.132812h187.734376c18.851562 0 34.132812-15.28125 34.132812-34.132812 0-18.851563-15.28125-34.132813-34.132812-34.132813zm0 51.199219h-187.734376c-9.425781 0-17.066406-7.640625-17.066406-17.066406s7.640625-17.066407 17.066406-17.066407h187.734376c9.425781 0 17.066406 7.640626 17.066406 17.066407s-7.640625 17.066406-17.066406 17.066406zm0 0"/></svg>