<svg height="512.00003pt" viewBox="0 0 512.00003 512.00003" width="512.00003pt" xmlns="http://www.w3.org/2000/svg"><path d="m469.332031 0h-426.664062c-23.554688.0273438-42.6406252 19.113281-42.667969 42.667969v426.664062c.0273438 23.554688 19.113281 42.640625 42.667969 42.667969h426.664062c23.554688-.027344 42.640625-19.113281 42.667969-42.667969v-426.664062c-.027344-23.554688-19.113281-42.6406252-42.667969-42.667969zm25.601563 469.332031c0 14.140625-11.460938 25.601563-25.601563 25.601563h-426.664062c-14.140625 0-25.601563-11.460938-25.601563-25.601563v-426.664062c0-14.140625 11.460938-25.601563 25.601563-25.601563h426.664062c14.140625 0 25.601563 11.460938 25.601563 25.601563zm0 0"/><path d="m469.394531 36.539062-.394531-.210937c-2.5-1.421875-5.324219-2.175781-8.199219-2.195313h-409.601562c-2.878907.019532-5.703125.773438-8.207031 2.195313l-.386719.210937c-5.226563 3.035157-8.453125 8.617188-8.472657 14.660157v128c0 9.425781 7.640626 17.066406 17.066407 17.066406h409.601562c9.425781 0 17.066407-7.640625 17.066407-17.066406v-128c-.019532-6.042969-3.246094-11.625-8.472657-14.660157zm-418.195312 18.074219 178.277343 60.585938-178.277343 60.585937zm43-3.414062h323.601562l-161.800781 54.988281zm161.800781 73.011719 161.800781 54.988281h-323.601562zm26.523438-9.011719 178.277343-60.585938v121.171875zm0 0"/><path d="m51.199219 349.867188h-8.53125c-4.714844 0-8.535157 3.820312-8.535157 8.53125 0 4.714843 3.820313 8.535156 8.535157 8.535156h8.53125c4.714843 0 8.535156-3.820313 8.535156-8.535156 0-4.710938-3.820313-8.53125-8.535156-8.53125zm0 0"/><path d="m162.132812 349.867188h-76.800781c-4.710937 0-8.53125 3.820312-8.53125 8.53125 0 4.714843 3.820313 8.535156 8.53125 8.535156h76.800781c4.714844 0 8.535157-3.820313 8.535157-8.535156 0-4.710938-3.820313-8.53125-8.535157-8.53125zm0 0"/><path d="m51.199219 384h-8.53125c-4.714844 0-8.535157 3.820312-8.535157 8.535156 0 4.710938 3.820313 8.53125 8.535157 8.53125h8.53125c4.714843 0 8.535156-3.820312 8.535156-8.53125 0-4.714844-3.820313-8.535156-8.535156-8.535156zm0 0"/><path d="m162.132812 384h-76.800781c-4.710937 0-8.53125 3.820312-8.53125 8.535156 0 4.710938 3.820313 8.53125 8.53125 8.53125h76.800781c4.714844 0 8.535157-3.820312 8.535157-8.53125 0-4.714844-3.820313-8.535156-8.535157-8.535156zm0 0"/><path d="m51.199219 418.132812h-8.53125c-4.714844 0-8.535157 3.820313-8.535157 8.535157 0 4.710937 3.820313 8.53125 8.535157 8.53125h8.53125c4.714843 0 8.535156-3.820313 8.535156-8.53125 0-4.714844-3.820313-8.535157-8.535156-8.535157zm0 0"/><path d="m162.132812 418.132812h-76.800781c-4.710937 0-8.53125 3.820313-8.53125 8.535157 0 4.710937 3.820313 8.53125 8.53125 8.53125h76.800781c4.714844 0 8.535157-3.820313 8.535157-8.53125 0-4.714844-3.820313-8.535157-8.535157-8.535157zm0 0"/><path d="m51.199219 452.265625h-8.53125c-4.714844 0-8.535157 3.820313-8.535157 8.535156 0 4.710938 3.820313 8.53125 8.535157 8.53125h8.53125c4.714843 0 8.535156-3.820312 8.535156-8.53125 0-4.714843-3.820313-8.535156-8.535156-8.535156zm0 0"/><path d="m162.132812 452.265625h-76.800781c-4.710937 0-8.53125 3.820313-8.53125 8.535156 0 4.710938 3.820313 8.53125 8.53125 8.53125h76.800781c4.714844 0 8.535157-3.820312 8.535157-8.53125 0-4.714843-3.820313-8.535156-8.535157-8.535156zm0 0"/><path d="m204.800781 349.867188h-8.535156c-4.710937 0-8.53125 3.820312-8.53125 8.53125 0 4.714843 3.820313 8.535156 8.53125 8.535156h8.535156c4.710938 0 8.53125-3.820313 8.53125-8.535156 0-4.710938-3.820312-8.53125-8.53125-8.53125zm0 0"/><path d="m315.734375 349.867188h-76.800781c-4.714844 0-8.535156 3.820312-8.535156 8.53125 0 4.714843 3.820312 8.535156 8.535156 8.535156h76.800781c4.710937 0 8.53125-3.820313 8.53125-8.535156 0-4.710938-3.820313-8.53125-8.53125-8.53125zm0 0"/><path d="m204.800781 384h-8.535156c-4.710937 0-8.53125 3.820312-8.53125 8.535156 0 4.710938 3.820313 8.53125 8.53125 8.53125h8.535156c4.710938 0 8.53125-3.820312 8.53125-8.53125 0-4.714844-3.820312-8.535156-8.53125-8.535156zm0 0"/><path d="m315.734375 384h-76.800781c-4.714844 0-8.535156 3.820312-8.535156 8.535156 0 4.710938 3.820312 8.53125 8.535156 8.53125h76.800781c4.710937 0 8.53125-3.820312 8.53125-8.53125 0-4.714844-3.820313-8.535156-8.53125-8.535156zm0 0"/><path d="m204.800781 418.132812h-8.535156c-4.710937 0-8.53125 3.820313-8.53125 8.535157 0 4.710937 3.820313 8.53125 8.53125 8.53125h8.535156c4.710938 0 8.53125-3.820313 8.53125-8.53125 0-4.714844-3.820312-8.535157-8.53125-8.535157zm0 0"/><path d="m315.734375 418.132812h-76.800781c-4.714844 0-8.535156 3.820313-8.535156 8.535157 0 4.710937 3.820312 8.53125 8.535156 8.53125h76.800781c4.710937 0 8.53125-3.820313 8.53125-8.53125 0-4.714844-3.820313-8.535157-8.53125-8.535157zm0 0"/><path d="m204.800781 452.265625h-8.535156c-4.710937 0-8.53125 3.820313-8.53125 8.535156 0 4.710938 3.820313 8.53125 8.53125 8.53125h8.535156c4.710938 0 8.53125-3.820312 8.53125-8.53125 0-4.714843-3.820312-8.535156-8.53125-8.535156zm0 0"/><path d="m315.734375 452.265625h-76.800781c-4.714844 0-8.535156 3.820313-8.535156 8.535156 0 4.710938 3.820312 8.53125 8.535156 8.53125h76.800781c4.710937 0 8.53125-3.820312 8.53125-8.53125 0-4.714843-3.820313-8.535156-8.53125-8.535156zm0 0"/><path d="m358.398438 349.867188h-8.53125c-4.714844 0-8.535157 3.820312-8.535157 8.53125 0 4.714843 3.820313 8.535156 8.535157 8.535156h8.53125c4.714843 0 8.535156-3.820313 8.535156-8.535156 0-4.710938-3.820313-8.53125-8.535156-8.53125zm0 0"/><path d="m469.332031 349.867188h-76.796875c-4.714844 0-8.535156 3.820312-8.535156 8.53125 0 4.714843 3.820312 8.535156 8.535156 8.535156h76.796875c4.714844 0 8.535157-3.820313 8.535157-8.535156 0-4.710938-3.820313-8.53125-8.535157-8.53125zm0 0"/><path d="m358.398438 384h-8.53125c-4.714844 0-8.535157 3.820312-8.535157 8.535156 0 4.710938 3.820313 8.53125 8.535157 8.53125h8.53125c4.714843 0 8.535156-3.820312 8.535156-8.53125 0-4.714844-3.820313-8.535156-8.535156-8.535156zm0 0"/><path d="m469.332031 384h-76.796875c-4.714844 0-8.535156 3.820312-8.535156 8.535156 0 4.710938 3.820312 8.53125 8.535156 8.53125h76.796875c4.714844 0 8.535157-3.820312 8.535157-8.53125 0-4.714844-3.820313-8.535156-8.535157-8.535156zm0 0"/><path d="m358.398438 418.132812h-8.53125c-4.714844 0-8.535157 3.820313-8.535157 8.535157 0 4.710937 3.820313 8.53125 8.535157 8.53125h8.53125c4.714843 0 8.535156-3.820313 8.535156-8.53125 0-4.714844-3.820313-8.535157-8.535156-8.535157zm0 0"/><path d="m469.332031 418.132812h-76.796875c-4.714844 0-8.535156 3.820313-8.535156 8.535157 0 4.710937 3.820312 8.53125 8.535156 8.53125h76.796875c4.714844 0 8.535157-3.820313 8.535157-8.53125 0-4.714844-3.820313-8.535157-8.535157-8.535157zm0 0"/><path d="m358.398438 452.265625h-8.53125c-4.714844 0-8.535157 3.820313-8.535157 8.535156 0 4.710938 3.820313 8.53125 8.535157 8.53125h8.53125c4.714843 0 8.535156-3.820312 8.535156-8.53125 0-4.714843-3.820313-8.535156-8.535156-8.535156zm0 0"/><path d="m469.332031 452.265625h-76.796875c-4.714844 0-8.535156 3.820313-8.535156 8.535156 0 4.710938 3.820312 8.53125 8.535156 8.53125h76.796875c4.714844 0 8.535157-3.820312 8.535157-8.53125 0-4.714843-3.820313-8.535156-8.535157-8.535156zm0 0"/><path d="m165.964844 218.625c-.050782-.070312-.136719-.09375-.195313-.15625-3.195312-3.285156-7.585937-5.136719-12.167969-5.136719h-102.402343c-9.425781 0-17.066407 7.640625-17.066407 17.066407v85.335937c0 9.425781 7.640626 17.066406 17.066407 17.066406h102.402343c4.585938.007813 8.980469-1.835937 12.183594-5.121093.050782-.058594.128906-.078126.179688-.136719.050781-.058594.085937-.179688.144531-.253907 2.925781-3.136718 4.554687-7.265624 4.558594-11.554687v-85.335937c-.011719-4.277344-1.640625-8.390626-4.558594-11.519532-.058594-.074218-.078125-.179687-.144531-.253906zm-114.765625 21.757812 38.136719 32.683594-38.136719 32.683594zm14.574219-9.984374h73.320312l-36.695312 31.429687zm36.695312 53.90625 36.625 31.429687h-73.320312zm13.082031-11.238282 38.050781-32.613281v65.238281zm0 0"/><path d="m319.566406 218.625c-.054687-.070312-.136718-.09375-.199218-.15625-3.195313-3.285156-7.582032-5.136719-12.167969-5.136719h-102.398438c-9.425781 0-17.066406 7.640625-17.066406 17.066407v85.335937c0 9.425781 7.640625 17.066406 17.066406 17.066406h102.398438c4.585937.007813 8.984375-1.835937 12.1875-5.121093.050781-.058594.125-.078126.179687-.136719.050782-.058594.082032-.179688.144532-.253907 2.925781-3.136718 4.554687-7.265624 4.554687-11.554687v-85.335937c-.007813-4.277344-1.636719-8.390626-4.554687-11.519532-.0625-.074218-.078126-.179687-.144532-.253906zm-114.765625 21.757812 38.132813 32.683594-38.132813 32.683594zm14.574219-9.984374h73.316406l-36.691406 31.429687zm36.691406 53.90625 36.625 31.429687h-73.316406zm13.082032-11.238282 38.050781-32.613281v65.238281zm0 0"/><path d="m473.164062 218.625c-.050781-.070312-.136718-.09375-.195312-.15625-3.195312-3.285156-7.585938-5.136719-12.167969-5.136719h-102.402343c-9.425782 0-17.066407 7.640625-17.066407 17.066407v85.335937c0 9.425781 7.640625 17.066406 17.066407 17.066406h102.402343c4.585938.007813 8.980469-1.835937 12.183594-5.121093.050781-.058594.128906-.078126.179687-.136719.050782-.058594.085938-.179688.144532-.253907 2.929687-3.136718 4.558594-7.265624 4.558594-11.554687v-85.335937c-.011719-4.277344-1.636719-8.390626-4.558594-11.519532-.058594-.074218-.074219-.179687-.144532-.253906zm-114.765624 21.757812 38.136718 32.683594-38.136718 32.683594zm14.578124-9.984374h73.316407l-36.691407 31.429687zm36.691407 53.90625 36.625 31.429687h-73.316407zm13.082031-11.238282 38.050781-32.613281v65.238281zm0 0"/></svg>