<?xml version="1.0" encoding="utf-8"?>
<!-- Generator: Adobe Illustrator 25.4.1, SVG Export Plug-In . SVG Version: 6.00 Build 0)  -->
<svg version="1.1" id="Capa_1" xmlns="http://www.w3.org/2000/svg" xmlns:xlink="http://www.w3.org/1999/xlink" x="0px" y="0px"
	 viewBox="0 0 512 512" style="enable-background:new 0 0 512 512;" xml:space="preserve">
<style type="text/css">
	.st0{fill:#FFFFFF;}
	.st1{fill-rule:evenodd;clip-rule:evenodd;fill:#FFFFFF;}
</style>
<g>
	<g id="Page-1_31_">
		<g id="_x30_32---Sweat-Smile" transform="translate(-1)">
			<path id="Shape_119_" class="st0" d="M495.9,102.4c0-29.4-21.2-64.9-38.9-89.5c-4.8-6.7-12.5-10.6-20.8-10.6
				c-8.2,0-16,4-20.8,10.6c-6.7,9.3-13,18.9-18.7,28.9C355.3,14.5,306.7-0.1,257.1,0C142.3,0,41.5,76.4,10.5,187
				S26,415.2,124.1,474.8s224,46.6,307.8-31.9s105.2-203.1,52.2-305C491.8,127.6,495.9,115.2,495.9,102.4L495.9,102.4z M429.3,22.9
				c1.6-2.2,4.2-3.6,6.9-3.6s5.3,1.3,6.9,3.6c13.3,18.4,35.7,53.3,35.7,79.5c0,23.6-19.1,42.7-42.7,42.7
				c-23.6,0-42.7-19.1-42.7-42.7C393.6,76.2,415.9,41.3,429.3,22.9L429.3,22.9z M257.1,494.8c-131.9,0-238.8-106.9-238.8-238.8
				S125.2,17.1,257.1,17.1C304,17,349.8,30.9,388.8,56.9c-7.3,14.1-11.5,29.6-12.3,45.5v0.2c-9.9-0.1-19.7,1.6-28.9,5.1
				c-4.3,1.9-6.2,6.8-4.4,11.1c1.8,4.3,6.8,6.3,11.1,4.6c7.9-3,16.4-4.2,24.8-3.7c5.6,18.5,19.8,33.2,38.2,39.3
				c18.4,6.1,38.6,3,54.1-8.5c36.4,74,32,161.6-11.6,231.6S339.6,494.8,257.1,494.8L257.1,494.8z"/>
			<g>
				<path id="Path_111_" class="st1" d="M436.2,128c4.7,0,8.5-3.8,8.5-8.5s-3.8-8.5-8.5-8.5c-4.7,0-8.5-3.8-8.5-8.5
					c0-4.7-3.8-8.5-8.5-8.5c-4.7,0-8.5,3.8-8.5,8.5C410.6,116.5,422.1,128,436.2,128L436.2,128z"/>
				<path id="Path_110_" class="st1" d="M98.4,223.5c-3.8,2.8-4.5,8.2-1.7,11.9c2.8,3.8,8.2,4.5,11.9,1.7c45.3-34,90.2-1.4,92.1,0
					c1.8,1.4,4.1,1.9,6.3,1.6c2.2-0.3,4.3-1.5,5.6-3.3c2.8-3.8,2.1-9.1-1.7-11.9C210.4,223.1,154.1,181.8,98.4,223.5L98.4,223.5z"/>
				<path id="Path_109_" class="st1" d="M313.4,237.2c0.5-0.3,46.6-34.1,92.1,0c3.8,2.8,9.1,2.1,11.9-1.7c2.8-3.8,2.1-9.1-1.7-11.9
					c-55.7-41.7-112-0.4-112.6,0c-3.8,2.8-4.5,8.2-1.7,11.9C304.3,239.2,309.6,240,313.4,237.2z"/>
				<path id="Path_108_" class="st1" d="M92.3,153c2.1,0.7,4.5,0.5,6.5-0.5c2-1,3.6-2.8,4.3-4.9c2.8-10.8,10.1-19.9,20-25
					c12-4.2,25.1-4,36.8,0.7c4.3,1.8,9.3-0.2,11.2-4.5c1.8-4.3-0.2-9.3-4.5-11.2c-16.1-6.5-34.1-6.8-50.4-0.6
					c-14.4,7-25,19.8-29.3,35.2c-0.7,2.1-0.6,4.5,0.5,6.5C88.4,150.8,90.2,152.3,92.3,153z"/>
			</g>
			<path id="Shape_118_" class="st0" d="M420.5,304.4c-52.4,19-107.7,28.6-163.5,28.3c-55.7,0.3-111.1-9.3-163.5-28.3
				c-5.6-2.1-11.9-1.2-16.6,2.5c-4.7,3.7-7.2,9.6-6.4,15.5c4.5,36.4,31.2,155.3,186.5,155.3s182-118.9,186.5-155.3
				c0.7-5.9-1.7-11.8-6.4-15.5C432.5,303.2,426.2,302.2,420.5,304.4L420.5,304.4z M372.2,336.6l-1.2,8.8c-1.4,10.3-9,18.7-19.1,21.2
				c-31.2,6.6-63,9.5-94.8,8.7c-31.8,0.8-63.6-2.1-94.8-8.7c-10.1-2.5-17.7-10.9-19.1-21.2l-1.2-8.8c37.7,8.7,76.4,13.1,115.1,13.2
				C295.8,349.8,334.5,345.3,372.2,336.6L372.2,336.6z M169.4,442.7c14-14.8,33.2-23.7,53.6-24.7c10.4-1,20.5,3.8,26.5,12.3
				c1.4,2.8,4.3,4.6,7.5,4.7c3.2-0.1,6.1-1.8,7.7-4.5c5.9-8.6,16.1-13.4,26.5-12.5c20.4,1.1,39.5,9.9,53.6,24.7
				c-27.5,12.6-57.5,18.7-87.7,17.9C226.9,461.4,196.9,455.3,169.4,442.7L169.4,442.7z M360,434.2c-17.4-20.1-42.2-32.1-68.8-33.3
				c-12.5-0.4-24.7,3.9-34.1,12.3c-9.4-8.3-21.6-12.7-34.1-12.3c-26.5,1.2-51.4,13.2-68.8,33.3c-49.9-32.1-63.2-85.6-66.7-113.9
				c7.8,3,20.3,7.3,36.6,11.8l2.2,15.7c2.4,17.2,15,31.3,31.9,35.4c32.5,6.8,65.6,9.9,98.8,9.2c33.2,0.7,66.4-2.4,98.9-9.2
				c16.9-4.1,29.5-18.2,31.9-35.4l2.2-15.7c16.2-4.4,28.7-8.8,36.6-11.8C423.2,348.6,409.8,402.1,360,434.2L360,434.2z"/>
			<g>
				<path id="Path_107_" class="st1" d="M95,281.5c0-4.7-3.8-8.5-8.5-8.5c-19.3,0.5-36.2,13.1-42.2,31.4c-1.5,4.5,0.9,9.3,5.4,10.8
					s9.3-0.9,10.8-5.4c3.7-11.4,14.1-19.2,26.1-19.8C91.2,290,95,286.2,95,281.5L95,281.5z"/>
				<path id="Path_106_" class="st1" d="M469.9,304.4c-6-18.3-22.9-30.9-42.2-31.4c-4.7,0-8.5,3.8-8.6,8.5s3.8,8.5,8.5,8.6
					c12,0.5,22.4,8.4,26.1,19.8c1.5,4.5,6.3,6.9,10.8,5.4C469,313.7,471.4,308.9,469.9,304.4L469.9,304.4z"/>
			</g>
		</g>
	</g>
</g>
</svg>
