<?xml version="1.0" encoding="UTF-8"?><svg id="a" xmlns="http://www.w3.org/2000/svg" viewBox="0 0 512 512"><defs><style>.b{fill:#fff;}</style></defs><path class="b" d="M456.83,32.13h-41.23V15c0-8.28-6.72-15-15-15s-15,6.72-15,15v17.13h-66.4V15c0-8.28-6.72-15-15-15s-15,6.72-15,15v17.13h-66.4V15c0-8.28-6.72-15-15-15s-15,6.72-15,15v17.13H126.4V15c0-8.28-6.72-15-15-15s-15,6.72-15,15v17.13H55.17C24.75,32.13,0,56.88,0,87.3V456.83c0,30.42,24.75,55.17,55.17,55.17H456.83c30.42,0,55.17-24.75,55.17-55.17V87.3c0-30.42-24.75-55.17-55.17-55.17h0ZM55.17,62.13h41.23v17.13c0,8.28,6.72,15,15,15s15-6.72,15-15v-17.13h66.4v17.13c0,8.28,6.72,15,15,15s15-6.72,15-15v-17.13h66.4v17.13c0,8.28,6.72,15,15,15s15-6.72,15-15v-17.13h66.4v17.13c0,8.28,6.72,15,15,15s15-6.72,15-15v-17.13h41.23c13.88,0,25.17,11.29,25.17,25.17v41.23H30v-41.23c0-13.88,11.29-25.17,25.17-25.17h0ZM456.83,482H55.17c-13.88,0-25.17-11.29-25.17-25.17V158.53H482V456.83c0,13.88-11.29,25.17-25.17,25.17Z"/><path class="b" d="M151.57,208.87H87.3c-8.28,0-15,6.72-15,15v64.27c0,8.28,6.72,15,15,15h64.27c8.28,0,15-6.72,15-15v-64.27c0-8.28-6.72-15-15-15h0Zm-15,64.27h-34.27v-34.27h34.27v34.27Z"/><path class="b" d="M424.7,208.87h-64.27c-8.28,0-15,6.72-15,15v64.27c0,8.28,6.72,15,15,15h64.27c8.28,0,15-6.72,15-15v-64.27c0-8.28-6.72-15-15-15Zm-15,64.27h-34.27v-34.27h34.27v34.27Z"/><path class="b" d="M151.57,337.4H87.3c-8.28,0-15,6.72-15,15v64.27c0,8.28,6.72,15,15,15h64.27c8.28,0,15-6.72,15-15v-64.27c0-8.28-6.72-15-15-15h0Zm-15,64.27h-34.27v-34.27h34.27v34.27Z"/><path class="b" d="M424.7,337.4h-64.27c-8.28,0-15,6.72-15,15v64.27c0,8.28,6.72,15,15,15h64.27c8.28,0,15-6.72,15-15v-64.27c0-8.28-6.72-15-15-15Zm-15,64.27h-34.27v-34.27h34.27v34.27Z"/><path class="b" d="M288.13,337.4h-64.27c-8.28,0-15,6.72-15,15v64.27c0,8.28,6.72,15,15,15h64.27c8.28,0,15-6.72,15-15v-64.27c0-8.28-6.72-15-15-15Zm-15,64.27h-34.27v-34.27h34.27v34.27Z"/><path class="b" d="M279.47,222.67l-34.83,34.84-12.12-12.12c-5.86-5.86-15.35-5.86-21.21,0s-5.86,15.36,0,21.21l22.72,22.72c2.81,2.81,6.63,4.39,10.61,4.39s7.79-1.58,10.61-4.39l45.44-45.44c5.86-5.86,5.86-15.35,0-21.21-5.86-5.86-15.36-5.86-21.21,0h0Z"/></svg>