<?xml version="1.0" encoding="UTF-8"?><svg id="a" xmlns="http://www.w3.org/2000/svg" viewBox="0 0 485.15 456.51"><defs><style>.b{fill:#fff;}</style></defs><path class="b" d="M292.27,119.63h-105.78c-3.82,0-6.92-3.1-6.92-6.92V6.92c0-3.82,3.1-6.92,6.92-6.92h105.78c3.82,0,6.92,3.1,6.92,6.92V112.71c0,3.82-3.1,6.92-6.92,6.92Zm-98.86-13.84h91.94V13.84h-91.94V105.79Z"/><path class="b" d="M292.27,456.51h-105.78c-3.82,0-6.92-3.1-6.92-6.92v-105.79c0-3.82,3.1-6.92,6.92-6.92h105.78c3.82,0,6.92,3.1,6.92,6.92v105.79c0,3.82-3.1,6.92-6.92,6.92Zm-98.86-13.84h91.94v-91.95h-91.94v91.95Z"/><path class="b" d="M292.27,288.06h-105.78c-3.82,0-6.92-3.1-6.92-6.92v-105.78c0-3.82,3.1-6.92,6.92-6.92h105.78c3.82,0,6.92,3.1,6.92,6.92v105.78c0,3.82-3.1,6.92-6.92,6.92Zm-98.86-13.84h91.94v-91.94h-91.94v91.94Z"/><path class="b" d="M116.76,106.3c-3.82,0-6.92-3.1-6.92-6.92,0-1.83,.73-3.59,2.03-4.89l28.01-28.01-28.01-28.01c-2.65-2.75-2.58-7.13,.17-9.78,2.68-2.59,6.93-2.59,9.61,0l32.91,32.91c2.7,2.7,2.7,7.08,0,9.78l-32.91,32.91c-1.3,1.3-3.06,2.03-4.89,2.03h0Z"/><path class="b" d="M362.67,268.08c-1.83,0-3.59-.73-4.89-2.03l-32.91-32.91c-2.7-2.7-2.7-7.08,0-9.78l32.91-32.91c2.75-2.65,7.13-2.58,9.78,.17,2.59,2.68,2.59,6.93,0,9.61l-28.03,28.01,28.01,28.01c2.7,2.7,2.7,7.08,0,9.78-1.3,1.3-3.06,2.03-4.89,2.03h.01Z"/><path class="b" d="M114.53,429.87c-3.82,0-6.92-3.1-6.92-6.92,0-1.83,.73-3.59,2.03-4.89l28.01-28.01-28.01-28.01c-2.65-2.75-2.58-7.13,.17-9.78,2.68-2.59,6.93-2.59,9.61,0l32.91,32.91c2.7,2.7,2.7,7.08,0,9.78l-32.9,32.91c-1.3,1.3-3.07,2.03-4.91,2.03Z"/><path class="b" d="M149.67,73.39H15.97c-3.82,0-6.92-3.1-6.92-6.92s3.1-6.92,6.92-6.92H149.67c3.82,0,6.92,3.1,6.92,6.92s-3.1,6.92-6.92,6.92Z"/><path class="b" d="M429.09,79.92c-.93,0-1.86-.19-2.71-.56-5.7-2.46-11.69-4.18-17.83-5.13-3.78-.57-6.38-4.1-5.8-7.88,.57-3.78,4.1-6.38,7.88-5.8,7.29,1.12,14.41,3.17,21.19,6.08,3.52,1.49,5.17,5.55,3.68,9.07-1.09,2.57-3.61,4.23-6.4,4.22h0Z"/><path class="b" d="M356.99,73.41h-64.69c-3.82,0-6.92-3.1-6.92-6.92s3.1-6.92,6.92-6.92h64.69c3.82,0,6.92,3.1,6.92,6.92s-3.1,6.92-6.92,6.92h0Z"/><path class="b" d="M397.33,235.17h-67.6c-3.87,.02-7.04-3.05-7.16-6.92-.11-3.71,2.81-6.81,6.51-6.92,.05,0,.11,0,.16,0h68.08c40.84,0,73.96-33.09,73.96-73.94,0-13.12-3.49-26.01-10.11-37.33-1.94-3.29-.85-7.53,2.44-9.48,3.29-1.94,7.53-.85,9.48,2.44,24.51,41.83,10.46,95.61-31.37,120.11-13.47,7.89-28.79,12.05-44.4,12.04Z"/><path class="b" d="M147.41,396.96h-58.81C40.1,397.39,.43,358.42,0,309.93c-.43-48.5,38.53-88.16,87.03-88.59,.52,0,1.04,0,1.56,0h97.94c3.82,0,6.92,3.1,6.92,6.92s-3.1,6.92-6.92,6.92H88.62c-40.85,.4-73.65,33.83-73.26,74.69,.39,40.3,32.96,72.87,73.26,73.26h58.81c3.82,0,6.92,3.1,6.92,6.92s-3.1,6.92-6.92,6.92h-.02Z"/></svg>