<?xml version="1.0" encoding="utf-8"?>
<!-- Generator: Adobe Illustrator 25.4.1, SVG Export Plug-In . SVG Version: 6.00 Build 0)  -->
<svg version="1.1" id="Capa_1" xmlns="http://www.w3.org/2000/svg" xmlns:xlink="http://www.w3.org/1999/xlink" x="0px" y="0px"
	 viewBox="0 0 512 512" style="enable-background:new 0 0 512 512;" xml:space="preserve">
<style type="text/css">
	.st0{fill:#FFFFFF;}
</style>
<g transform="translate(1 1)">
	<g>
		<g>
			<path class="st0" d="M255-1C113.6-1-1,113.6-1,255s114.6,256,256,256s256-114.6,256-256S396.4-1,255-1z M255,468.3
				c-117.8,0-213.3-95.5-213.3-213.3S137.2,41.7,255,41.7S468.3,137.2,468.3,255S372.8,468.3,255,468.3z"/>
			<path class="st0" d="M374.5,237.9l-170.7-128c-14.1-10.5-34.1-0.5-34.1,17.1v256c0,17.6,20.1,27.6,34.1,17.1l170.7-128
				C385.8,263.5,385.8,246.5,374.5,237.9z M212.3,340.3V169.7L326.1,255L212.3,340.3z"/>
		</g>
	</g>
</g>
</svg>
