<?xml version="1.0" encoding="utf-8"?>
<!-- Generator: Adobe Illustrator 24.3.0, SVG Export Plug-In . SVG Version: 6.00 Build 0)  -->
<svg version="1.1" id="Layer_1" xmlns="http://www.w3.org/2000/svg" xmlns:xlink="http://www.w3.org/1999/xlink" x="0px" y="0px"
	 viewBox="0 0 512 512" style="enable-background:new 0 0 512 512;" xml:space="preserve">
<style type="text/css">
	.st0{fill:#FFFFFF;}
</style>
<g id="Page-1">
	<g id="_x30_31---Microphone">
		<path id="Shape" class="st0" d="M486.4,145.1c0.2-51.4-17.1-101.4-48.9-141.8c-1.9-2.4-4.9-3.6-7.9-3.2c-3,0.4-5.6,2.4-6.7,5.3
			c-1.1,2.8-0.7,6,1.2,8.4c29.5,37.4,45.5,83.7,45.3,131.3c0,4.7,3.8,8.5,8.5,8.5C482.6,153.6,486.4,149.8,486.4,145.1z"/>
		<path id="Shape_1_" class="st0" d="M74.5,3.3C42.7,43.7,25.4,93.6,25.6,145.1c0,4.7,3.8,8.5,8.5,8.5s8.5-3.8,8.5-8.5
			C42.5,97.4,58.5,51.2,88,13.8c2.9-3.7,2.3-9.1-1.5-12C82.8-1.1,77.4-0.4,74.5,3.3z"/>
		<path id="Shape_2_" class="st0" d="M443.7,153.6c4.7,0,8.5-3.8,8.5-8.5c0.1-43-14-84.8-40.2-118.9c-1.8-2.6-4.9-4.1-8-3.7
			c-3.1,0.3-5.8,2.4-7,5.4c-1.2,3-0.6,6.3,1.5,8.7c23.9,31.1,36.8,69.3,36.7,108.6C435.2,149.8,439,153.6,443.7,153.6z"/>
		<path id="Shape_3_" class="st0" d="M100,26.2c-26.2,34.1-40.4,75.9-40.2,118.8c0,4.7,3.8,8.5,8.5,8.5s8.5-3.8,8.5-8.5
			c-0.1-39.2,12.8-77.4,36.7-108.5c2.9-3.7,2.1-9.1-1.6-12C108.2,21.8,102.8,22.5,100,26.2L100,26.2z"/>
		<path id="Shape_4_" class="st0" d="M372.9,45.3c-3.7,2.9-4.4,8.2-1.6,11.9c19.4,25.2,29.8,56.1,29.7,87.8c0,4.7,3.8,8.5,8.5,8.5
			s8.5-3.8,8.5-8.5c0.1-35.5-11.6-70.1-33.3-98.2C382,43.1,376.6,42.4,372.9,45.3L372.9,45.3z"/>
		<path id="Shape_5_" class="st0" d="M127.1,46.9c-21.6,28.2-33.3,62.7-33.3,98.2c0,4.7,3.8,8.5,8.5,8.5c4.7,0,8.5-3.8,8.5-8.5
			c-0.1-31.8,10.4-62.6,29.7-87.8c2.1-2.4,2.7-5.8,1.5-8.7c-1.2-3-3.9-5-7-5.4S128.9,44.2,127.1,46.9z"/>
		<path id="Shape_6_" class="st0" d="M256,17.1c-70.7,0.1-127.9,57.3-128,128V232c-2.7-1-5.6-1.5-8.5-1.6
			c-14.1,0-25.6,11.5-25.6,25.6c0.1,71.6,49.7,133.7,119.5,149.6v21c0,9.4,7.6,17.1,17.1,17.1v17.1h-42.7
			c-14.1,0-25.6,11.5-25.6,25.6v17.1c0,4.7,3.8,8.5,8.5,8.5h170.7c4.7,0,8.5-3.8,8.5-8.5v-17.1c0-14.1-11.5-25.6-25.6-25.6h-42.7
			v-17.1c9.4,0,17.1-7.6,17.1-17.1v-21c69.8-16,119.4-78,119.5-149.6c0-14.1-11.5-25.6-25.6-25.6c-2.9,0-5.8,0.6-8.5,1.6v-86.9
			C384,74.4,326.7,17.1,256,17.1z M256,34.1c44.8,0,85.2,26.9,102.4,68.3h-76.8c-4.7,0-8.5,3.8-8.5,8.5c0,4.7,3.8,8.5,8.5,8.5h82.2
			c1.3,5.6,2.2,11.3,2.7,17.1h-84.9c-4.7,0-8.5,3.8-8.5,8.5c0,4.7,3.8,8.5,8.5,8.5h85.3v17.1h-85.3c-4.7,0-8.5,3.8-8.5,8.5
			s3.8,8.5,8.5,8.5h85.3v17.1h-85.3c-4.7,0-8.5,3.8-8.5,8.5s3.8,8.5,8.5,8.5h85.3v17.1H145.1v-17.1h42.7c4.7,0,8.5-3.8,8.5-8.5
			s-3.8-8.5-8.5-8.5h-42.7v-17.1h42.7c4.7,0,8.5-3.8,8.5-8.5s-3.8-8.5-8.5-8.5h-42.7v-17.1h42.7c4.7,0,8.5-3.8,8.5-8.5
			c0-4.7-3.8-8.5-8.5-8.5h-42.2c0.4-5.7,1.3-11.5,2.7-17.1h39.6c4.7,0,8.5-3.8,8.5-8.5c0-4.7-3.8-8.5-8.5-8.5h-34.1
			C170.9,61.1,211.2,34.2,256,34.1z M366.9,256c-0.1,56.5-45.9,102.3-102.4,102.4h-17.1c-56.5-0.1-102.3-45.9-102.4-102.4H366.9z
			 M332.8,486.4v8.5H179.2v-8.5c0-4.7,3.8-8.5,8.5-8.5h136.5C329,477.9,332.8,481.7,332.8,486.4z M264.5,460.8h-17.1v-17.1h17.1
			V460.8z M281.6,426.7h-51.2v-18.1c5.7,0.7,11.4,1,17.1,1h17.1c5.7,0,11.4-0.4,17.1-1V426.7z M392.5,247.5c4.7,0,8.5,3.8,8.5,8.5
			c-0.1,75.4-61.2,136.4-136.5,136.5h-17.1C172.1,392.4,111,331.4,110.9,256c0-4.7,3.8-8.5,8.5-8.5c4.7,0,8.5,3.8,8.5,8.5
			c0.1,66,53.5,119.4,119.5,119.5h17.1c66-0.1,119.4-53.5,119.5-119.5C384,251.3,387.8,247.5,392.5,247.5z"/>
		<path id="Shape_7_" class="st0" d="M221.9,153.6h8.5c4.7,0,8.5-3.8,8.5-8.5c0-4.7-3.8-8.5-8.5-8.5h-8.5c-4.7,0-8.5,3.8-8.5,8.5
			C213.3,149.8,217.2,153.6,221.9,153.6z"/>
		<path id="Shape_8_" class="st0" d="M221.9,187.7h8.5c4.7,0,8.5-3.8,8.5-8.5s-3.8-8.5-8.5-8.5h-8.5c-4.7,0-8.5,3.8-8.5,8.5
			S217.2,187.7,221.9,187.7z"/>
		<path id="Shape_9_" class="st0" d="M221.9,119.5h8.5c4.7,0,8.5-3.8,8.5-8.5c0-4.7-3.8-8.5-8.5-8.5h-8.5c-4.7,0-8.5,3.8-8.5,8.5
			C213.3,115.6,217.2,119.5,221.9,119.5z"/>
		<path id="Shape_10_" class="st0" d="M221.9,221.9h8.5c4.7,0,8.5-3.8,8.5-8.5s-3.8-8.5-8.5-8.5h-8.5c-4.7,0-8.5,3.8-8.5,8.5
			S217.2,221.9,221.9,221.9z"/>
	</g>
</g>
</svg>
