<?xml version="1.0" encoding="utf-8"?>
<!-- Generator: Adobe Illustrator 25.4.1, SVG Export Plug-In . SVG Version: 6.00 Build 0)  -->
<svg version="1.1" id="Capa_1" xmlns="http://www.w3.org/2000/svg" xmlns:xlink="http://www.w3.org/1999/xlink" x="0px" y="0px"
	 viewBox="0 0 512 512" style="enable-background:new 0 0 512 512;" xml:space="preserve">
<style type="text/css">
	.st0{fill:url(#Shape_00000183936637835559886320000014241953718847557519_);}
	.st1{fill-rule:evenodd;clip-rule:evenodd;fill:url(#Path_00000110435244970889594340000012034100826957689752_);}
	.st2{fill-rule:evenodd;clip-rule:evenodd;fill:url(#Path_00000176021778407504690590000011645495020242775689_);}
	.st3{fill-rule:evenodd;clip-rule:evenodd;fill:url(#Path_00000183243493938843000210000013798333264990776762_);}
	.st4{fill-rule:evenodd;clip-rule:evenodd;fill:url(#Path_00000029756223420987807110000006879131793825812919_);}
	.st5{fill:url(#Shape_00000123408484255652024370000010565635175497539998_);}
	.st6{fill-rule:evenodd;clip-rule:evenodd;fill:url(#Path_00000049190572369893918500000003747577019368637066_);}
	.st7{fill-rule:evenodd;clip-rule:evenodd;fill:url(#Path_00000172408884368909489460000003508056158161168534_);}
</style>
<g>
	<g id="Page-1_31_">
		<g id="_x30_32---Sweat-Smile" transform="translate(-1)">
			
				<linearGradient id="Shape_00000106840445452798540690000009529119909499782323_" gradientUnits="userSpaceOnUse" x1="1.0006" y1="256.0002" x2="513.0009" y2="256.0002">
				<stop  offset="0" style="stop-color:#0F8FCE"/>
				<stop  offset="1" style="stop-color:#095A81"/>
			</linearGradient>
			<path id="Shape_119_" style="fill:url(#Shape_00000106840445452798540690000009529119909499782323_);" d="M495.9,102.4
				c0-29.4-21.2-64.9-38.9-89.5c-4.8-6.7-12.5-10.6-20.8-10.6c-8.2,0-16,4-20.8,10.6c-6.7,9.3-13,18.9-18.7,28.9
				C355.3,14.5,306.7-0.1,257.1,0C142.3,0,41.5,76.4,10.5,187S26,415.2,124.1,474.8s224,46.6,307.8-31.9s105.2-203.1,52.2-305
				C491.8,127.6,495.9,115.2,495.9,102.4L495.9,102.4z M429.3,22.9c1.6-2.2,4.2-3.6,6.9-3.6s5.3,1.3,6.9,3.6
				c13.3,18.4,35.7,53.3,35.7,79.5c0,23.6-19.1,42.7-42.7,42.7c-23.6,0-42.7-19.1-42.7-42.7C393.6,76.2,415.9,41.3,429.3,22.9
				L429.3,22.9z M257.1,494.8c-131.9,0-238.8-106.9-238.8-238.8S125.2,17.1,257.1,17.1C304,17,349.8,30.9,388.8,56.9
				c-7.3,14.1-11.5,29.6-12.3,45.5v0.2c-9.9-0.1-19.7,1.6-28.9,5.1c-4.3,1.9-6.2,6.8-4.4,11.1c1.8,4.3,6.8,6.3,11.1,4.6
				c7.9-3,16.4-4.2,24.8-3.7c5.6,18.5,19.8,33.2,38.2,39.3c18.4,6.1,38.6,3,54.1-8.5c36.4,74,32,161.6-11.6,231.6
				S339.6,494.8,257.1,494.8L257.1,494.8z"/>
			<g>
				
					<linearGradient id="Path_00000111913853893400109990000013033133764563153802_" gradientUnits="userSpaceOnUse" x1="410.6279" y1="110.908" x2="444.7474" y2="110.908">
					<stop  offset="0" style="stop-color:#0F8FCE"/>
					<stop  offset="1" style="stop-color:#095A81"/>
				</linearGradient>
				
					<path id="Path_111_" style="fill-rule:evenodd;clip-rule:evenodd;fill:url(#Path_00000111913853893400109990000013033133764563153802_);" d="
					M436.2,128c4.7,0,8.5-3.8,8.5-8.5s-3.8-8.5-8.5-8.5c-4.7,0-8.5-3.8-8.5-8.5c0-4.7-3.8-8.5-8.5-8.5c-4.7,0-8.5,3.8-8.5,8.5
					C410.6,116.5,422.1,128,436.2,128L436.2,128z"/>
				
					<linearGradient id="Path_00000011723149101533862350000010663787245453204153_" gradientUnits="userSpaceOnUse" x1="95.0067" y1="221.8573" x2="214.4306" y2="221.8573">
					<stop  offset="0" style="stop-color:#0F8FCE"/>
					<stop  offset="1" style="stop-color:#095A81"/>
				</linearGradient>
				
					<path id="Path_110_" style="fill-rule:evenodd;clip-rule:evenodd;fill:url(#Path_00000011723149101533862350000010663787245453204153_);" d="
					M98.4,223.5c-3.8,2.8-4.5,8.2-1.7,11.9c2.8,3.8,8.2,4.5,11.9,1.7c45.3-34,90.2-1.4,92.1,0c1.8,1.4,4.1,1.9,6.3,1.6
					c2.2-0.3,4.3-1.5,5.6-3.3c2.8-3.8,2.1-9.1-1.7-11.9C210.4,223.1,154.1,181.8,98.4,223.5L98.4,223.5z"/>
				
					<linearGradient id="Path_00000098941487644844117440000004005371712108443555_" gradientUnits="userSpaceOnUse" x1="299.7327" y1="221.8593" x2="419.1575" y2="221.8593">
					<stop  offset="0" style="stop-color:#0F8FCE"/>
					<stop  offset="1" style="stop-color:#095A81"/>
				</linearGradient>
				
					<path id="Path_109_" style="fill-rule:evenodd;clip-rule:evenodd;fill:url(#Path_00000098941487644844117440000004005371712108443555_);" d="
					M313.4,237.2c0.5-0.3,46.6-34.1,92.1,0c3.8,2.8,9.1,2.1,11.9-1.7c2.8-3.8,2.1-9.1-1.7-11.9c-55.7-41.7-112-0.4-112.6,0
					c-3.8,2.8-4.5,8.2-1.7,11.9C304.3,239.2,309.6,240,313.4,237.2z"/>
				
					<linearGradient id="Path_00000121978478019060571960000008348482789821855661_" gradientUnits="userSpaceOnUse" x1="86.4721" y1="128.0224" x2="171.7916" y2="128.0224">
					<stop  offset="0" style="stop-color:#0F8FCE"/>
					<stop  offset="1" style="stop-color:#095A81"/>
				</linearGradient>
				
					<path id="Path_108_" style="fill-rule:evenodd;clip-rule:evenodd;fill:url(#Path_00000121978478019060571960000008348482789821855661_);" d="
					M92.3,153c2.1,0.7,4.5,0.5,6.5-0.5c2-1,3.6-2.8,4.3-4.9c2.8-10.8,10.1-19.9,20-25c12-4.2,25.1-4,36.8,0.7
					c4.3,1.8,9.3-0.2,11.2-4.5c1.8-4.3-0.2-9.3-4.5-11.2c-16.1-6.5-34.1-6.8-50.4-0.6c-14.4,7-25,19.8-29.3,35.2
					c-0.7,2.1-0.6,4.5,0.5,6.5C88.4,150.8,90.2,152.3,92.3,153z"/>
			</g>
			
				<linearGradient id="Shape_00000181051003523940223010000006697116441656226182_" gradientUnits="userSpaceOnUse" x1="70.4653" y1="390.4765" x2="443.7237" y2="390.4765">
				<stop  offset="0" style="stop-color:#0F8FCE"/>
				<stop  offset="1" style="stop-color:#095A81"/>
			</linearGradient>
			<path id="Shape_118_" style="fill:url(#Shape_00000181051003523940223010000006697116441656226182_);" d="M420.5,304.4
				c-52.4,19-107.7,28.6-163.5,28.3c-55.7,0.3-111.1-9.3-163.5-28.3c-5.6-2.1-11.9-1.2-16.6,2.5c-4.7,3.7-7.2,9.6-6.4,15.5
				c4.5,36.4,31.2,155.3,186.5,155.3s182-118.9,186.5-155.3c0.7-5.9-1.7-11.8-6.4-15.5C432.5,303.2,426.2,302.2,420.5,304.4
				L420.5,304.4z M372.2,336.6l-1.2,8.8c-1.4,10.3-9,18.7-19.1,21.2c-31.2,6.6-63,9.5-94.8,8.7c-31.8,0.8-63.6-2.1-94.8-8.7
				c-10.1-2.5-17.7-10.9-19.1-21.2l-1.2-8.8c37.7,8.7,76.4,13.1,115.1,13.2C295.8,349.8,334.5,345.3,372.2,336.6L372.2,336.6z
				 M169.4,442.7c14-14.8,33.2-23.7,53.6-24.7c10.4-1,20.5,3.8,26.5,12.3c1.4,2.8,4.3,4.6,7.5,4.7c3.2-0.1,6.1-1.8,7.7-4.5
				c5.9-8.6,16.1-13.4,26.5-12.5c20.4,1.1,39.5,9.9,53.6,24.7c-27.5,12.6-57.5,18.7-87.7,17.9C226.9,461.4,196.9,455.3,169.4,442.7
				L169.4,442.7z M360,434.2c-17.4-20.1-42.2-32.1-68.8-33.3c-12.5-0.4-24.7,3.9-34.1,12.3c-9.4-8.3-21.6-12.7-34.1-12.3
				c-26.5,1.2-51.4,13.2-68.8,33.3c-49.9-32.1-63.2-85.6-66.7-113.9c7.8,3,20.3,7.3,36.6,11.8l2.2,15.7c2.4,17.2,15,31.3,31.9,35.4
				c32.5,6.8,65.6,9.9,98.8,9.2c33.2,0.7,66.4-2.4,98.9-9.2c16.9-4.1,29.5-18.2,31.9-35.4l2.2-15.7c16.2-4.4,28.7-8.8,36.6-11.8
				C423.2,348.6,409.8,402.1,360,434.2L360,434.2z"/>
			<g>
				
					<linearGradient id="Path_00000074415785698954182480000016027705404950441144_" gradientUnits="userSpaceOnUse" x1="43.8219" y1="294.3148" x2="95.007" y2="294.3148">
					<stop  offset="0" style="stop-color:#0F8FCE"/>
					<stop  offset="1" style="stop-color:#095A81"/>
				</linearGradient>
				
					<path id="Path_107_" style="fill-rule:evenodd;clip-rule:evenodd;fill:url(#Path_00000074415785698954182480000016027705404950441144_);" d="
					M95,281.5c0-4.7-3.8-8.5-8.5-8.5c-19.3,0.5-36.2,13.1-42.2,31.4c-1.5,4.5,0.9,9.3,5.4,10.8s9.3-0.9,10.8-5.4
					c3.7-11.4,14.1-19.2,26.1-19.8C91.2,290,95,286.2,95,281.5L95,281.5z"/>
				
					<linearGradient id="Path_00000003075324480369455920000009509985306798812586_" gradientUnits="userSpaceOnUse" x1="419.1276" y1="294.314" x2="470.3601" y2="294.314">
					<stop  offset="0" style="stop-color:#0F8FCE"/>
					<stop  offset="1" style="stop-color:#095A81"/>
				</linearGradient>
				
					<path id="Path_106_" style="fill-rule:evenodd;clip-rule:evenodd;fill:url(#Path_00000003075324480369455920000009509985306798812586_);" d="
					M469.9,304.4c-6-18.3-22.9-30.9-42.2-31.4c-4.7,0-8.5,3.8-8.6,8.5s3.8,8.5,8.5,8.6c12,0.5,22.4,8.4,26.1,19.8
					c1.5,4.5,6.3,6.9,10.8,5.4C469,313.7,471.4,308.9,469.9,304.4L469.9,304.4z"/>
			</g>
		</g>
	</g>
</g>
</svg>
