<?xml version="1.0" encoding="utf-8"?>
<!-- Generator: Adobe Illustrator 26.3.1, SVG Export Plug-In . SVG Version: 6.00 Build 0)  -->
<svg version="1.1" id="Layer_1" xmlns="http://www.w3.org/2000/svg" xmlns:xlink="http://www.w3.org/1999/xlink" x="0px" y="0px"
	 viewBox="0 0 512 512" style="enable-background:new 0 0 512 512;" xml:space="preserve">
<style type="text/css">
	.st0{fill:url(#SVGID_1_);}
	.st1{fill:url(#SVGID_00000170271645540245489340000010390354253740381576_);}
	.st2{fill:url(#SVGID_00000057845313721707309250000000250638223048803744_);}
	.st3{fill:url(#SVGID_00000008830385447907566700000011435202683932400033_);}
	.st4{fill:url(#SVGID_00000088850920753298499450000006633877926767477904_);}
</style>
<g id="Layer_2_00000039106905254585441410000016942769340338236806_">
	<linearGradient id="SVGID_1_" gradientUnits="userSpaceOnUse" x1="160" y1="176" x2="352" y2="176">
		<stop  offset="0" style="stop-color:#0F8FCE"/>
		<stop  offset="1" style="stop-color:#095A81"/>
	</linearGradient>
	<path class="st0" d="M256,272c-53,0-96-43-96-96s43-96,96-96s96,43,96,96S309,272,256,272z M256,112c-35.3,0-64,28.7-64,64
		s28.7,64,64,64s64-28.7,64-64S291.3,112,256,112z"/>
	
		<linearGradient id="SVGID_00000047023576575354850640000012755435207302050739_" gradientUnits="userSpaceOnUse" x1="62.24" y1="398.094" x2="449.76" y2="398.094">
		<stop  offset="0" style="stop-color:#0F8FCE"/>
		<stop  offset="1" style="stop-color:#095A81"/>
	</linearGradient>
	<path style="fill:url(#SVGID_00000047023576575354850640000012755435207302050739_);" d="M256,496c-71.8,0-139.9-32.3-185.4-87.8
		l-8.3-10.2l8.3-10.1c84.1-102.4,235.4-117.2,337.8-33.1c12.1,9.9,23.2,21,33.1,33.1l8.3,10.1l-8.3,10.2
		C395.9,463.7,327.8,496,256,496z M104.2,398.1c78.4,83.9,210,88.4,294,10c3.5-3.2,6.8-6.6,10-10c-78.4-83.9-210-88.4-294-10
		C110.7,391.3,107.4,394.6,104.2,398.1z"/>
	
		<linearGradient id="SVGID_00000147193622658005971450000001288860964955425457_" gradientUnits="userSpaceOnUse" x1="15.84" y1="256.0001" x2="495.84" y2="256.0001">
		<stop  offset="0" style="stop-color:#0F8FCE"/>
		<stop  offset="1" style="stop-color:#095A81"/>
	</linearGradient>
	<path style="fill:url(#SVGID_00000147193622658005971450000001288860964955425457_);" d="M256,496
		C123.5,496.1,15.9,388.7,15.8,256.2S123.1,16.1,255.7,16s240.1,107.3,240.2,239.8c0,55.5-19.2,109.4-54.4,152.3
		C395.9,463.7,327.8,496,256,496z M256,48C141.1,48,48,141.1,48,256s93.1,208,208,208s208-93.1,208-208S370.9,48,256,48z"/>
	
		<linearGradient id="SVGID_00000070097034851522447500000001976815806206246787_" gradientUnits="userSpaceOnUse" x1="82.88" y1="398.8448" x2="429.12" y2="398.8448">
		<stop  offset="0" style="stop-color:#0F8FCE"/>
		<stop  offset="1" style="stop-color:#095A81"/>
	</linearGradient>
	<path style="fill:url(#SVGID_00000070097034851522447500000001976815806206246787_);" d="M82.9,398.1c0,0,161.1,180,325.1,17.9
		l21.1-17.9c0,0-137-142.1-276-56.8L82.9,398.1z"/>
	
		<linearGradient id="SVGID_00000025434062930820822340000002214157882885663628_" gradientUnits="userSpaceOnUse" x1="176" y1="176" x2="336" y2="176">
		<stop  offset="0" style="stop-color:#0F8FCE"/>
		<stop  offset="1" style="stop-color:#095A81"/>
	</linearGradient>
	<circle style="fill:url(#SVGID_00000025434062930820822340000002214157882885663628_);" cx="256" cy="176" r="80"/>
</g>
</svg>
