<svg id="Capa_1" data-name="Capa 1" xmlns="http://www.w3.org/2000/svg" xmlns:xlink="http://www.w3.org/1999/xlink" viewBox="0 0 512 512"><defs><style>.cls-1{fill:url(#linear-gradient);}.cls-2{fill:url(#linear-gradient-2);}</style><linearGradient id="linear-gradient" y1="256" x2="512" y2="256" gradientUnits="userSpaceOnUse"><stop offset="0" stop-color="#0f8fce"/><stop offset="1" stop-color="#095a81"/></linearGradient><linearGradient id="linear-gradient-2" x1="88.46" y1="135.71" x2="233.89" y2="135.71" xlink:href="#linear-gradient"/></defs><path class="cls-1" d="M446.58,0H65.43A65.5,65.5,0,0,0,0,65.43V446.57A65.5,65.5,0,0,0,65.43,512H446.58A65.5,65.5,0,0,0,512,446.57V65.43A65.5,65.5,0,0,0,446.58,0Zm35.26,446.58a35.3,35.3,0,0,1-35.26,35.26H65.43a35.31,35.31,0,0,1-35.27-35.26v-55l99.25-84.45A9.75,9.75,0,0,1,142,307l62.18,51.63a15.07,15.07,0,0,0,20.3-.95l147.73-148a9.77,9.77,0,0,1,14.49.74L481.84,327.7V446.58Zm0-166.72L410.08,191.5a39.93,39.93,0,0,0-59.24-3l-138,138.22-51.59-42.84a39.85,39.85,0,0,0-51.37.31L30.16,352V65.43A35.31,35.31,0,0,1,65.43,30.16H446.58a35.31,35.31,0,0,1,35.26,35.27Z"/><path class="cls-2" d="M161.17,63a72.72,72.72,0,1,0,72.72,72.72A72.8,72.8,0,0,0,161.17,63Zm0,115.27a42.56,42.56,0,1,1,42.56-42.55A42.6,42.6,0,0,1,161.17,178.26Z"/></svg>