<?xml version="1.0" encoding="utf-8"?>
<!-- Generator: Adobe Illustrator 25.4.1, SVG Export Plug-In . SVG Version: 6.00 Build 0)  -->
<svg version="1.1" id="Capa_1" xmlns="http://www.w3.org/2000/svg" xmlns:xlink="http://www.w3.org/1999/xlink" x="0px" y="0px"
	 viewBox="0 0 512 512" style="enable-background:new 0 0 512 512;" xml:space="preserve">
<style type="text/css">
	.st0{fill:url(#SVGID_1_);}
	.st1{fill:url(#SVGID_00000060722172790383133390000015333897481445436314_);}
	.st2{fill:url(#SVGID_00000108298407708448150900000006985216762767788199_);}
</style>
<g transform="translate(1 1)">
	<g>
		<g>
			<linearGradient id="SVGID_1_" gradientUnits="userSpaceOnUse" x1="-1" y1="255" x2="511" y2="255">
				<stop  offset="0" style="stop-color:#0F8FCE"/>
				<stop  offset="1" style="stop-color:#095A81"/>
			</linearGradient>
			<path class="st0" d="M255-1C113.6-1-1,113.6-1,255s114.6,256,256,256s256-114.6,256-256S396.4-1,255-1z M255,468.3
				c-117.8,0-213.3-95.5-213.3-213.3S137.2,41.7,255,41.7S468.3,137.2,468.3,255S372.8,468.3,255,468.3z"/>
			
				<linearGradient id="SVGID_00000103979037360076633270000001559980295186079420_" gradientUnits="userSpaceOnUse" x1="127" y1="254.9995" x2="233.666" y2="254.9995">
				<stop  offset="0" style="stop-color:#0F8FCE"/>
				<stop  offset="1" style="stop-color:#095A81"/>
			</linearGradient>
			<path style="fill:url(#SVGID_00000103979037360076633270000001559980295186079420_);" d="M212.3,127h-64
				c-11.8,0-21.3,9.6-21.3,21.3v213.3c0,11.8,9.6,21.3,21.3,21.3h64c11.8,0,21.3-9.6,21.3-21.3V148.3
				C233.7,136.6,224.1,127,212.3,127z M191,340.3h-21.3V169.7H191V340.3z"/>
			
				<linearGradient id="SVGID_00000041254219386375008280000012509868388021931948_" gradientUnits="userSpaceOnUse" x1="276.334" y1="254.9995" x2="383" y2="254.9995">
				<stop  offset="0" style="stop-color:#0F8FCE"/>
				<stop  offset="1" style="stop-color:#095A81"/>
			</linearGradient>
			<path style="fill:url(#SVGID_00000041254219386375008280000012509868388021931948_);" d="M361.7,127h-64
				c-11.8,0-21.3,9.6-21.3,21.3v213.3c0,11.8,9.6,21.3,21.3,21.3h64c11.8,0,21.3-9.6,21.3-21.3V148.3C383,136.6,373.4,127,361.7,127
				z M340.3,340.3H319V169.7h21.3V340.3z"/>
		</g>
	</g>
</g>
</svg>
