<?xml version="1.0" encoding="utf-8"?>
<!-- Generator: Adobe Illustrator 24.3.0, SVG Export Plug-In . SVG Version: 6.00 Build 0)  -->
<svg version="1.1" id="Capa_1" xmlns="http://www.w3.org/2000/svg" xmlns:xlink="http://www.w3.org/1999/xlink" x="0px" y="0px"
	 viewBox="0 0 512 512" style="enable-background:new 0 0 512 512;" xml:space="preserve">
<style type="text/css">
	.st0{fill:url(#SVGID_1_);}
	.st1{fill:url(#SVGID_2_);}
	.st2{fill:url(#SVGID_3_);}
	.st3{fill:url(#SVGID_4_);}
	.st4{fill:url(#SVGID_5_);}
	.st5{fill:url(#SVGID_6_);}
</style>
<g>
	<g>
		<g>
			<linearGradient id="SVGID_1_" gradientUnits="userSpaceOnUse" x1="425.6908" y1="407.0232" x2="463.0388" y2="444.3712">
				<stop  offset="0" style="stop-color:#0F8FCE"/>
				<stop  offset="1" style="stop-color:#095A81"/>
			</linearGradient>
			<path class="st0" d="M467.6,419.1L467.6,419.1L467.6,419.1c0.5-0.2,1-0.3,1.4-0.6c0.6-0.2,1.2-0.4,1.7-0.7
				c0.4-0.3,0.8-0.7,1.1-1.1c0.4-0.4,0.8-0.7,1.2-1.2c0.3-0.5,0.5-1,0.7-1.6c0.3-0.5,0.5-0.9,0.6-1.5c0.1-0.6,0.1-1.1,0-1.7
				c0.1-0.6,0.1-1.1,0-1.7l0,0v0c-0.5-2.7-0.8-5.4-0.8-8.2c0-19.4,13.2-36.4,32-41.3c3-0.8,5.3-3,6.1-6c0.8-2.9,0-6.1-2.1-8.3
				s-5.3-3-8.2-2.3c-26.4,6.8-44.8,30.6-44.8,57.8c0,1.1,0.1,2.2,0.2,3.3c-32.4,9.8-54.5,39.6-54.6,73.4c0,0.7,0.1,1.3,0.1,2
				c-8,4.8-15,11.1-20.6,18.5c-2.8,3.8-2.1,9.1,1.7,11.9c3.7,2.8,9.1,2.1,11.9-1.6c5.2-6.9,11.9-12.5,19.5-16.4c0,0,0.1-0.1,0.1-0.1
				c0.6-0.3,1.1-0.8,1.6-1.2c0.4-0.3,0.7-0.5,1-0.8c0.5-0.9,1.1-1.9,1.6-2.8c0.1-0.4,0.1-0.8,0.2-1.3c0.2-0.7,0.2-1.4,0.2-2
				c0-0.1,0-0.1,0-0.2c-0.2-2-0.3-4-0.3-6C419.2,449,439.5,424.4,467.6,419.1z"/>
			<linearGradient id="SVGID_2_" gradientUnits="userSpaceOnUse" x1="468.4124" y1="468.4939" x2="487.5155" y2="487.597">
				<stop  offset="0" style="stop-color:#0F8FCE"/>
				<stop  offset="1" style="stop-color:#095A81"/>
			</linearGradient>
			<path class="st1" d="M502.2,451.1L502.2,451.1c-26.2,4.4-46.7,24.8-51.3,50.9c-0.7,4.7,2.4,9,7.1,9.8c0.4,0.1,0.9,0.1,1.3,0.1
				c4.2,0,7.8-3.1,8.4-7.2c3.5-18.8,18.2-33.4,37-36.7c4.7-0.7,7.9-5.1,7.2-9.7C511.2,453.6,506.8,450.4,502.2,451.1z"/>
			<linearGradient id="SVGID_3_" gradientUnits="userSpaceOnUse" x1="-5.1137" y1="352.9438" x2="140.393" y2="498.4505">
				<stop  offset="0" style="stop-color:#0F8FCE"/>
				<stop  offset="1" style="stop-color:#095A81"/>
			</linearGradient>
			<path class="st2" d="M109.8,479.6c0-0.7,0.1-1.3,0.1-2c0-33.8-22.2-63.6-54.6-73.4c0.1-1.1,0.2-2.2,0.2-3.3
				c0-27.2-18.4-51-44.8-57.8c-4.6-1.2-9.2,1.6-10.4,6.1s1.6,9.2,6.1,10.4l0,0c18.8,4.8,32,21.8,32,41.3c0,2.7-0.3,5.5-0.8,8.2v0
				l0,0c-0.1,0.6,0,1.1,0,1.7c0,0.6,0,1.1,0,1.7c0.2,0.5,0.4,1,0.6,1.5c0.2,0.5,0.4,1.1,0.7,1.6c0.4,0.4,0.7,0.8,1.2,1.2
				c0.3,0.4,0.7,0.8,1.1,1.1c0.5,0.3,1.1,0.5,1.7,0.7c0.4,0.2,0.9,0.4,1.4,0.6l0,0l0,0c28.1,5.4,48.4,29.9,48.4,58.5
				c0,2-0.1,4-0.3,6c0,0.1,0,0.1,0,0.2c0,0.7,0.1,1.4,0.2,2c0,0.4,0.1,0.8,0.2,1.3c0.5,1,1,1.9,1.6,2.8c0.3,0.3,0.7,0.6,1,0.8
				c0.5,0.5,1,0.9,1.6,1.2c0,0,0.1,0.1,0.1,0.1c7.7,3.9,14.4,9.5,19.5,16.4c2.9,3.7,8.2,4.5,11.9,1.6c3.7-2.8,4.5-8.2,1.7-11.9
				C124.7,490.7,117.7,484.4,109.8,479.6z"/>
			<linearGradient id="SVGID_4_" gradientUnits="userSpaceOnUse" x1="6.0164" y1="450.021" x2="62.0655" y2="506.0701">
				<stop  offset="0" style="stop-color:#0F8FCE"/>
				<stop  offset="1" style="stop-color:#095A81"/>
			</linearGradient>
			<path class="st3" d="M9.8,451.1c-4.7-0.7-9,2.5-9.7,7.2s2.5,9,7.2,9.7c18.8,3.3,33.5,18,37,36.7c0.7,4.1,4.2,7.2,8.4,7.2
				c0.5,0,0.9,0,1.3-0.1c4.7-0.7,7.8-5.1,7.1-9.8C56.5,475.9,36,455.5,9.8,451.1z"/>
			<linearGradient id="SVGID_5_" gradientUnits="userSpaceOnUse" x1="107.7193" y1="138.8811" x2="404.2849" y2="435.4468">
				<stop  offset="0" style="stop-color:#0F8FCE"/>
				<stop  offset="1" style="stop-color:#095A81"/>
			</linearGradient>
			<path class="st4" d="M387.6,451.4c3-1.4,5-4.4,5-7.8v-128c0-2.1-0.8-4.1-2.1-5.6l-57.6-65.9V119.9c0.8-7.5,4.8-67.3-72.1-118.5
				l0,0c-0.9-0.6-2-1.1-3.1-1.3c-1.1,0-2.2,0-3.3,0c-1.1,0.2-2.1,0.6-3.1,1.3l0,0c-76.8,51.2-72.9,111.1-72.1,118.5v124.3L121.6,310
				c-1.4,1.6-2.1,3.6-2.1,5.6v128c0,3.3,1.9,6.4,5,7.8c3,1.4,6.6,0.9,9.1-1.3l53-45.5l21.3,26.7c-3.1,2.4-5.5,5.6-7,9.2
				c-3.6,8.5-1.7,18.3,4.9,24.7l44.1,44.1c1.6,1.6,3.8,2.5,6,2.5c2.3,0,4.4-0.9,6-2.5l44.1-44.1c5.4-5.4,7.8-13.3,6.1-20.8
				c-1.6-7.5-6.9-13.7-14.1-16.4l21.7-27.1h1.3l57.3,49.1C381,452.3,384.5,452.8,387.6,451.4z M179.2,388.5l-42.7,36.6V318.9
				l42.7-48.8V388.5z M294.1,453.2L256,491.3l-38.1-38.1c-1.6-1.6-2.1-4-1.2-6.1s2.9-3.5,5.2-3.5h68.3c2.3,0,4.3,1.4,5.2,3.5
				S295.7,451.6,294.1,453.2z M277.5,426.6H226L205.5,401H298L277.5,426.6z M315.7,383.9H196.3v-34.1h119.5V383.9z M315.7,247.4
				v85.3H196.3V127.9h119.5V247.4z M196.1,110.9c0.7-15.9,8.3-55.4,59.9-91.9c51.9,36.7,59.4,75.9,60,91.9H196.1z M375.5,425.1
				l-42.7-36.6V270.1l42.7,48.8V425.1z"/>
			<linearGradient id="SVGID_6_" gradientUnits="userSpaceOnUse" x1="225.8395" y1="191.6155" x2="286.1797" y2="251.9557">
				<stop  offset="0" style="stop-color:#0F8FCE"/>
				<stop  offset="1" style="stop-color:#095A81"/>
			</linearGradient>
			<path class="st5" d="M256,264.5c23.6,0,42.7-19.1,42.7-42.7s-19.1-42.7-42.7-42.7s-42.7,19.1-42.7,42.7
				C213.4,245.3,232.4,264.4,256,264.5z M256,196.2c14.1,0,25.6,11.5,25.6,25.6s-11.5,25.6-25.6,25.6s-25.6-11.5-25.6-25.6
				C230.4,207.7,241.9,196.2,256,196.2z"/>
		</g>
	</g>
</g>
</svg>
