<?xml version="1.0" encoding="UTF-8"?><svg id="a" xmlns="http://www.w3.org/2000/svg" viewBox="0 0 852.86 966.49"><path d="M149.56,331.91c-43.08,57.88-71.89,129.57-71.89,207.11,0,191.65,162.87,347.58,354.53,347.58v77.67C197.72,964.27,0,773.5,0,539.02c0-128.89,57.64-244.56,148.49-322.61l1.07,115.51Z"/><path d="M703.69,631.12c42.97-57.73,71.7-129.23,71.7-206.57,0-191.15-152.04-346.67-343.19-346.67V.42c233.87,0,420.66,190.27,420.66,424.14,0,128.55-57.49,243.93-148.1,321.77l-1.07-115.2Z"/><g id="b"><g id="c"><path d="M633.55,420.37L225.05,11.87c-17.48-16.5-45.02-15.7-61.52,1.78-15.8,16.74-15.83,42.88-.08,59.66l469.65,469.69,.44-122.63Z"/><polygon points="634.45 628.26 220.56 214.38 220.12 337.38 633.11 750.37 634.45 628.26"/><path d="M220.12,544.74l408.5,408.5c18.05,18.65,48.74,17.68,65.47-3.34,7.56-9.5,10.71-22.04,8.67-34.01-1.65-9.72-6.15-17.93-12.58-24.17L220.56,422.15l-.44,122.59Z"/></g></g></svg>