<?xml version="1.0" encoding="utf-8"?>
<!-- Generator: Adobe Illustrator 25.4.1, SVG Export Plug-In . SVG Version: 6.00 Build 0)  -->
<svg version="1.1" id="Capa_1" xmlns="http://www.w3.org/2000/svg" xmlns:xlink="http://www.w3.org/1999/xlink" x="0px" y="0px"
	 viewBox="0 0 512 512" style="enable-background:new 0 0 512 512;" xml:space="preserve">
<style type="text/css">
	.st0{fill-rule:evenodd;clip-rule:evenodd;}
</style>
<g>
	<g id="Page-1_6_">
		<g id="_x30_07---Banner-Ad">
			<path id="Shape_34_" d="M460.8,0H51.2C22.9,0,0,22.9,0,51.2v409.6C0,489.1,22.9,512,51.2,512h409.6c28.3,0,51.2-22.9,51.2-51.2
				V51.2C512,22.9,489.1,0,460.8,0L460.8,0z M51.2,17.1h409.6c18.9,0,34.1,15.3,34.1,34.1v51.2H17.1V51.2
				C17.1,32.3,32.3,17.1,51.2,17.1z M460.8,494.9H51.2c-18.9,0-34.1-15.3-34.1-34.1V119.5h477.9v341.3
				C494.9,479.7,479.7,494.9,460.8,494.9z"/>
			<path id="Shape_33_" d="M59.7,85.3c14.1,0,25.6-11.5,25.6-25.6S73.9,34.1,59.7,34.1S34.1,45.6,34.1,59.7S45.6,85.3,59.7,85.3z
				 M59.7,51.2c4.7,0,8.5,3.8,8.5,8.5s-3.8,8.5-8.5,8.5s-8.5-3.8-8.5-8.5S55,51.2,59.7,51.2z"/>
			<path id="Shape_32_" d="M128,85.3c14.1,0,25.6-11.5,25.6-25.6S142.1,34.1,128,34.1s-25.6,11.5-25.6,25.6S113.9,85.3,128,85.3z
				 M128,51.2c4.7,0,8.5,3.8,8.5,8.5s-3.8,8.5-8.5,8.5c-4.7,0-8.5-3.8-8.5-8.5S123.3,51.2,128,51.2z"/>
			<path id="Shape_31_" d="M196.3,85.3c14.1,0,25.6-11.5,25.6-25.6s-11.5-25.6-25.6-25.6s-25.6,11.5-25.6,25.6
				S182.1,85.3,196.3,85.3z M196.3,51.2c4.7,0,8.5,3.8,8.5,8.5s-3.8,8.5-8.5,8.5s-8.5-3.8-8.5-8.5S191.6,51.2,196.3,51.2z"/>
			<path id="Shape_30_" d="M366.9,85.3h85.3c14.1,0,25.6-11.5,25.6-25.6s-11.5-25.6-25.6-25.6h-85.3c-14.1,0-25.6,11.5-25.6,25.6
				S352.8,85.3,366.9,85.3z M366.9,51.2h85.3c4.7,0,8.5,3.8,8.5,8.5s-3.8,8.5-8.5,8.5h-85.3c-4.7,0-8.5-3.8-8.5-8.5
				S362.2,51.2,366.9,51.2z"/>
			<path id="Shape_29_" d="M452.3,136.5H59.7c-14.1,0-25.6,11.5-25.6,25.6v119.5c0,14.1,11.5,25.6,25.6,25.6h392.5
				c14.1,0,25.6-11.5,25.6-25.6V162.1C477.9,148,466.4,136.5,452.3,136.5L452.3,136.5z M460.8,281.6c0,4.7-3.8,8.5-8.5,8.5H59.7
				c-4.7,0-8.5-3.8-8.5-8.5V162.1c0-4.7,3.8-8.5,8.5-8.5h392.5c4.7,0,8.5,3.8,8.5,8.5L460.8,281.6L460.8,281.6z"/>
			<path id="Shape_28_" d="M162.1,332.8H76.8c-14.1,0-25.6,11.5-25.6,25.6v85.3c0,14.1,11.5,25.6,25.6,25.6h85.3
				c14.1,0,25.6-11.5,25.6-25.6v-85.3C187.7,344.3,176.3,332.8,162.1,332.8z M107.4,401.1l-39.1,39.1v-78.3L107.4,401.1z
				 M80.3,349.9h78.3L119.5,389L80.3,349.9z M119.5,413.1l39.1,39.1H80.3L119.5,413.1z M131.5,401.1l39.1-39.1v78.3L131.5,401.1z"/>
			<g>
				<path id="Path_22_" class="st0" d="M221.9,349.9h76.8c4.7,0,8.5-3.8,8.5-8.5s-3.8-8.5-8.5-8.5h-76.8c-4.7,0-8.5,3.8-8.5,8.5
					S217.2,349.9,221.9,349.9L221.9,349.9z"/>
				<path id="Path_21_" class="st0" d="M452.3,384h-85.3c-4.7,0-8.5,3.8-8.5,8.5s3.8,8.5,8.5,8.5h85.3c4.7,0,8.5-3.8,8.5-8.5
					S457,384,452.3,384z"/>
				<path id="Path_20_" class="st0" d="M221.9,401.1h110.9c4.7,0,8.5-3.8,8.5-8.5s-3.8-8.5-8.5-8.5H221.9c-4.7,0-8.5,3.8-8.5,8.5
					S217.2,401.1,221.9,401.1L221.9,401.1z"/>
				<path id="Path_19_" class="st0" d="M452.3,418.1H298.7c-4.7,0-8.5,3.8-8.5,8.5s3.8,8.5,8.5,8.5h153.6c4.7,0,8.5-3.8,8.5-8.5
					S457,418.1,452.3,418.1z"/>
				<path id="Path_18_" class="st0" d="M221.9,435.2h42.7c4.7,0,8.5-3.8,8.5-8.5s-3.8-8.5-8.5-8.5h-42.7c-4.7,0-8.5,3.8-8.5,8.5
					S217.2,435.2,221.9,435.2z"/>
				<path id="Path_17_" class="st0" d="M409.6,452.3H221.9c-4.7,0-8.5,3.8-8.5,8.5s3.8,8.5,8.5,8.5h187.7c4.7,0,8.5-3.8,8.5-8.5
					S414.3,452.3,409.6,452.3z"/>
			</g>
			<path id="Shape_27_" d="M213.3,170.7c-18.9,0-34.1,15.3-34.1,34.1v59.7c0,4.7,3.8,8.5,8.5,8.5c4.7,0,8.5-3.8,8.5-8.5v-25.6h34.1
				v25.6c0,4.7,3.8,8.5,8.5,8.5c4.7,0,8.5-3.8,8.5-8.5v-59.7C247.5,185.9,232.2,170.7,213.3,170.7L213.3,170.7z M196.3,221.9v-17.1
				c0-9.4,7.6-17.1,17.1-17.1s17.1,7.6,17.1,17.1v17.1H196.3z"/>
			<path id="Shape_26_" d="M298.7,170.7h-17.1c-9.4,0-17.1,7.6-17.1,17.1V256c0,9.4,7.6,17.1,17.1,17.1h17.1
				c18.9,0,34.1-15.3,34.1-34.1v-34.1C332.8,185.9,317.5,170.7,298.7,170.7L298.7,170.7z M315.7,238.9c0,9.4-7.6,17.1-17.1,17.1
				h-17.1v-68.3h17.1c9.4,0,17.1,7.6,17.1,17.1L315.7,238.9L315.7,238.9z"/>
			<path id="Path_16_" class="st0" d="M441.2,173.2c-3.3-3.3-8.7-3.3-12.1,0l-2.5,2.5l-2.5-2.5c-3.3-3.2-8.7-3.2-12,0.1
				c-3.3,3.3-3.3,8.6-0.1,12l2.5,2.5l-2.5,2.5c-2.2,2.1-3.1,5.3-2.3,8.3s3.1,5.3,6.1,6.1s6.2-0.1,8.3-2.3l2.5-2.5l2.5,2.5
				c3.3,3.2,8.7,3.2,12-0.1c3.3-3.3,3.3-8.6,0.1-12l-2.5-2.5l2.5-2.5C444.6,181.9,444.6,176.5,441.2,173.2z"/>
		</g>
	</g>
</g>
</svg>
