<svg height="512" viewBox="0 0 60 60" width="512" xmlns="http://www.w3.org/2000/svg"><g id="Page-1" fill="none" fill-rule="evenodd"><g id="033---UI-Data-Information" fill="rgb(0,0,0)" fill-rule="nonzero" transform="translate(-1)"><path id="Shape" d="m58 0h-54c-1.70925684.05438606-3.05161703 1.4826573-3 3.192v53.616c-.05161703 1.7093427 1.29074316 3.1376139 3 3.192h54c1.7092568-.0543861 3.051617-1.4826573 3-3.192v-53.616c.051617-1.7093427-1.2907432-3.13761394-3-3.192zm-54 2h54c.5989152.06513414 1.0399783.59088136 1 1.192v4.808h-56v-4.808c-.03997832-.60111864.40108479-1.12686586 1-1.192zm54 56h-54c-.59891521-.0651341-1.03997832-.5908814-1-1.192v-46.808h56v46.808c.0475222.6035582-.3973709 1.1338708-1 1.192z"/><circle id="Oval" cx="6" cy="5" r="1"/><circle id="Oval" cx="10" cy="5" r="1"/><circle id="Oval" cx="14" cy="5" r="1"/><path id="Shape" d="m49 6h7c.5522847 0 1-.44771525 1-1s-.4477153-1-1-1h-7c-.5522847 0-1 .44771525-1 1s.4477153 1 1 1z"/><path id="Shape" d="m19 23c1.1045695 0 2-.8954305 2-2v-7c0-1.1045695-.8954305-2-2-2h-10c-1.1045695 0-2 .8954305-2 2v7c0 1.1045695.8954305 2 2 2zm-10-9h10v7h-10z"/><path id="Shape" d="m26 23h10c1.1045695 0 2-.8954305 2-2v-7c0-1.1045695-.8954305-2-2-2h-10c-1.1045695 0-2 .8954305-2 2v7c0 1.1045695.8954305 2 2 2zm0-9h10v7h-10z"/><path id="Shape" d="m53 12h-10c-1.1045695 0-2 .8954305-2 2v7c0 1.1045695.8954305 2 2 2h10c1.1045695 0 2-.8954305 2-2v-7c0-1.1045695-.8954305-2-2-2zm-10 9v-7h10v7z"/><path id="Shape" d="m19 25h-10c-.55228475 0-1 .4477153-1 1s.44771525 1 1 1h10c.5522847 0 1-.4477153 1-1s-.4477153-1-1-1z"/><path id="Shape" d="m19 29h-10c-.55228475 0-1 .4477153-1 1s.44771525 1 1 1h10c.5522847 0 1-.4477153 1-1s-.4477153-1-1-1z"/><path id="Shape" d="m36 25h-10c-.5522847 0-1 .4477153-1 1s.4477153 1 1 1h10c.5522847 0 1-.4477153 1-1s-.4477153-1-1-1z"/><path id="Shape" d="m36 29h-10c-.5522847 0-1 .4477153-1 1s.4477153 1 1 1h10c.5522847 0 1-.4477153 1-1s-.4477153-1-1-1z"/><path id="Shape" d="m53 25h-10c-.5522847 0-1 .4477153-1 1s.4477153 1 1 1h10c.5522847 0 1-.4477153 1-1s-.4477153-1-1-1z"/><path id="Shape" d="m46.932 39.155c-.015-.016-.02-.037-.035-.052-.0265695-.0199375-.0542836-.0383023-.083-.055-9.0008512-8.0634599-22.6271488-8.0634599-31.628 0-.0287164.0166977-.0564305.0350625-.083.055-.015.015-.02.036-.035.052-4.4781251 4.0536288-7.0435245 9.8047258-7.068 15.845 0 .5522847.44771525 1 1 1h44c.5522847 0 1-.4477153 1-1-.0244755-6.0402742-2.5898749-11.7913712-7.068-15.845zm-13.116 14.845h-5.632c.4174114-1.1981296 1.5472421-2.0009455 2.816-2.0009455s2.3985886.8028159 2.816 2.0009455zm2.084 0c-.2523436-1.2031319-.9390703-2.271136-1.929-3l4.936-10.578c.1576822-.3246524.1281887-.7090822-.0771714-1.0058819s-.5547181-.4599106-.9141145-.4267886-.6730585.2573369-.8207141.5866705l-4.935 10.574c-.3793532-.0958077-.7687542-.1461613-1.16-.15-2.3751008.0029983-4.4215673 1.6735832-4.9 4h-16.074c.2761338-4.8283417 2.3398114-9.3809806 5.789-12.771l2.478 2.478c.3923789.3789722 1.0160848.3735524 1.4018186-.0121814s.3911536-1.0094397.0121814-1.4018186l-2.407-2.409c3.5973292-2.9459523 8.0543607-4.6434847 12.7-4.837v3.953c0 .5522847.4477153 1 1 1s1-.4477153 1-1v-3.953c4.6456393.1935153 9.1026708 1.8910477 12.7 4.837l-2.409 2.409c-.2599566.2510745-.3642126.6228779-.2726972.9725073.0915155.3496295.3645604.6226744.7141899.7141899.3496294.0915154.7214328-.0127406.9725073-.2726972l2.478-2.478c3.4499238 3.3897069 5.5143313 7.9423831 5.791 12.771z"/><path id="Shape" d="m53 29h-10c-.5522847 0-1 .4477153-1 1s.4477153 1 1 1h10c.5522847 0 1-.4477153 1-1s-.4477153-1-1-1z"/></g></g></svg>